<?xml version="1.0" standalone="no"?>
<!DOCTYPE svg PUBLIC "-//W3C//DTD SVG 1.1//EN" "http://www.w3.org/Graphics/SVG/1.1/DTD/svg11.dtd" >
<svg xmlns="http://www.w3.org/2000/svg" xmlns:xlink="http://www.w3.org/1999/xlink" version="1.1">
<metadata></metadata>
<defs>
<font id="ditedregular" horiz-adv-x="966" >
<font-face units-per-em="2048" ascent="1638" descent="-410" />
<missing-glyph horiz-adv-x="409" />
<glyph horiz-adv-x="0" />
<glyph horiz-adv-x="682" />
<glyph unicode=" "  horiz-adv-x="409" />
<glyph unicode="&#x09;" horiz-adv-x="409" />
<glyph unicode="&#xa0;" horiz-adv-x="409" />
<glyph unicode="!" horiz-adv-x="372" d="M250 317q0 -26 -19 -44.5t-45 -18.5t-44.5 18.5t-18.5 44.5t18.5 45t44.5 19t45 -19t19 -45zM250 444q0 -26 -19 -44.5t-45 -18.5t-44.5 18.5t-18.5 44.5t18.5 45t44.5 19t45 -19t19 -45zM250 571q0 -26 -19 -44.5t-45 -18.5t-44.5 18.5t-18.5 44.5t18.5 45t44.5 19 t45 -19t19 -45zM250 698q0 -26 -19 -44.5t-45 -18.5t-44.5 18.5t-18.5 44.5t18.5 45t44.5 19t45 -19t19 -45zM250 825q0 -26 -19 -44.5t-45 -18.5t-44.5 18.5t-18.5 44.5t18.5 45t44.5 19t45 -19t19 -45zM250 952q0 -26 -19 -44.5t-45 -18.5t-44.5 18.5t-18.5 44.5t18.5 45 t44.5 19t45 -19t19 -45zM250 1079q0 -26 -19 -44.5t-45 -18.5t-44.5 18.5t-18.5 44.5t18.5 45t44.5 19t45 -19t19 -45zM250 1206q0 -26 -19 -44.5t-45 -18.5t-44.5 18.5t-18.5 44.5t18.5 45t44.5 19t45 -19t19 -45zM272 86q0 -35 -25.5 -60.5t-60.5 -25.5t-60.5 25.5 t-25.5 60.5q0 34 25.5 59t60.5 25t60.5 -25t25.5 -59z" />
<glyph unicode="&#x22;" horiz-adv-x="528" d="M207 895q0 -17 -11.5 -28t-27.5 -11t-27.5 11t-11.5 28q0 15 12 26t27 11t27 -11t12 -26zM231 1016q0 -26 -18.5 -45t-44.5 -19t-45 19t-19 45t19 44.5t45 18.5t44.5 -18.5t18.5 -44.5zM254 1186q0 -35 -25.5 -60.5t-60.5 -25.5t-60.5 25.5t-25.5 60.5q0 34 25.5 59 t60.5 25t60.5 -25t25.5 -59zM399 895q0 -17 -11.5 -28t-27.5 -11q-15 0 -26.5 11t-11.5 28q0 15 11.5 26t26.5 11t27 -11t12 -26zM424 1016q0 -26 -19 -45t-45 -19t-44.5 19t-18.5 45t18.5 44.5t44.5 18.5t45 -18.5t19 -44.5zM446 1186q0 -35 -25.5 -60.5t-60.5 -25.5 t-60.5 25.5t-25.5 60.5q0 34 25.5 59t60.5 25t60.5 -25t25.5 -59z" />
<glyph unicode="#" horiz-adv-x="925" d="M717 63q0 -26 -19 -44.5t-45 -18.5t-44.5 18.5t-18.5 44.5t18.5 45t44.5 19t45 -19t19 -45zM717 190q0 -26 -19 -44.5t-45 -18.5t-44.5 18.5t-18.5 44.5t18.5 45t44.5 19t45 -19t19 -45zM844 317q0 -26 -19 -44.5t-45 -18.5t-44.5 18.5t-18.5 44.5t18.5 45t44.5 19 t45 -19t19 -45zM717 317q0 -26 -19 -44.5t-45 -18.5t-44.5 18.5t-18.5 44.5t18.5 45t44.5 19t45 -19t19 -45zM717 444q0 -26 -19 -44.5t-45 -18.5t-44.5 18.5t-18.5 44.5t18.5 45t44.5 19t45 -19t19 -45zM590 317q0 -26 -19 -44.5t-45 -18.5t-44.5 18.5t-18.5 44.5t18.5 45 t44.5 19t45 -19t19 -45zM463 317q0 -26 -19 -44.5t-45 -18.5t-44.5 18.5t-18.5 44.5t18.5 45t44.5 19t45 -19t19 -45zM717 571q0 -26 -19 -44.5t-45 -18.5t-44.5 18.5t-18.5 44.5t18.5 45t44.5 19t45 -19t19 -45zM717 698q0 -26 -19 -44.5t-45 -18.5t-44.5 18.5t-18.5 44.5 t18.5 45t44.5 19t45 -19t19 -45zM844 952q0 -26 -19 -44.5t-45 -18.5t-44.5 18.5t-18.5 44.5t18.5 45t44.5 19t45 -19t19 -45zM717 825q0 -26 -19 -44.5t-45 -18.5t-44.5 18.5t-18.5 44.5t18.5 45t44.5 19t45 -19t19 -45zM717 952q0 -26 -19 -44.5t-45 -18.5t-44.5 18.5 t-18.5 44.5t18.5 45t44.5 19t45 -19t19 -45zM590 952q0 -26 -19 -44.5t-45 -18.5t-44.5 18.5t-18.5 44.5t18.5 45t44.5 19t45 -19t19 -45zM463 952q0 -26 -19 -44.5t-45 -18.5t-44.5 18.5t-18.5 44.5t18.5 45t44.5 19t45 -19t19 -45zM336 63q0 -26 -19 -44.5t-45 -18.5 t-44.5 18.5t-18.5 44.5t18.5 45t44.5 19t45 -19t19 -45zM336 190q0 -26 -19 -44.5t-45 -18.5t-44.5 18.5t-18.5 44.5t18.5 45t44.5 19t45 -19t19 -45zM336 317q0 -26 -19 -44.5t-45 -18.5t-44.5 18.5t-18.5 44.5t18.5 45t44.5 19t45 -19t19 -45zM336 444q0 -26 -19 -44.5 t-45 -18.5t-44.5 18.5t-18.5 44.5t18.5 45t44.5 19t45 -19t19 -45zM209 317q0 -26 -19 -44.5t-45 -18.5t-44.5 18.5t-18.5 44.5t18.5 45t44.5 19t45 -19t19 -45zM336 571q0 -26 -19 -44.5t-45 -18.5t-44.5 18.5t-18.5 44.5t18.5 45t44.5 19t45 -19t19 -45zM336 698 q0 -26 -19 -44.5t-45 -18.5t-44.5 18.5t-18.5 44.5t18.5 45t44.5 19t45 -19t19 -45zM336 825q0 -26 -19 -44.5t-45 -18.5t-44.5 18.5t-18.5 44.5t18.5 45t44.5 19t45 -19t19 -45zM336 952q0 -26 -19 -44.5t-45 -18.5t-44.5 18.5t-18.5 44.5t18.5 45t44.5 19t45 -19t19 -45z M209 952q0 -26 -19 -44.5t-45 -18.5t-44.5 18.5t-18.5 44.5t18.5 45t44.5 19t45 -19t19 -45zM717 1079q0 -26 -19 -44.5t-45 -18.5t-44.5 18.5t-18.5 44.5t18.5 45t44.5 19t45 -19t19 -45zM717 1206q0 -26 -19 -44.5t-45 -18.5t-44.5 18.5t-18.5 44.5t18.5 45t44.5 19 t45 -19t19 -45zM336 1079q0 -26 -19 -44.5t-45 -18.5t-44.5 18.5t-18.5 44.5t18.5 45t44.5 19t45 -19t19 -45zM336 1206q0 -26 -19 -44.5t-45 -18.5t-44.5 18.5t-18.5 44.5t18.5 45t44.5 19t45 -19t19 -45z" />
<glyph unicode="$" horiz-adv-x="905" d="M188 825q0 -26 -18.5 -44.5t-44.5 -18.5t-45 18.5t-19 44.5t19 45t45 19t44.5 -19t18.5 -45zM188 952q0 -26 -18.5 -44.5t-44.5 -18.5t-45 18.5t-19 44.5t19 45t45 19t44.5 -19t18.5 -45zM188 1079q0 -26 -18.5 -44.5t-44.5 -18.5t-45 18.5t-19 44.5t19 45t45 19 t44.5 -19t18.5 -45zM188 190q0 -26 -18.5 -44.5t-44.5 -18.5t-45 18.5t-19 44.5t19 45t45 19t44.5 -19t18.5 -45zM315 63q0 -26 -18.5 -44.5t-44.5 -18.5t-45 18.5t-19 44.5t19 45t45 19t44.5 -19t18.5 -45zM315 698q0 -26 -18.5 -44.5t-44.5 -18.5t-45 18.5t-19 44.5t19 45 t45 19t44.5 -19t18.5 -45zM315 1206q0 -26 -18.5 -44.5t-44.5 -18.5t-45 18.5t-19 44.5t19 45t45 19t44.5 -19t18.5 -45zM442 63q0 -26 -18.5 -44.5t-44.5 -18.5t-45 18.5t-19 44.5t19 45t45 19t44.5 -19t18.5 -45zM442 698q0 -26 -18.5 -44.5t-44.5 -18.5t-45 18.5 t-19 44.5t19 45t45 19t44.5 -19t18.5 -45zM442 1206q0 -26 -18.5 -44.5t-44.5 -18.5t-45 18.5t-19 44.5t19 45t45 19t44.5 -19t18.5 -45zM569 63q0 -26 -18.5 -44.5t-44.5 -18.5t-45 18.5t-19 44.5t19 45t45 19t44.5 -19t18.5 -45zM569 698q0 -26 -18.5 -44.5t-44.5 -18.5 t-45 18.5t-19 44.5t19 45t45 19t44.5 -19t18.5 -45zM569 1206q0 -26 -18.5 -44.5t-44.5 -18.5t-45 18.5t-19 44.5t19 45t45 19t44.5 -19t18.5 -45zM696 63q0 -26 -18.5 -44.5t-44.5 -18.5t-45 18.5t-19 44.5t19 45t45 19t44.5 -19t18.5 -45zM696 698q0 -26 -18.5 -44.5 t-44.5 -18.5t-45 18.5t-19 44.5t19 45t45 19t44.5 -19t18.5 -45zM696 1206q0 -26 -18.5 -44.5t-44.5 -18.5t-45 18.5t-19 44.5t19 45t45 19t44.5 -19t18.5 -45zM823 317q0 -26 -18.5 -44.5t-44.5 -18.5t-45 18.5t-19 44.5t19 45t45 19t44.5 -19t18.5 -45zM823 444 q0 -26 -18.5 -44.5t-44.5 -18.5t-45 18.5t-19 44.5t19 45t45 19t44.5 -19t18.5 -45zM823 571q0 -26 -18.5 -44.5t-44.5 -18.5t-45 18.5t-19 44.5t19 45t45 19t44.5 -19t18.5 -45zM823 1079q0 -26 -18.5 -44.5t-44.5 -18.5t-45 18.5t-19 44.5t19 45t45 19t44.5 -19t18.5 -45z M823 190q0 -26 -18.5 -44.5t-44.5 -18.5t-45 18.5t-19 44.5t19 45t45 19t44.5 -19t18.5 -45zM506 -63q0 -26 -19 -45t-45 -19t-44.5 19t-18.5 45t18.5 44.5t44.5 18.5t45 -18.5t19 -44.5zM506 190q0 -26 -19 -44.5t-45 -18.5t-44.5 18.5t-18.5 44.5t18.5 45t44.5 19t45 -19 t19 -45zM506 317q0 -26 -19 -44.5t-45 -18.5t-44.5 18.5t-18.5 44.5t18.5 45t44.5 19t45 -19t19 -45zM506 444q0 -26 -19 -44.5t-45 -18.5t-44.5 18.5t-18.5 44.5t18.5 45t44.5 19t45 -19t19 -45zM506 571q0 -26 -19 -44.5t-45 -18.5t-44.5 18.5t-18.5 44.5t18.5 45t44.5 19 t45 -19t19 -45zM506 825q0 -26 -19 -44.5t-45 -18.5t-44.5 18.5t-18.5 44.5t18.5 45t44.5 19t45 -19t19 -45zM506 952q0 -26 -19 -44.5t-45 -18.5t-44.5 18.5t-18.5 44.5t18.5 45t44.5 19t45 -19t19 -45zM506 1079q0 -26 -19 -44.5t-45 -18.5t-44.5 18.5t-18.5 44.5t18.5 45 t44.5 19t45 -19t19 -45zM506 1333q0 -26 -19 -44.5t-45 -18.5t-44.5 18.5t-18.5 44.5t18.5 45t44.5 19t45 -19t19 -45z" />
<glyph unicode="%" horiz-adv-x="925" d="M209 63q0 -26 -19 -44.5t-45 -18.5t-44.5 18.5t-18.5 44.5t18.5 45t44.5 19t45 -19t19 -45zM209 1079q0 -26 -19 -44.5t-45 -18.5t-44.5 18.5t-18.5 44.5t18.5 45t44.5 19t45 -19t19 -45zM209 1206q0 -26 -19 -44.5t-45 -18.5t-44.5 18.5t-18.5 44.5t18.5 45t44.5 19 t45 -19t19 -45zM336 317q0 -26 -19 -44.5t-45 -18.5t-44.5 18.5t-18.5 44.5t18.5 45t44.5 19t45 -19t19 -45zM336 1206q0 -26 -19 -44.5t-45 -18.5t-44.5 18.5t-18.5 44.5t18.5 45t44.5 19t45 -19t19 -45zM336 190q0 -26 -19 -44.5t-45 -18.5t-44.5 18.5t-18.5 44.5t18.5 45 t44.5 19t45 -19t19 -45zM463 444q0 -26 -19 -44.5t-45 -18.5t-44.5 18.5t-18.5 44.5t18.5 45t44.5 19t45 -19t19 -45zM463 571q0 -26 -19 -44.5t-45 -18.5t-44.5 18.5t-18.5 44.5t18.5 45t44.5 19t45 -19t19 -45zM590 698q0 -26 -19 -44.5t-45 -18.5t-44.5 18.5t-18.5 44.5 t18.5 45t44.5 19t45 -19t19 -45zM590 825q0 -26 -19 -44.5t-45 -18.5t-44.5 18.5t-18.5 44.5t18.5 45t44.5 19t45 -19t19 -45zM717 63q0 -26 -19 -44.5t-45 -18.5t-44.5 18.5t-18.5 44.5t18.5 45t44.5 19t45 -19t19 -45zM717 952q0 -26 -19 -44.5t-45 -18.5t-44.5 18.5 t-18.5 44.5t18.5 45t44.5 19t45 -19t19 -45zM717 1079q0 -26 -19 -44.5t-45 -18.5t-44.5 18.5t-18.5 44.5t18.5 45t44.5 19t45 -19t19 -45zM844 63q0 -26 -19 -44.5t-45 -18.5t-44.5 18.5t-18.5 44.5t18.5 45t44.5 19t45 -19t19 -45zM844 1206q0 -26 -19 -44.5t-45 -18.5 t-44.5 18.5t-18.5 44.5t18.5 45t44.5 19t45 -19t19 -45zM844 190q0 -26 -19 -44.5t-45 -18.5t-44.5 18.5t-18.5 44.5t18.5 45t44.5 19t45 -19t19 -45z" />
<glyph unicode="&#x26;" horiz-adv-x="1097" d="M209 317q0 -26 -19 -44.5t-45 -18.5t-44.5 18.5t-18.5 44.5t18.5 45t44.5 19t45 -19t19 -45zM209 444q0 -26 -19 -44.5t-45 -18.5t-44.5 18.5t-18.5 44.5t18.5 45t44.5 19t45 -19t19 -45zM209 952q0 -26 -19 -44.5t-45 -18.5t-44.5 18.5t-18.5 44.5t18.5 45t44.5 19 t45 -19t19 -45zM209 1079q0 -26 -19 -44.5t-45 -18.5t-44.5 18.5t-18.5 44.5t18.5 45t44.5 19t45 -19t19 -45zM209 190q0 -26 -19 -44.5t-45 -18.5t-44.5 18.5t-18.5 44.5t18.5 45t44.5 19t45 -19t19 -45zM336 63q0 -26 -19 -44.5t-45 -18.5t-44.5 18.5t-18.5 44.5t18.5 45 t44.5 19t45 -19t19 -45zM336 571q0 -26 -19 -44.5t-45 -18.5t-44.5 18.5t-18.5 44.5t18.5 45t44.5 19t45 -19t19 -45zM336 825q0 -26 -19 -44.5t-45 -18.5t-44.5 18.5t-18.5 44.5t18.5 45t44.5 19t45 -19t19 -45zM336 1206q0 -26 -19 -44.5t-45 -18.5t-44.5 18.5t-18.5 44.5 t18.5 45t44.5 19t45 -19t19 -45zM463 63q0 -26 -19 -44.5t-45 -18.5t-44.5 18.5t-18.5 44.5t18.5 45t44.5 19t45 -19t19 -45zM463 698q0 -26 -19 -44.5t-45 -18.5t-44.5 18.5t-18.5 44.5t18.5 45t44.5 19t45 -19t19 -45zM463 1206q0 -26 -19 -44.5t-45 -18.5t-44.5 18.5 t-18.5 44.5t18.5 45t44.5 19t45 -19t19 -45zM590 63q0 -26 -19 -44.5t-45 -18.5t-44.5 18.5t-18.5 44.5t18.5 45t44.5 19t45 -19t19 -45zM590 571q0 -26 -19 -44.5t-45 -18.5t-44.5 18.5t-18.5 44.5t18.5 45t44.5 19t45 -19t19 -45zM590 1206q0 -26 -19 -44.5t-45 -18.5 t-44.5 18.5t-18.5 44.5t18.5 45t44.5 19t45 -19t19 -45zM717 444q0 -26 -19 -44.5t-45 -18.5t-44.5 18.5t-18.5 44.5t18.5 45t44.5 19t45 -19t19 -45zM717 1079q0 -26 -19 -44.5t-45 -18.5t-44.5 18.5t-18.5 44.5t18.5 45t44.5 19t45 -19t19 -45zM717 190q0 -26 -19 -44.5 t-45 -18.5t-44.5 18.5t-18.5 44.5t18.5 45t44.5 19t45 -19t19 -45zM844 317q0 -26 -19 -44.5t-45 -18.5t-44.5 18.5t-18.5 44.5t18.5 45t44.5 19t45 -19t19 -45zM971 444q0 -26 -19 -44.5t-45 -18.5t-44.5 18.5t-18.5 44.5t18.5 45t44.5 19t45 -19t19 -45zM971 190 q0 -26 -19 -44.5t-45 -18.5t-44.5 18.5t-18.5 44.5t18.5 45t44.5 19t45 -19t19 -45zM1098 63q0 -26 -19 -44.5t-45 -18.5t-44.5 18.5t-18.5 44.5t18.5 45t44.5 19t45 -19t19 -45z" />
<glyph unicode="'" horiz-adv-x="335" d="M207 895q0 -17 -11.5 -28t-27.5 -11t-27.5 11t-11.5 28q0 15 12 26t27 11t27 -11t12 -26zM231 1016q0 -26 -18.5 -45t-44.5 -19t-45 19t-19 45t19 44.5t45 18.5t44.5 -18.5t18.5 -44.5zM254 1186q0 -35 -25.5 -60.5t-60.5 -25.5t-60.5 25.5t-25.5 60.5q0 34 25.5 59 t60.5 25t60.5 -25t25.5 -59z" />
<glyph unicode="(" horiz-adv-x="417" d="M209 63q0 -26 -19 -44.5t-45 -18.5t-44.5 18.5t-18.5 44.5t18.5 45t44.5 19t45 -19t19 -45zM209 317q0 -26 -19 -44.5t-45 -18.5t-44.5 18.5t-18.5 44.5t18.5 45t44.5 19t45 -19t19 -45zM209 444q0 -26 -19 -44.5t-45 -18.5t-44.5 18.5t-18.5 44.5t18.5 45t44.5 19 t45 -19t19 -45zM209 571q0 -26 -19 -44.5t-45 -18.5t-44.5 18.5t-18.5 44.5t18.5 45t44.5 19t45 -19t19 -45zM209 698q0 -26 -19 -44.5t-45 -18.5t-44.5 18.5t-18.5 44.5t18.5 45t44.5 19t45 -19t19 -45zM209 825q0 -26 -19 -44.5t-45 -18.5t-44.5 18.5t-18.5 44.5t18.5 45 t44.5 19t45 -19t19 -45zM209 952q0 -26 -19 -44.5t-45 -18.5t-44.5 18.5t-18.5 44.5t18.5 45t44.5 19t45 -19t19 -45zM209 1079q0 -26 -19 -44.5t-45 -18.5t-44.5 18.5t-18.5 44.5t18.5 45t44.5 19t45 -19t19 -45zM209 1206q0 -26 -19 -44.5t-45 -18.5t-44.5 18.5 t-18.5 44.5t18.5 45t44.5 19t45 -19t19 -45zM209 190q0 -26 -19 -44.5t-45 -18.5t-44.5 18.5t-18.5 44.5t18.5 45t44.5 19t45 -19t19 -45zM336 1333q0 -26 -19 -44.5t-45 -18.5t-44.5 18.5t-18.5 44.5t18.5 45t44.5 19t45 -19t19 -45zM336 -63q0 -26 -19 -45t-45 -19 t-44.5 19t-18.5 45t18.5 44.5t44.5 18.5t45 -18.5t19 -44.5z" />
<glyph unicode=")" horiz-adv-x="417" d="M209 63q0 26 18.5 45t44.5 19t45 -19t19 -45t-19 -44.5t-45 -18.5t-44.5 18.5t-18.5 44.5zM209 317q0 26 18.5 45t44.5 19t45 -19t19 -45t-19 -44.5t-45 -18.5t-44.5 18.5t-18.5 44.5zM209 444q0 26 18.5 45t44.5 19t45 -19t19 -45t-19 -44.5t-45 -18.5t-44.5 18.5 t-18.5 44.5zM209 571q0 26 18.5 45t44.5 19t45 -19t19 -45t-19 -44.5t-45 -18.5t-44.5 18.5t-18.5 44.5zM209 698q0 26 18.5 45t44.5 19t45 -19t19 -45t-19 -44.5t-45 -18.5t-44.5 18.5t-18.5 44.5zM209 825q0 26 18.5 45t44.5 19t45 -19t19 -45t-19 -44.5t-45 -18.5 t-44.5 18.5t-18.5 44.5zM209 952q0 26 18.5 45t44.5 19t45 -19t19 -45t-19 -44.5t-45 -18.5t-44.5 18.5t-18.5 44.5zM209 1079q0 26 18.5 45t44.5 19t45 -19t19 -45t-19 -44.5t-45 -18.5t-44.5 18.5t-18.5 44.5zM209 1206q0 26 18.5 45t44.5 19t45 -19t19 -45t-19 -44.5 t-45 -18.5t-44.5 18.5t-18.5 44.5zM209 190q0 26 18.5 45t44.5 19t45 -19t19 -45t-19 -44.5t-45 -18.5t-44.5 18.5t-18.5 44.5zM82 1333q0 26 18.5 45t44.5 19t45 -19t19 -45t-19 -44.5t-45 -18.5t-44.5 18.5t-18.5 44.5zM82 -63q0 26 18.5 44.5t44.5 18.5t45 -18.5 t19 -44.5t-19 -45t-45 -19t-44.5 19t-18.5 45z" />
<glyph unicode="*" horiz-adv-x="671" d="M209 825q0 -26 -19 -44.5t-45 -18.5t-44.5 18.5t-18.5 44.5t18.5 45t44.5 19t45 -19t19 -45zM209 1206q0 -26 -19 -44.5t-45 -18.5t-44.5 18.5t-18.5 44.5t18.5 45t44.5 19t45 -19t19 -45zM336 952q0 -26 -19 -44.5t-45 -18.5t-44.5 18.5t-18.5 44.5t18.5 45t44.5 19 t45 -19t19 -45zM336 1079q0 -26 -19 -44.5t-45 -18.5t-44.5 18.5t-18.5 44.5t18.5 45t44.5 19t45 -19t19 -45zM463 952q0 -26 -19 -44.5t-45 -18.5t-44.5 18.5t-18.5 44.5t18.5 45t44.5 19t45 -19t19 -45zM463 1079q0 -26 -19 -44.5t-45 -18.5t-44.5 18.5t-18.5 44.5 t18.5 45t44.5 19t45 -19t19 -45zM590 825q0 -26 -19 -44.5t-45 -18.5t-44.5 18.5t-18.5 44.5t18.5 45t44.5 19t45 -19t19 -45zM590 1206q0 -26 -19 -44.5t-45 -18.5t-44.5 18.5t-18.5 44.5t18.5 45t44.5 19t45 -19t19 -45z" />
<glyph unicode="+" horiz-adv-x="798" d="M336 571q0 -26 -19 -44.5t-45 -18.5t-44.5 18.5t-18.5 44.5t18.5 45t44.5 19t45 -19t19 -45zM463 444q0 -26 -19 -44.5t-45 -18.5t-44.5 18.5t-18.5 44.5t18.5 45t44.5 19t45 -19t19 -45zM463 571q0 -26 -19 -44.5t-45 -18.5t-44.5 18.5t-18.5 44.5t18.5 45t44.5 19 t45 -19t19 -45zM463 698q0 -26 -19 -44.5t-45 -18.5t-44.5 18.5t-18.5 44.5t18.5 45t44.5 19t45 -19t19 -45zM463 825q0 -26 -19 -44.5t-45 -18.5t-44.5 18.5t-18.5 44.5t18.5 45t44.5 19t45 -19t19 -45zM590 571q0 -26 -19 -44.5t-45 -18.5t-44.5 18.5t-18.5 44.5t18.5 45 t44.5 19t45 -19t19 -45zM717 571q0 -26 -19 -44.5t-45 -18.5t-44.5 18.5t-18.5 44.5t18.5 45t44.5 19t45 -19t19 -45zM209 571q0 -26 -19 -44.5t-45 -18.5t-44.5 18.5t-18.5 44.5t18.5 45t44.5 19t45 -19t19 -45zM463 317q0 -26 -19 -44.5t-45 -18.5t-44.5 18.5t-18.5 44.5 t18.5 45t44.5 19t45 -19t19 -45z" />
<glyph unicode="," horiz-adv-x="358" d="M190 -72q0 -26 -18.5 -44.5t-44.5 -18.5t-45 18.5t-19 44.5t19 45t45 19t44.5 -19t18.5 -45zM276 86q0 -35 -25.5 -60.5t-60.5 -25.5t-60.5 25.5t-25.5 60.5q0 34 25.5 59t60.5 25t60.5 -25t25.5 -59zM119 -182q0 -17 -11.5 -28t-27.5 -11t-27.5 11t-11.5 28q0 15 12 26 t27 11t27 -11t12 -26z" />
<glyph unicode="-" horiz-adv-x="671" d="M336 571q0 -26 -19 -44.5t-45 -18.5t-44.5 18.5t-18.5 44.5t18.5 45t44.5 19t45 -19t19 -45zM463 571q0 -26 -19 -44.5t-45 -18.5t-44.5 18.5t-18.5 44.5t18.5 45t44.5 19t45 -19t19 -45zM590 571q0 -26 -19 -44.5t-45 -18.5t-44.5 18.5t-18.5 44.5t18.5 45t44.5 19 t45 -19t19 -45zM209 571q0 -26 -19 -44.5t-45 -18.5t-44.5 18.5t-18.5 44.5t18.5 45t44.5 19t45 -19t19 -45z" />
<glyph unicode="." horiz-adv-x="335" d="M254 86q0 -35 -25.5 -60.5t-60.5 -25.5t-60.5 25.5t-25.5 60.5q0 34 25.5 59t60.5 25t60.5 -25t25.5 -59z" />
<glyph unicode="/" horiz-adv-x="507" d="M127 63q0 -26 -19 -44.5t-45 -18.5t-44.5 18.5t-18.5 44.5t18.5 45t44.5 19t45 -19t19 -45zM127 190q0 -26 -19 -44.5t-45 -18.5t-44.5 18.5t-18.5 44.5t18.5 45t44.5 19t45 -19t19 -45zM254 317q0 -26 -19 -44.5t-45 -18.5t-44.5 18.5t-18.5 44.5t18.5 45t44.5 19 t45 -19t19 -45zM254 444q0 -26 -19 -44.5t-45 -18.5t-44.5 18.5t-18.5 44.5t18.5 45t44.5 19t45 -19t19 -45zM254 571q0 -26 -19 -44.5t-45 -18.5t-44.5 18.5t-18.5 44.5t18.5 45t44.5 19t45 -19t19 -45zM381 698q0 -26 -19 -44.5t-45 -18.5t-44.5 18.5t-18.5 44.5t18.5 45 t44.5 19t45 -19t19 -45zM381 825q0 -26 -19 -44.5t-45 -18.5t-44.5 18.5t-18.5 44.5t18.5 45t44.5 19t45 -19t19 -45zM381 952q0 -26 -19 -44.5t-45 -18.5t-44.5 18.5t-18.5 44.5t18.5 45t44.5 19t45 -19t19 -45zM508 1079q0 -26 -19 -44.5t-45 -18.5t-44.5 18.5t-18.5 44.5 t18.5 45t44.5 19t45 -19t19 -45zM508 1206q0 -26 -19 -44.5t-45 -18.5t-44.5 18.5t-18.5 44.5t18.5 45t44.5 19t45 -19t19 -45z" />
<glyph unicode="0" horiz-adv-x="1007" d="M250 317q0 -26 -19 -44.5t-45 -18.5t-44.5 18.5t-18.5 44.5t18.5 45t44.5 19t45 -19t19 -45zM250 444q0 -26 -19 -44.5t-45 -18.5t-44.5 18.5t-18.5 44.5t18.5 45t44.5 19t45 -19t19 -45zM250 571q0 -26 -19 -44.5t-45 -18.5t-44.5 18.5t-18.5 44.5t18.5 45t44.5 19 t45 -19t19 -45zM250 698q0 -26 -19 -44.5t-45 -18.5t-44.5 18.5t-18.5 44.5t18.5 45t44.5 19t45 -19t19 -45zM250 825q0 -26 -19 -44.5t-45 -18.5t-44.5 18.5t-18.5 44.5t18.5 45t44.5 19t45 -19t19 -45zM250 952q0 -26 -19 -44.5t-45 -18.5t-44.5 18.5t-18.5 44.5t18.5 45 t44.5 19t45 -19t19 -45zM250 1079q0 -26 -19 -44.5t-45 -18.5t-44.5 18.5t-18.5 44.5t18.5 45t44.5 19t45 -19t19 -45zM250 190q0 -26 -19 -44.5t-45 -18.5t-44.5 18.5t-18.5 44.5t18.5 45t44.5 19t45 -19t19 -45zM377 63q0 -26 -19 -44.5t-45 -18.5t-44.5 18.5t-18.5 44.5 t18.5 45t44.5 19t45 -19t19 -45zM377 1206q0 -26 -19 -44.5t-45 -18.5t-44.5 18.5t-18.5 44.5t18.5 45t44.5 19t45 -19t19 -45zM504 63q0 -26 -19 -44.5t-45 -18.5t-44.5 18.5t-18.5 44.5t18.5 45t44.5 19t45 -19t19 -45zM504 1206q0 -26 -19 -44.5t-45 -18.5t-44.5 18.5 t-18.5 44.5t18.5 45t44.5 19t45 -19t19 -45zM631 63q0 -26 -19 -44.5t-45 -18.5t-44.5 18.5t-18.5 44.5t18.5 45t44.5 19t45 -19t19 -45zM631 1206q0 -26 -19 -44.5t-45 -18.5t-44.5 18.5t-18.5 44.5t18.5 45t44.5 19t45 -19t19 -45zM758 63q0 -26 -19 -44.5t-45 -18.5 t-44.5 18.5t-18.5 44.5t18.5 45t44.5 19t45 -19t19 -45zM758 1206q0 -26 -19 -44.5t-45 -18.5t-44.5 18.5t-18.5 44.5t18.5 45t44.5 19t45 -19t19 -45zM885 317q0 -26 -19 -44.5t-45 -18.5t-44.5 18.5t-18.5 44.5t18.5 45t44.5 19t45 -19t19 -45zM885 444q0 -26 -19 -44.5 t-45 -18.5t-44.5 18.5t-18.5 44.5t18.5 45t44.5 19t45 -19t19 -45zM885 571q0 -26 -19 -44.5t-45 -18.5t-44.5 18.5t-18.5 44.5t18.5 45t44.5 19t45 -19t19 -45zM885 698q0 -26 -19 -44.5t-45 -18.5t-44.5 18.5t-18.5 44.5t18.5 45t44.5 19t45 -19t19 -45zM885 825 q0 -26 -19 -44.5t-45 -18.5t-44.5 18.5t-18.5 44.5t18.5 45t44.5 19t45 -19t19 -45zM885 952q0 -26 -19 -44.5t-45 -18.5t-44.5 18.5t-18.5 44.5t18.5 45t44.5 19t45 -19t19 -45zM885 1079q0 -26 -19 -44.5t-45 -18.5t-44.5 18.5t-18.5 44.5t18.5 45t44.5 19t45 -19t19 -45z M885 190q0 -26 -19 -44.5t-45 -18.5t-44.5 18.5t-18.5 44.5t18.5 45t44.5 19t45 -19t19 -45z" />
<glyph unicode="1" horiz-adv-x="503" d="M381 63q0 -26 -19 -44.5t-45 -18.5t-44.5 18.5t-18.5 44.5t18.5 45t44.5 19t45 -19t19 -45zM381 317q0 -26 -19 -44.5t-45 -18.5t-44.5 18.5t-18.5 44.5t18.5 45t44.5 19t45 -19t19 -45zM381 444q0 -26 -19 -44.5t-45 -18.5t-44.5 18.5t-18.5 44.5t18.5 45t44.5 19 t45 -19t19 -45zM381 571q0 -26 -19 -44.5t-45 -18.5t-44.5 18.5t-18.5 44.5t18.5 45t44.5 19t45 -19t19 -45zM381 698q0 -26 -19 -44.5t-45 -18.5t-44.5 18.5t-18.5 44.5t18.5 45t44.5 19t45 -19t19 -45zM381 825q0 -26 -19 -44.5t-45 -18.5t-44.5 18.5t-18.5 44.5t18.5 45 t44.5 19t45 -19t19 -45zM381 952q0 -26 -19 -44.5t-45 -18.5t-44.5 18.5t-18.5 44.5t18.5 45t44.5 19t45 -19t19 -45zM381 1079q0 -26 -19 -44.5t-45 -18.5t-44.5 18.5t-18.5 44.5t18.5 45t44.5 19t45 -19t19 -45zM381 1206q0 -26 -19 -44.5t-45 -18.5t-44.5 18.5 t-18.5 44.5t18.5 45t44.5 19t45 -19t19 -45zM381 190q0 -26 -19 -44.5t-45 -18.5t-44.5 18.5t-18.5 44.5t18.5 45t44.5 19t45 -19t19 -45zM254 1079q0 -26 -19 -44.5t-45 -18.5t-44.5 18.5t-18.5 44.5t18.5 45t44.5 19t45 -19t19 -45zM127 952q0 -26 -19 -44.5t-45 -18.5 t-44.5 18.5t-18.5 44.5t18.5 45t44.5 19t45 -19t19 -45z" />
<glyph unicode="2" horiz-adv-x="884" d="M188 63q0 -26 -18.5 -44.5t-44.5 -18.5t-45 18.5t-19 44.5t19 45t45 19t44.5 -19t18.5 -45zM188 952q0 -26 -18.5 -44.5t-44.5 -18.5t-45 18.5t-19 44.5t19 45t45 19t44.5 -19t18.5 -45zM188 1079q0 -26 -18.5 -44.5t-44.5 -18.5t-45 18.5t-19 44.5t19 45t45 19t44.5 -19 t18.5 -45zM188 190q0 -26 -18.5 -44.5t-44.5 -18.5t-45 18.5t-19 44.5t19 45t45 19t44.5 -19t18.5 -45zM315 63q0 -26 -18.5 -44.5t-44.5 -18.5t-45 18.5t-19 44.5t19 45t45 19t44.5 -19t18.5 -45zM315 317q0 -26 -18.5 -44.5t-44.5 -18.5t-45 18.5t-19 44.5t19 45t45 19 t44.5 -19t18.5 -45zM315 1206q0 -26 -18.5 -44.5t-44.5 -18.5t-45 18.5t-19 44.5t19 45t45 19t44.5 -19t18.5 -45zM442 63q0 -26 -18.5 -44.5t-44.5 -18.5t-45 18.5t-19 44.5t19 45t45 19t44.5 -19t18.5 -45zM442 444q0 -26 -18.5 -44.5t-44.5 -18.5t-45 18.5t-19 44.5 t19 45t45 19t44.5 -19t18.5 -45zM442 1206q0 -26 -18.5 -44.5t-44.5 -18.5t-45 18.5t-19 44.5t19 45t45 19t44.5 -19t18.5 -45zM569 63q0 -26 -18.5 -44.5t-44.5 -18.5t-45 18.5t-19 44.5t19 45t45 19t44.5 -19t18.5 -45zM569 571q0 -26 -18.5 -44.5t-44.5 -18.5t-45 18.5 t-19 44.5t19 45t45 19t44.5 -19t18.5 -45zM569 1206q0 -26 -18.5 -44.5t-44.5 -18.5t-45 18.5t-19 44.5t19 45t45 19t44.5 -19t18.5 -45zM696 63q0 -26 -18.5 -44.5t-44.5 -18.5t-45 18.5t-19 44.5t19 45t45 19t44.5 -19t18.5 -45zM696 698q0 -26 -18.5 -44.5t-44.5 -18.5 t-45 18.5t-19 44.5t19 45t45 19t44.5 -19t18.5 -45zM696 1206q0 -26 -18.5 -44.5t-44.5 -18.5t-45 18.5t-19 44.5t19 45t45 19t44.5 -19t18.5 -45zM823 63q0 -26 -18.5 -44.5t-44.5 -18.5t-45 18.5t-19 44.5t19 45t45 19t44.5 -19t18.5 -45zM823 825q0 -26 -18.5 -44.5 t-44.5 -18.5t-45 18.5t-19 44.5t19 45t45 19t44.5 -19t18.5 -45zM823 952q0 -26 -18.5 -44.5t-44.5 -18.5t-45 18.5t-19 44.5t19 45t45 19t44.5 -19t18.5 -45zM823 1079q0 -26 -18.5 -44.5t-44.5 -18.5t-45 18.5t-19 44.5t19 45t45 19t44.5 -19t18.5 -45z" />
<glyph unicode="3" horiz-adv-x="925" d="M168 1079q0 -26 -19 -44.5t-45 -18.5t-44.5 18.5t-18.5 44.5t18.5 45t44.5 19t45 -19t19 -45zM168 1206q0 -26 -19 -44.5t-45 -18.5t-44.5 18.5t-18.5 44.5t18.5 45t44.5 19t45 -19t19 -45zM168 190q0 -26 -19 -44.5t-45 -18.5t-44.5 18.5t-18.5 44.5t18.5 45t44.5 19 t45 -19t19 -45zM295 63q0 -26 -19 -44.5t-45 -18.5t-44.5 18.5t-18.5 44.5t18.5 45t44.5 19t45 -19t19 -45zM295 1206q0 -26 -19 -44.5t-45 -18.5t-44.5 18.5t-18.5 44.5t18.5 45t44.5 19t45 -19t19 -45zM422 63q0 -26 -19 -44.5t-45 -18.5t-44.5 18.5t-18.5 44.5t18.5 45 t44.5 19t45 -19t19 -45zM422 1206q0 -26 -19 -44.5t-45 -18.5t-44.5 18.5t-18.5 44.5t18.5 45t44.5 19t45 -19t19 -45zM549 63q0 -26 -19 -44.5t-45 -18.5t-44.5 18.5t-18.5 44.5t18.5 45t44.5 19t45 -19t19 -45zM549 698q0 -26 -19 -44.5t-45 -18.5t-44.5 18.5t-18.5 44.5 t18.5 45t44.5 19t45 -19t19 -45zM549 1206q0 -26 -19 -44.5t-45 -18.5t-44.5 18.5t-18.5 44.5t18.5 45t44.5 19t45 -19t19 -45zM676 63q0 -26 -19 -44.5t-45 -18.5t-44.5 18.5t-18.5 44.5t18.5 45t44.5 19t45 -19t19 -45zM676 825q0 -26 -19 -44.5t-45 -18.5t-44.5 18.5 t-18.5 44.5t18.5 45t44.5 19t45 -19t19 -45zM676 1206q0 -26 -19 -44.5t-45 -18.5t-44.5 18.5t-18.5 44.5t18.5 45t44.5 19t45 -19t19 -45zM803 317q0 -26 -19 -44.5t-45 -18.5t-44.5 18.5t-18.5 44.5t18.5 45t44.5 19t45 -19t19 -45zM803 444q0 -26 -19 -44.5t-45 -18.5 t-44.5 18.5t-18.5 44.5t18.5 45t44.5 19t45 -19t19 -45zM803 571q0 -26 -19 -44.5t-45 -18.5t-44.5 18.5t-18.5 44.5t18.5 45t44.5 19t45 -19t19 -45zM803 952q0 -26 -19 -44.5t-45 -18.5t-44.5 18.5t-18.5 44.5t18.5 45t44.5 19t45 -19t19 -45zM803 1079q0 -26 -19 -44.5 t-45 -18.5t-44.5 18.5t-18.5 44.5t18.5 45t44.5 19t45 -19t19 -45zM803 1206q0 -26 -19 -44.5t-45 -18.5t-44.5 18.5t-18.5 44.5t18.5 45t44.5 19t45 -19t19 -45zM803 190q0 -26 -19 -44.5t-45 -18.5t-44.5 18.5t-18.5 44.5t18.5 45t44.5 19t45 -19t19 -45z" />
<glyph unicode="4" horiz-adv-x="843" d="M168 317q0 -26 -19 -44.5t-45 -18.5t-44.5 18.5t-18.5 44.5t18.5 45t44.5 19t45 -19t19 -45zM168 444q0 -26 -19 -44.5t-45 -18.5t-44.5 18.5t-18.5 44.5t18.5 45t44.5 19t45 -19t19 -45zM295 317q0 -26 -19 -44.5t-45 -18.5t-44.5 18.5t-18.5 44.5t18.5 45t44.5 19 t45 -19t19 -45zM295 571q0 -26 -19 -44.5t-45 -18.5t-44.5 18.5t-18.5 44.5t18.5 45t44.5 19t45 -19t19 -45zM295 698q0 -26 -19 -44.5t-45 -18.5t-44.5 18.5t-18.5 44.5t18.5 45t44.5 19t45 -19t19 -45zM422 317q0 -26 -19 -44.5t-45 -18.5t-44.5 18.5t-18.5 44.5t18.5 45 t44.5 19t45 -19t19 -45zM422 825q0 -26 -19 -44.5t-45 -18.5t-44.5 18.5t-18.5 44.5t18.5 45t44.5 19t45 -19t19 -45zM422 952q0 -26 -19 -44.5t-45 -18.5t-44.5 18.5t-18.5 44.5t18.5 45t44.5 19t45 -19t19 -45zM549 317q0 -26 -19 -44.5t-45 -18.5t-44.5 18.5t-18.5 44.5 t18.5 45t44.5 19t45 -19t19 -45zM549 1079q0 -26 -19 -44.5t-45 -18.5t-44.5 18.5t-18.5 44.5t18.5 45t44.5 19t45 -19t19 -45zM676 63q0 -26 -19 -44.5t-45 -18.5t-44.5 18.5t-18.5 44.5t18.5 45t44.5 19t45 -19t19 -45zM676 317q0 -26 -19 -44.5t-45 -18.5t-44.5 18.5 t-18.5 44.5t18.5 45t44.5 19t45 -19t19 -45zM676 444q0 -26 -19 -44.5t-45 -18.5t-44.5 18.5t-18.5 44.5t18.5 45t44.5 19t45 -19t19 -45zM676 571q0 -26 -19 -44.5t-45 -18.5t-44.5 18.5t-18.5 44.5t18.5 45t44.5 19t45 -19t19 -45zM676 698q0 -26 -19 -44.5t-45 -18.5 t-44.5 18.5t-18.5 44.5t18.5 45t44.5 19t45 -19t19 -45zM676 825q0 -26 -19 -44.5t-45 -18.5t-44.5 18.5t-18.5 44.5t18.5 45t44.5 19t45 -19t19 -45zM676 952q0 -26 -19 -44.5t-45 -18.5t-44.5 18.5t-18.5 44.5t18.5 45t44.5 19t45 -19t19 -45zM676 1079q0 -26 -19 -44.5 t-45 -18.5t-44.5 18.5t-18.5 44.5t18.5 45t44.5 19t45 -19t19 -45zM676 1206q0 -26 -19 -44.5t-45 -18.5t-44.5 18.5t-18.5 44.5t18.5 45t44.5 19t45 -19t19 -45zM676 190q0 -26 -19 -44.5t-45 -18.5t-44.5 18.5t-18.5 44.5t18.5 45t44.5 19t45 -19t19 -45zM803 317 q0 -26 -19 -44.5t-45 -18.5t-44.5 18.5t-18.5 44.5t18.5 45t44.5 19t45 -19t19 -45z" />
<glyph unicode="5" horiz-adv-x="946" d="M209 698q0 -26 -19 -44.5t-45 -18.5t-44.5 18.5t-18.5 44.5t18.5 45t44.5 19t45 -19t19 -45zM209 825q0 -26 -19 -44.5t-45 -18.5t-44.5 18.5t-18.5 44.5t18.5 45t44.5 19t45 -19t19 -45zM209 952q0 -26 -19 -44.5t-45 -18.5t-44.5 18.5t-18.5 44.5t18.5 45t44.5 19 t45 -19t19 -45zM209 1079q0 -26 -19 -44.5t-45 -18.5t-44.5 18.5t-18.5 44.5t18.5 45t44.5 19t45 -19t19 -45zM209 1206q0 -26 -19 -44.5t-45 -18.5t-44.5 18.5t-18.5 44.5t18.5 45t44.5 19t45 -19t19 -45zM209 190q0 -26 -19 -44.5t-45 -18.5t-44.5 18.5t-18.5 44.5 t18.5 45t44.5 19t45 -19t19 -45zM336 63q0 -26 -19 -44.5t-45 -18.5t-44.5 18.5t-18.5 44.5t18.5 45t44.5 19t45 -19t19 -45zM336 698q0 -26 -19 -44.5t-45 -18.5t-44.5 18.5t-18.5 44.5t18.5 45t44.5 19t45 -19t19 -45zM336 1206q0 -26 -19 -44.5t-45 -18.5t-44.5 18.5 t-18.5 44.5t18.5 45t44.5 19t45 -19t19 -45zM463 63q0 -26 -19 -44.5t-45 -18.5t-44.5 18.5t-18.5 44.5t18.5 45t44.5 19t45 -19t19 -45zM463 825q0 -26 -19 -44.5t-45 -18.5t-44.5 18.5t-18.5 44.5t18.5 45t44.5 19t45 -19t19 -45zM463 1206q0 -26 -19 -44.5t-45 -18.5 t-44.5 18.5t-18.5 44.5t18.5 45t44.5 19t45 -19t19 -45zM590 63q0 -26 -19 -44.5t-45 -18.5t-44.5 18.5t-18.5 44.5t18.5 45t44.5 19t45 -19t19 -45zM590 825q0 -26 -19 -44.5t-45 -18.5t-44.5 18.5t-18.5 44.5t18.5 45t44.5 19t45 -19t19 -45zM590 1206q0 -26 -19 -44.5 t-45 -18.5t-44.5 18.5t-18.5 44.5t18.5 45t44.5 19t45 -19t19 -45zM717 63q0 -26 -19 -44.5t-45 -18.5t-44.5 18.5t-18.5 44.5t18.5 45t44.5 19t45 -19t19 -45zM717 825q0 -26 -19 -44.5t-45 -18.5t-44.5 18.5t-18.5 44.5t18.5 45t44.5 19t45 -19t19 -45zM717 1206 q0 -26 -19 -44.5t-45 -18.5t-44.5 18.5t-18.5 44.5t18.5 45t44.5 19t45 -19t19 -45zM844 317q0 -26 -19 -44.5t-45 -18.5t-44.5 18.5t-18.5 44.5t18.5 45t44.5 19t45 -19t19 -45zM844 444q0 -26 -19 -44.5t-45 -18.5t-44.5 18.5t-18.5 44.5t18.5 45t44.5 19t45 -19t19 -45z M844 571q0 -26 -19 -44.5t-45 -18.5t-44.5 18.5t-18.5 44.5t18.5 45t44.5 19t45 -19t19 -45zM844 698q0 -26 -19 -44.5t-45 -18.5t-44.5 18.5t-18.5 44.5t18.5 45t44.5 19t45 -19t19 -45zM844 1206q0 -26 -19 -44.5t-45 -18.5t-44.5 18.5t-18.5 44.5t18.5 45t44.5 19t45 -19 t19 -45zM844 190q0 -26 -19 -44.5t-45 -18.5t-44.5 18.5t-18.5 44.5t18.5 45t44.5 19t45 -19t19 -45z" />
<glyph unicode="6" horiz-adv-x="987" d="M250 317q0 -26 -19 -44.5t-45 -18.5t-44.5 18.5t-18.5 44.5t18.5 45t44.5 19t45 -19t19 -45zM250 444q0 -26 -19 -44.5t-45 -18.5t-44.5 18.5t-18.5 44.5t18.5 45t44.5 19t45 -19t19 -45zM250 571q0 -26 -19 -44.5t-45 -18.5t-44.5 18.5t-18.5 44.5t18.5 45t44.5 19 t45 -19t19 -45zM250 698q0 -26 -19 -44.5t-45 -18.5t-44.5 18.5t-18.5 44.5t18.5 45t44.5 19t45 -19t19 -45zM250 825q0 -26 -19 -44.5t-45 -18.5t-44.5 18.5t-18.5 44.5t18.5 45t44.5 19t45 -19t19 -45zM250 952q0 -26 -19 -44.5t-45 -18.5t-44.5 18.5t-18.5 44.5t18.5 45 t44.5 19t45 -19t19 -45zM250 1079q0 -26 -19 -44.5t-45 -18.5t-44.5 18.5t-18.5 44.5t18.5 45t44.5 19t45 -19t19 -45zM250 190q0 -26 -19 -44.5t-45 -18.5t-44.5 18.5t-18.5 44.5t18.5 45t44.5 19t45 -19t19 -45zM377 63q0 -26 -19 -44.5t-45 -18.5t-44.5 18.5t-18.5 44.5 t18.5 45t44.5 19t45 -19t19 -45zM377 571q0 -26 -19 -44.5t-45 -18.5t-44.5 18.5t-18.5 44.5t18.5 45t44.5 19t45 -19t19 -45zM377 1206q0 -26 -19 -44.5t-45 -18.5t-44.5 18.5t-18.5 44.5t18.5 45t44.5 19t45 -19t19 -45zM504 63q0 -26 -19 -44.5t-45 -18.5t-44.5 18.5 t-18.5 44.5t18.5 45t44.5 19t45 -19t19 -45zM504 698q0 -26 -19 -44.5t-45 -18.5t-44.5 18.5t-18.5 44.5t18.5 45t44.5 19t45 -19t19 -45zM504 1206q0 -26 -19 -44.5t-45 -18.5t-44.5 18.5t-18.5 44.5t18.5 45t44.5 19t45 -19t19 -45zM631 63q0 -26 -19 -44.5t-45 -18.5 t-44.5 18.5t-18.5 44.5t18.5 45t44.5 19t45 -19t19 -45zM631 698q0 -26 -19 -44.5t-45 -18.5t-44.5 18.5t-18.5 44.5t18.5 45t44.5 19t45 -19t19 -45zM631 1206q0 -26 -19 -44.5t-45 -18.5t-44.5 18.5t-18.5 44.5t18.5 45t44.5 19t45 -19t19 -45zM758 63q0 -26 -19 -44.5 t-45 -18.5t-44.5 18.5t-18.5 44.5t18.5 45t44.5 19t45 -19t19 -45zM758 698q0 -26 -19 -44.5t-45 -18.5t-44.5 18.5t-18.5 44.5t18.5 45t44.5 19t45 -19t19 -45zM758 1206q0 -26 -19 -44.5t-45 -18.5t-44.5 18.5t-18.5 44.5t18.5 45t44.5 19t45 -19t19 -45zM885 317 q0 -26 -19 -44.5t-45 -18.5t-44.5 18.5t-18.5 44.5t18.5 45t44.5 19t45 -19t19 -45zM885 444q0 -26 -19 -44.5t-45 -18.5t-44.5 18.5t-18.5 44.5t18.5 45t44.5 19t45 -19t19 -45zM885 571q0 -26 -19 -44.5t-45 -18.5t-44.5 18.5t-18.5 44.5t18.5 45t44.5 19t45 -19t19 -45z M885 1079q0 -26 -19 -44.5t-45 -18.5t-44.5 18.5t-18.5 44.5t18.5 45t44.5 19t45 -19t19 -45zM885 190q0 -26 -19 -44.5t-45 -18.5t-44.5 18.5t-18.5 44.5t18.5 45t44.5 19t45 -19t19 -45z" />
<glyph unicode="7" horiz-adv-x="823" d="M147 1079q0 -26 -18.5 -44.5t-44.5 -18.5t-45 18.5t-19 44.5t19 45t45 19t44.5 -19t18.5 -45zM147 1206q0 -26 -18.5 -44.5t-44.5 -18.5t-45 18.5t-19 44.5t19 45t45 19t44.5 -19t18.5 -45zM274 1206q0 -26 -18.5 -44.5t-44.5 -18.5t-45 18.5t-19 44.5t19 45t45 19 t44.5 -19t18.5 -45zM401 63q0 -26 -18.5 -44.5t-44.5 -18.5t-45 18.5t-19 44.5t19 45t45 19t44.5 -19t18.5 -45zM401 317q0 -26 -18.5 -44.5t-44.5 -18.5t-45 18.5t-19 44.5t19 45t45 19t44.5 -19t18.5 -45zM401 1206q0 -26 -18.5 -44.5t-44.5 -18.5t-45 18.5t-19 44.5 t19 45t45 19t44.5 -19t18.5 -45zM401 190q0 -26 -18.5 -44.5t-44.5 -18.5t-45 18.5t-19 44.5t19 45t45 19t44.5 -19t18.5 -45zM528 444q0 -26 -18.5 -44.5t-44.5 -18.5t-45 18.5t-19 44.5t19 45t45 19t44.5 -19t18.5 -45zM528 571q0 -26 -18.5 -44.5t-44.5 -18.5t-45 18.5 t-19 44.5t19 45t45 19t44.5 -19t18.5 -45zM528 1206q0 -26 -18.5 -44.5t-44.5 -18.5t-45 18.5t-19 44.5t19 45t45 19t44.5 -19t18.5 -45zM655 698q0 -26 -18.5 -44.5t-44.5 -18.5t-45 18.5t-19 44.5t19 45t45 19t44.5 -19t18.5 -45zM655 825q0 -26 -18.5 -44.5t-44.5 -18.5 t-45 18.5t-19 44.5t19 45t45 19t44.5 -19t18.5 -45zM655 1206q0 -26 -18.5 -44.5t-44.5 -18.5t-45 18.5t-19 44.5t19 45t45 19t44.5 -19t18.5 -45zM782 952q0 -26 -18.5 -44.5t-44.5 -18.5t-45 18.5t-19 44.5t19 45t45 19t44.5 -19t18.5 -45zM782 1079q0 -26 -18.5 -44.5 t-44.5 -18.5t-45 18.5t-19 44.5t19 45t45 19t44.5 -19t18.5 -45zM782 1206q0 -26 -18.5 -44.5t-44.5 -18.5t-45 18.5t-19 44.5t19 45t45 19t44.5 -19t18.5 -45z" />
<glyph unicode="8" horiz-adv-x="1007" d="M250 317q0 -26 -19 -44.5t-45 -18.5t-44.5 18.5t-18.5 44.5t18.5 45t44.5 19t45 -19t19 -45zM250 444q0 -26 -19 -44.5t-45 -18.5t-44.5 18.5t-18.5 44.5t18.5 45t44.5 19t45 -19t19 -45zM250 571q0 -26 -19 -44.5t-45 -18.5t-44.5 18.5t-18.5 44.5t18.5 45t44.5 19 t45 -19t19 -45zM250 825q0 -26 -19 -44.5t-45 -18.5t-44.5 18.5t-18.5 44.5t18.5 45t44.5 19t45 -19t19 -45zM250 952q0 -26 -19 -44.5t-45 -18.5t-44.5 18.5t-18.5 44.5t18.5 45t44.5 19t45 -19t19 -45zM250 1079q0 -26 -19 -44.5t-45 -18.5t-44.5 18.5t-18.5 44.5t18.5 45 t44.5 19t45 -19t19 -45zM250 190q0 -26 -19 -44.5t-45 -18.5t-44.5 18.5t-18.5 44.5t18.5 45t44.5 19t45 -19t19 -45zM377 63q0 -26 -19 -44.5t-45 -18.5t-44.5 18.5t-18.5 44.5t18.5 45t44.5 19t45 -19t19 -45zM377 698q0 -26 -19 -44.5t-45 -18.5t-44.5 18.5t-18.5 44.5 t18.5 45t44.5 19t45 -19t19 -45zM377 1206q0 -26 -19 -44.5t-45 -18.5t-44.5 18.5t-18.5 44.5t18.5 45t44.5 19t45 -19t19 -45zM504 63q0 -26 -19 -44.5t-45 -18.5t-44.5 18.5t-18.5 44.5t18.5 45t44.5 19t45 -19t19 -45zM504 698q0 -26 -19 -44.5t-45 -18.5t-44.5 18.5 t-18.5 44.5t18.5 45t44.5 19t45 -19t19 -45zM504 1206q0 -26 -19 -44.5t-45 -18.5t-44.5 18.5t-18.5 44.5t18.5 45t44.5 19t45 -19t19 -45zM631 63q0 -26 -19 -44.5t-45 -18.5t-44.5 18.5t-18.5 44.5t18.5 45t44.5 19t45 -19t19 -45zM631 698q0 -26 -19 -44.5t-45 -18.5 t-44.5 18.5t-18.5 44.5t18.5 45t44.5 19t45 -19t19 -45zM631 1206q0 -26 -19 -44.5t-45 -18.5t-44.5 18.5t-18.5 44.5t18.5 45t44.5 19t45 -19t19 -45zM758 63q0 -26 -19 -44.5t-45 -18.5t-44.5 18.5t-18.5 44.5t18.5 45t44.5 19t45 -19t19 -45zM758 698q0 -26 -19 -44.5 t-45 -18.5t-44.5 18.5t-18.5 44.5t18.5 45t44.5 19t45 -19t19 -45zM758 1206q0 -26 -19 -44.5t-45 -18.5t-44.5 18.5t-18.5 44.5t18.5 45t44.5 19t45 -19t19 -45zM885 317q0 -26 -19 -44.5t-45 -18.5t-44.5 18.5t-18.5 44.5t18.5 45t44.5 19t45 -19t19 -45zM885 444 q0 -26 -19 -44.5t-45 -18.5t-44.5 18.5t-18.5 44.5t18.5 45t44.5 19t45 -19t19 -45zM885 571q0 -26 -19 -44.5t-45 -18.5t-44.5 18.5t-18.5 44.5t18.5 45t44.5 19t45 -19t19 -45zM885 825q0 -26 -19 -44.5t-45 -18.5t-44.5 18.5t-18.5 44.5t18.5 45t44.5 19t45 -19t19 -45z M885 952q0 -26 -19 -44.5t-45 -18.5t-44.5 18.5t-18.5 44.5t18.5 45t44.5 19t45 -19t19 -45zM885 1079q0 -26 -19 -44.5t-45 -18.5t-44.5 18.5t-18.5 44.5t18.5 45t44.5 19t45 -19t19 -45zM885 190q0 -26 -19 -44.5t-45 -18.5t-44.5 18.5t-18.5 44.5t18.5 45t44.5 19t45 -19 t19 -45z" />
<glyph unicode="9" horiz-adv-x="987" d="M737 952q0 26 19 45t45 19t44.5 -19t18.5 -45t-18.5 -44.5t-44.5 -18.5t-45 18.5t-19 44.5zM737 825q0 26 19 45t45 19t44.5 -19t18.5 -45t-18.5 -44.5t-44.5 -18.5t-45 18.5t-19 44.5zM737 698q0 26 19 45t45 19t44.5 -19t18.5 -45t-18.5 -44.5t-44.5 -18.5t-45 18.5 t-19 44.5zM737 571q0 26 19 45t45 19t44.5 -19t18.5 -45t-18.5 -44.5t-44.5 -18.5t-45 18.5t-19 44.5zM737 444q0 26 19 45t45 19t44.5 -19t18.5 -45t-18.5 -44.5t-44.5 -18.5t-45 18.5t-19 44.5zM737 317q0 26 19 45t45 19t44.5 -19t18.5 -45t-18.5 -44.5t-44.5 -18.5 t-45 18.5t-19 44.5zM737 190q0 26 19 45t45 19t44.5 -19t18.5 -45t-18.5 -44.5t-44.5 -18.5t-45 18.5t-19 44.5zM737 1079q0 26 19 45t45 19t44.5 -19t18.5 -45t-18.5 -44.5t-44.5 -18.5t-45 18.5t-19 44.5zM610 1206q0 26 19 45t45 19t44.5 -19t18.5 -45t-18.5 -44.5 t-44.5 -18.5t-45 18.5t-19 44.5zM610 698q0 26 19 45t45 19t44.5 -19t18.5 -45t-18.5 -44.5t-44.5 -18.5t-45 18.5t-19 44.5zM610 63q0 26 19 45t45 19t44.5 -19t18.5 -45t-18.5 -44.5t-44.5 -18.5t-45 18.5t-19 44.5zM483 1206q0 26 19 45t45 19t44.5 -19t18.5 -45 t-18.5 -44.5t-44.5 -18.5t-45 18.5t-19 44.5zM483 571q0 26 19 45t45 19t44.5 -19t18.5 -45t-18.5 -44.5t-44.5 -18.5t-45 18.5t-19 44.5zM483 63q0 26 19 45t45 19t44.5 -19t18.5 -45t-18.5 -44.5t-44.5 -18.5t-45 18.5t-19 44.5zM356 1206q0 26 19 45t45 19t44.5 -19 t18.5 -45t-18.5 -44.5t-44.5 -18.5t-45 18.5t-19 44.5zM356 571q0 26 19 45t45 19t44.5 -19t18.5 -45t-18.5 -44.5t-44.5 -18.5t-45 18.5t-19 44.5zM356 63q0 26 19 45t45 19t44.5 -19t18.5 -45t-18.5 -44.5t-44.5 -18.5t-45 18.5t-19 44.5zM229 1206q0 26 19 45t45 19 t44.5 -19t18.5 -45t-18.5 -44.5t-44.5 -18.5t-45 18.5t-19 44.5zM229 571q0 26 19 45t45 19t44.5 -19t18.5 -45t-18.5 -44.5t-44.5 -18.5t-45 18.5t-19 44.5zM229 63q0 26 19 45t45 19t44.5 -19t18.5 -45t-18.5 -44.5t-44.5 -18.5t-45 18.5t-19 44.5zM102 952q0 26 19 45 t45 19t44.5 -19t18.5 -45t-18.5 -44.5t-44.5 -18.5t-45 18.5t-19 44.5zM102 825q0 26 19 45t45 19t44.5 -19t18.5 -45t-18.5 -44.5t-44.5 -18.5t-45 18.5t-19 44.5zM102 698q0 26 19 45t45 19t44.5 -19t18.5 -45t-18.5 -44.5t-44.5 -18.5t-45 18.5t-19 44.5zM102 190 q0 26 19 45t45 19t44.5 -19t18.5 -45t-18.5 -44.5t-44.5 -18.5t-45 18.5t-19 44.5zM102 1079q0 26 19 45t45 19t44.5 -19t18.5 -45t-18.5 -44.5t-44.5 -18.5t-45 18.5t-19 44.5z" />
<glyph unicode=":" horiz-adv-x="335" d="M254 86q0 -35 -25.5 -60.5t-60.5 -25.5t-60.5 25.5t-25.5 60.5q0 34 25.5 59t60.5 25t60.5 -25t25.5 -59zM254 805q0 -35 -25.5 -60.5t-60.5 -25.5t-60.5 25.5t-25.5 60.5q0 34 25.5 59t60.5 25t60.5 -25t25.5 -59z" />
<glyph unicode=";" horiz-adv-x="358" d="M276 805q0 -35 -25.5 -60.5t-60.5 -25.5t-60.5 25.5t-25.5 60.5q0 34 25.5 59t60.5 25t60.5 -25t25.5 -59zM190 -72q0 -26 -18.5 -44.5t-44.5 -18.5t-45 18.5t-19 44.5t19 45t45 19t44.5 -19t18.5 -45zM276 86q0 -35 -25.5 -60.5t-60.5 -25.5t-60.5 25.5t-25.5 60.5 q0 34 25.5 59t60.5 25t60.5 -25t25.5 -59zM119 -182q0 -17 -11.5 -28t-27.5 -11t-27.5 11t-11.5 28q0 15 12 26t27 11t27 -11t12 -26z" />
<glyph unicode="&#x3c;" horiz-adv-x="544" d="M336 317q0 -26 -19 -44.5t-45 -18.5t-44.5 18.5t-18.5 44.5t18.5 45t44.5 19t45 -19t19 -45zM336 571q0 -26 -19 -44.5t-45 -18.5t-44.5 18.5t-18.5 44.5t18.5 45t44.5 19t45 -19t19 -45zM463 698q0 -26 -19 -44.5t-45 -18.5t-44.5 18.5t-18.5 44.5t18.5 45t44.5 19 t45 -19t19 -45zM463 190q0 -26 -19 -44.5t-45 -18.5t-44.5 18.5t-18.5 44.5t18.5 45t44.5 19t45 -19t19 -45zM209 444q0 -26 -19 -44.5t-45 -18.5t-44.5 18.5t-18.5 44.5t18.5 45t44.5 19t45 -19t19 -45z" />
<glyph unicode="=" horiz-adv-x="671" d="M336 444q0 -26 -19 -44.5t-45 -18.5t-44.5 18.5t-18.5 44.5t18.5 45t44.5 19t45 -19t19 -45zM336 698q0 -26 -19 -44.5t-45 -18.5t-44.5 18.5t-18.5 44.5t18.5 45t44.5 19t45 -19t19 -45zM463 444q0 -26 -19 -44.5t-45 -18.5t-44.5 18.5t-18.5 44.5t18.5 45t44.5 19 t45 -19t19 -45zM463 698q0 -26 -19 -44.5t-45 -18.5t-44.5 18.5t-18.5 44.5t18.5 45t44.5 19t45 -19t19 -45zM590 444q0 -26 -19 -44.5t-45 -18.5t-44.5 18.5t-18.5 44.5t18.5 45t44.5 19t45 -19t19 -45zM590 698q0 -26 -19 -44.5t-45 -18.5t-44.5 18.5t-18.5 44.5t18.5 45 t44.5 19t45 -19t19 -45zM209 444q0 -26 -19 -44.5t-45 -18.5t-44.5 18.5t-18.5 44.5t18.5 45t44.5 19t45 -19t19 -45zM209 698q0 -26 -19 -44.5t-45 -18.5t-44.5 18.5t-18.5 44.5t18.5 45t44.5 19t45 -19t19 -45z" />
<glyph unicode="&#x3e;" horiz-adv-x="544" d="M209 317q0 26 18.5 45t44.5 19t45 -19t19 -45t-19 -44.5t-45 -18.5t-44.5 18.5t-18.5 44.5zM209 571q0 26 18.5 45t44.5 19t45 -19t19 -45t-19 -44.5t-45 -18.5t-44.5 18.5t-18.5 44.5zM82 698q0 26 18.5 45t44.5 19t45 -19t19 -45t-19 -44.5t-45 -18.5t-44.5 18.5 t-18.5 44.5zM82 190q0 26 18.5 45t44.5 19t45 -19t19 -45t-19 -44.5t-45 -18.5t-44.5 18.5t-18.5 44.5zM336 444q0 26 18.5 45t44.5 19t45 -19t19 -45t-19 -44.5t-45 -18.5t-44.5 18.5t-18.5 44.5z" />
<glyph unicode="?" horiz-adv-x="884" d="M168 952q0 -26 -19 -44.5t-45 -18.5t-44.5 18.5t-18.5 44.5t18.5 45t44.5 19t45 -19t19 -45zM168 1079q0 -26 -19 -44.5t-45 -18.5t-44.5 18.5t-18.5 44.5t18.5 45t44.5 19t45 -19t19 -45zM295 1206q0 -26 -19 -44.5t-45 -18.5t-44.5 18.5t-18.5 44.5t18.5 45t44.5 19 t45 -19t19 -45zM422 1206q0 -26 -19 -44.5t-45 -18.5t-44.5 18.5t-18.5 44.5t18.5 45t44.5 19t45 -19t19 -45zM549 1206q0 -26 -19 -44.5t-45 -18.5t-44.5 18.5t-18.5 44.5t18.5 45t44.5 19t45 -19t19 -45zM676 1206q0 -26 -19 -44.5t-45 -18.5t-44.5 18.5t-18.5 44.5 t18.5 45t44.5 19t45 -19t19 -45zM803 952q0 -26 -19 -44.5t-45 -18.5t-44.5 18.5t-18.5 44.5t18.5 45t44.5 19t45 -19t19 -45zM803 1079q0 -26 -19 -44.5t-45 -18.5t-44.5 18.5t-18.5 44.5t18.5 45t44.5 19t45 -19t19 -45zM422 317q0 -26 -19 -44.5t-45 -18.5t-44.5 18.5 t-18.5 44.5t18.5 45t44.5 19t45 -19t19 -45zM422 444q0 -26 -19 -44.5t-45 -18.5t-44.5 18.5t-18.5 44.5t18.5 45t44.5 19t45 -19t19 -45zM549 571q0 -26 -19 -44.5t-45 -18.5t-44.5 18.5t-18.5 44.5t18.5 45t44.5 19t45 -19t19 -45zM676 698q0 -26 -19 -44.5t-45 -18.5 t-44.5 18.5t-18.5 44.5t18.5 45t44.5 19t45 -19t19 -45zM803 825q0 -26 -19 -44.5t-45 -18.5t-44.5 18.5t-18.5 44.5t18.5 45t44.5 19t45 -19t19 -45zM444 86q0 -35 -25.5 -60.5t-60.5 -25.5t-60.5 25.5t-25.5 60.5q0 34 25.5 59t60.5 25t60.5 -25t25.5 -59z" />
<glyph unicode="@" horiz-adv-x="1261" d="M250 317q0 -26 -19 -44.5t-45 -18.5t-44.5 18.5t-18.5 44.5t18.5 45t44.5 19t45 -19t19 -45zM250 444q0 -26 -19 -44.5t-45 -18.5t-44.5 18.5t-18.5 44.5t18.5 45t44.5 19t45 -19t19 -45zM250 571q0 -26 -19 -44.5t-45 -18.5t-44.5 18.5t-18.5 44.5t18.5 45t44.5 19 t45 -19t19 -45zM250 698q0 -26 -19 -44.5t-45 -18.5t-44.5 18.5t-18.5 44.5t18.5 45t44.5 19t45 -19t19 -45zM250 825q0 -26 -19 -44.5t-45 -18.5t-44.5 18.5t-18.5 44.5t18.5 45t44.5 19t45 -19t19 -45zM250 952q0 -26 -19 -44.5t-45 -18.5t-44.5 18.5t-18.5 44.5t18.5 45 t44.5 19t45 -19t19 -45zM250 1079q0 -26 -19 -44.5t-45 -18.5t-44.5 18.5t-18.5 44.5t18.5 45t44.5 19t45 -19t19 -45zM250 190q0 -26 -19 -44.5t-45 -18.5t-44.5 18.5t-18.5 44.5t18.5 45t44.5 19t45 -19t19 -45zM377 63q0 -26 -19 -44.5t-45 -18.5t-44.5 18.5t-18.5 44.5 t18.5 45t44.5 19t45 -19t19 -45zM377 1206q0 -26 -19 -44.5t-45 -18.5t-44.5 18.5t-18.5 44.5t18.5 45t44.5 19t45 -19t19 -45zM504 63q0 -26 -19 -44.5t-45 -18.5t-44.5 18.5t-18.5 44.5t18.5 45t44.5 19t45 -19t19 -45zM504 1206q0 -26 -19 -44.5t-45 -18.5t-44.5 18.5 t-18.5 44.5t18.5 45t44.5 19t45 -19t19 -45zM631 63q0 -26 -19 -44.5t-45 -18.5t-44.5 18.5t-18.5 44.5t18.5 45t44.5 19t45 -19t19 -45zM631 952q0 -26 -19 -44.5t-45 -18.5t-44.5 18.5t-18.5 44.5t18.5 45t44.5 19t45 -19t19 -45zM631 1206q0 -26 -19 -44.5t-45 -18.5 t-44.5 18.5t-18.5 44.5t18.5 45t44.5 19t45 -19t19 -45zM758 63q0 -26 -19 -44.5t-45 -18.5t-44.5 18.5t-18.5 44.5t18.5 45t44.5 19t45 -19t19 -45zM758 952q0 -26 -19 -44.5t-45 -18.5t-44.5 18.5t-18.5 44.5t18.5 45t44.5 19t45 -19t19 -45zM758 1206q0 -26 -19 -44.5 t-45 -18.5t-44.5 18.5t-18.5 44.5t18.5 45t44.5 19t45 -19t19 -45zM885 63q0 -26 -19 -44.5t-45 -18.5t-44.5 18.5t-18.5 44.5t18.5 45t44.5 19t45 -19t19 -45zM885 952q0 -26 -19 -44.5t-45 -18.5t-44.5 18.5t-18.5 44.5t18.5 45t44.5 19t45 -19t19 -45zM885 1206 q0 -26 -19 -44.5t-45 -18.5t-44.5 18.5t-18.5 44.5t18.5 45t44.5 19t45 -19t19 -45zM1012 63q0 -26 -19 -44.5t-45 -18.5t-44.5 18.5t-18.5 44.5t18.5 45t44.5 19t45 -19t19 -45zM1012 317q0 -26 -19 -44.5t-45 -18.5t-44.5 18.5t-18.5 44.5t18.5 45t44.5 19t45 -19t19 -45z M1012 1206q0 -26 -19 -44.5t-45 -18.5t-44.5 18.5t-18.5 44.5t18.5 45t44.5 19t45 -19t19 -45zM1139 444q0 -26 -19 -44.5t-45 -18.5t-44.5 18.5t-18.5 44.5t18.5 45t44.5 19t45 -19t19 -45zM1139 571q0 -26 -19 -44.5t-45 -18.5t-44.5 18.5t-18.5 44.5t18.5 45t44.5 19 t45 -19t19 -45zM1139 698q0 -26 -19 -44.5t-45 -18.5t-44.5 18.5t-18.5 44.5t18.5 45t44.5 19t45 -19t19 -45zM1139 825q0 -26 -19 -44.5t-45 -18.5t-44.5 18.5t-18.5 44.5t18.5 45t44.5 19t45 -19t19 -45zM1139 952q0 -26 -19 -44.5t-45 -18.5t-44.5 18.5t-18.5 44.5 t18.5 45t44.5 19t45 -19t19 -45zM1139 1079q0 -26 -19 -44.5t-45 -18.5t-44.5 18.5t-18.5 44.5t18.5 45t44.5 19t45 -19t19 -45zM504 444q0 -26 -19 -44.5t-45 -18.5t-44.5 18.5t-18.5 44.5t18.5 45t44.5 19t45 -19t19 -45zM504 571q0 -26 -19 -44.5t-45 -18.5t-44.5 18.5 t-18.5 44.5t18.5 45t44.5 19t45 -19t19 -45zM504 698q0 -26 -19 -44.5t-45 -18.5t-44.5 18.5t-18.5 44.5t18.5 45t44.5 19t45 -19t19 -45zM504 825q0 -26 -19 -44.5t-45 -18.5t-44.5 18.5t-18.5 44.5t18.5 45t44.5 19t45 -19t19 -45zM631 317q0 -26 -19 -44.5t-45 -18.5 t-44.5 18.5t-18.5 44.5t18.5 45t44.5 19t45 -19t19 -45zM758 317q0 -26 -19 -44.5t-45 -18.5t-44.5 18.5t-18.5 44.5t18.5 45t44.5 19t45 -19t19 -45zM885 317q0 -26 -19 -44.5t-45 -18.5t-44.5 18.5t-18.5 44.5t18.5 45t44.5 19t45 -19t19 -45zM885 444q0 -26 -19 -44.5 t-45 -18.5t-44.5 18.5t-18.5 44.5t18.5 45t44.5 19t45 -19t19 -45zM885 571q0 -26 -19 -44.5t-45 -18.5t-44.5 18.5t-18.5 44.5t18.5 45t44.5 19t45 -19t19 -45zM885 698q0 -26 -19 -44.5t-45 -18.5t-44.5 18.5t-18.5 44.5t18.5 45t44.5 19t45 -19t19 -45zM885 825 q0 -26 -19 -44.5t-45 -18.5t-44.5 18.5t-18.5 44.5t18.5 45t44.5 19t45 -19t19 -45z" />
<glyph unicode="A" d="M229 63q0 -26 -18.5 -44.5t-44.5 -18.5t-45 18.5t-19 44.5t19 45t45 19t44.5 -19t18.5 -45zM229 317q0 -26 -18.5 -44.5t-44.5 -18.5t-45 18.5t-19 44.5t19 45t45 19t44.5 -19t18.5 -45zM229 444q0 -26 -18.5 -44.5t-44.5 -18.5t-45 18.5t-19 44.5t19 45t45 19t44.5 -19 t18.5 -45zM229 571q0 -26 -18.5 -44.5t-44.5 -18.5t-45 18.5t-19 44.5t19 45t45 19t44.5 -19t18.5 -45zM229 698q0 -26 -18.5 -44.5t-44.5 -18.5t-45 18.5t-19 44.5t19 45t45 19t44.5 -19t18.5 -45zM229 825q0 -26 -18.5 -44.5t-44.5 -18.5t-45 18.5t-19 44.5t19 45t45 19 t44.5 -19t18.5 -45zM229 952q0 -26 -18.5 -44.5t-44.5 -18.5t-45 18.5t-19 44.5t19 45t45 19t44.5 -19t18.5 -45zM229 190q0 -26 -18.5 -44.5t-44.5 -18.5t-45 18.5t-19 44.5t19 45t45 19t44.5 -19t18.5 -45zM356 1079q0 -26 -18.5 -44.5t-44.5 -18.5t-45 18.5t-19 44.5 t19 45t45 19t44.5 -19t18.5 -45zM483 1206q0 -26 -18.5 -44.5t-44.5 -18.5t-45 18.5t-19 44.5t19 45t45 19t44.5 -19t18.5 -45zM610 1206q0 -26 -18.5 -44.5t-44.5 -18.5t-45 18.5t-19 44.5t19 45t45 19t44.5 -19t18.5 -45zM737 1079q0 -26 -18.5 -44.5t-44.5 -18.5 t-45 18.5t-19 44.5t19 45t45 19t44.5 -19t18.5 -45zM864 63q0 -26 -18.5 -44.5t-44.5 -18.5t-45 18.5t-19 44.5t19 45t45 19t44.5 -19t18.5 -45zM864 952q0 -26 -18.5 -44.5t-44.5 -18.5t-45 18.5t-19 44.5t19 45t45 19t44.5 -19t18.5 -45zM864 190q0 -26 -18.5 -44.5 t-44.5 -18.5t-45 18.5t-19 44.5t19 45t45 19t44.5 -19t18.5 -45zM356 444q0 -26 -18.5 -44.5t-44.5 -18.5t-45 18.5t-19 44.5t19 45t45 19t44.5 -19t18.5 -45zM483 444q0 -26 -18.5 -44.5t-44.5 -18.5t-45 18.5t-19 44.5t19 45t45 19t44.5 -19t18.5 -45zM610 444 q0 -26 -18.5 -44.5t-44.5 -18.5t-45 18.5t-19 44.5t19 45t45 19t44.5 -19t18.5 -45zM737 444q0 -26 -18.5 -44.5t-44.5 -18.5t-45 18.5t-19 44.5t19 45t45 19t44.5 -19t18.5 -45zM864 317q0 -26 -18.5 -44.5t-44.5 -18.5t-45 18.5t-19 44.5t19 45t45 19t44.5 -19t18.5 -45z M864 444q0 -26 -18.5 -44.5t-44.5 -18.5t-45 18.5t-19 44.5t19 45t45 19t44.5 -19t18.5 -45zM864 571q0 -26 -18.5 -44.5t-44.5 -18.5t-45 18.5t-19 44.5t19 45t45 19t44.5 -19t18.5 -45zM864 698q0 -26 -18.5 -44.5t-44.5 -18.5t-45 18.5t-19 44.5t19 45t45 19t44.5 -19 t18.5 -45zM864 825q0 -26 -18.5 -44.5t-44.5 -18.5t-45 18.5t-19 44.5t19 45t45 19t44.5 -19t18.5 -45z" />
<glyph unicode="B" horiz-adv-x="987" d="M250 63q0 -26 -19 -44.5t-45 -18.5t-44.5 18.5t-18.5 44.5t18.5 45t44.5 19t45 -19t19 -45zM250 317q0 -26 -19 -44.5t-45 -18.5t-44.5 18.5t-18.5 44.5t18.5 45t44.5 19t45 -19t19 -45zM250 444q0 -26 -19 -44.5t-45 -18.5t-44.5 18.5t-18.5 44.5t18.5 45t44.5 19 t45 -19t19 -45zM250 571q0 -26 -19 -44.5t-45 -18.5t-44.5 18.5t-18.5 44.5t18.5 45t44.5 19t45 -19t19 -45zM250 698q0 -26 -19 -44.5t-45 -18.5t-44.5 18.5t-18.5 44.5t18.5 45t44.5 19t45 -19t19 -45zM250 825q0 -26 -19 -44.5t-45 -18.5t-44.5 18.5t-18.5 44.5t18.5 45 t44.5 19t45 -19t19 -45zM250 952q0 -26 -19 -44.5t-45 -18.5t-44.5 18.5t-18.5 44.5t18.5 45t44.5 19t45 -19t19 -45zM250 1079q0 -26 -19 -44.5t-45 -18.5t-44.5 18.5t-18.5 44.5t18.5 45t44.5 19t45 -19t19 -45zM250 1206q0 -26 -19 -44.5t-45 -18.5t-44.5 18.5 t-18.5 44.5t18.5 45t44.5 19t45 -19t19 -45zM250 190q0 -26 -19 -44.5t-45 -18.5t-44.5 18.5t-18.5 44.5t18.5 45t44.5 19t45 -19t19 -45zM377 63q0 -26 -19 -44.5t-45 -18.5t-44.5 18.5t-18.5 44.5t18.5 45t44.5 19t45 -19t19 -45zM377 1206q0 -26 -19 -44.5t-45 -18.5 t-44.5 18.5t-18.5 44.5t18.5 45t44.5 19t45 -19t19 -45zM504 63q0 -26 -19 -44.5t-45 -18.5t-44.5 18.5t-18.5 44.5t18.5 45t44.5 19t45 -19t19 -45zM504 1206q0 -26 -19 -44.5t-45 -18.5t-44.5 18.5t-18.5 44.5t18.5 45t44.5 19t45 -19t19 -45zM631 63q0 -26 -19 -44.5 t-45 -18.5t-44.5 18.5t-18.5 44.5t18.5 45t44.5 19t45 -19t19 -45zM631 1206q0 -26 -19 -44.5t-45 -18.5t-44.5 18.5t-18.5 44.5t18.5 45t44.5 19t45 -19t19 -45zM758 63q0 -26 -19 -44.5t-45 -18.5t-44.5 18.5t-18.5 44.5t18.5 45t44.5 19t45 -19t19 -45zM758 1206 q0 -26 -19 -44.5t-45 -18.5t-44.5 18.5t-18.5 44.5t18.5 45t44.5 19t45 -19t19 -45zM885 952q0 -26 -19 -44.5t-45 -18.5t-44.5 18.5t-18.5 44.5t18.5 45t44.5 19t45 -19t19 -45zM885 1079q0 -26 -19 -44.5t-45 -18.5t-44.5 18.5t-18.5 44.5t18.5 45t44.5 19t45 -19t19 -45z M885 190q0 -26 -19 -44.5t-45 -18.5t-44.5 18.5t-18.5 44.5t18.5 45t44.5 19t45 -19t19 -45zM377 698q0 -26 -19 -44.5t-45 -18.5t-44.5 18.5t-18.5 44.5t18.5 45t44.5 19t45 -19t19 -45zM504 698q0 -26 -19 -44.5t-45 -18.5t-44.5 18.5t-18.5 44.5t18.5 45t44.5 19t45 -19 t19 -45zM631 698q0 -26 -19 -44.5t-45 -18.5t-44.5 18.5t-18.5 44.5t18.5 45t44.5 19t45 -19t19 -45zM758 698q0 -26 -19 -44.5t-45 -18.5t-44.5 18.5t-18.5 44.5t18.5 45t44.5 19t45 -19t19 -45zM885 317q0 -26 -19 -44.5t-45 -18.5t-44.5 18.5t-18.5 44.5t18.5 45t44.5 19 t45 -19t19 -45zM885 444q0 -26 -19 -44.5t-45 -18.5t-44.5 18.5t-18.5 44.5t18.5 45t44.5 19t45 -19t19 -45zM885 571q0 -26 -19 -44.5t-45 -18.5t-44.5 18.5t-18.5 44.5t18.5 45t44.5 19t45 -19t19 -45zM885 825q0 -26 -19 -44.5t-45 -18.5t-44.5 18.5t-18.5 44.5t18.5 45 t44.5 19t45 -19t19 -45z" />
<glyph unicode="C" horiz-adv-x="925" d="M250 317q0 -26 -19 -44.5t-45 -18.5t-44.5 18.5t-18.5 44.5t18.5 45t44.5 19t45 -19t19 -45zM250 444q0 -26 -19 -44.5t-45 -18.5t-44.5 18.5t-18.5 44.5t18.5 45t44.5 19t45 -19t19 -45zM250 571q0 -26 -19 -44.5t-45 -18.5t-44.5 18.5t-18.5 44.5t18.5 45t44.5 19 t45 -19t19 -45zM250 698q0 -26 -19 -44.5t-45 -18.5t-44.5 18.5t-18.5 44.5t18.5 45t44.5 19t45 -19t19 -45zM250 825q0 -26 -19 -44.5t-45 -18.5t-44.5 18.5t-18.5 44.5t18.5 45t44.5 19t45 -19t19 -45zM250 952q0 -26 -19 -44.5t-45 -18.5t-44.5 18.5t-18.5 44.5t18.5 45 t44.5 19t45 -19t19 -45zM250 1079q0 -26 -19 -44.5t-45 -18.5t-44.5 18.5t-18.5 44.5t18.5 45t44.5 19t45 -19t19 -45zM250 190q0 -26 -19 -44.5t-45 -18.5t-44.5 18.5t-18.5 44.5t18.5 45t44.5 19t45 -19t19 -45zM377 63q0 -26 -19 -44.5t-45 -18.5t-44.5 18.5t-18.5 44.5 t18.5 45t44.5 19t45 -19t19 -45zM377 1206q0 -26 -19 -44.5t-45 -18.5t-44.5 18.5t-18.5 44.5t18.5 45t44.5 19t45 -19t19 -45zM504 63q0 -26 -19 -44.5t-45 -18.5t-44.5 18.5t-18.5 44.5t18.5 45t44.5 19t45 -19t19 -45zM504 1206q0 -26 -19 -44.5t-45 -18.5t-44.5 18.5 t-18.5 44.5t18.5 45t44.5 19t45 -19t19 -45zM631 63q0 -26 -19 -44.5t-45 -18.5t-44.5 18.5t-18.5 44.5t18.5 45t44.5 19t45 -19t19 -45zM631 1206q0 -26 -19 -44.5t-45 -18.5t-44.5 18.5t-18.5 44.5t18.5 45t44.5 19t45 -19t19 -45zM758 63q0 -26 -19 -44.5t-45 -18.5 t-44.5 18.5t-18.5 44.5t18.5 45t44.5 19t45 -19t19 -45zM758 1206q0 -26 -19 -44.5t-45 -18.5t-44.5 18.5t-18.5 44.5t18.5 45t44.5 19t45 -19t19 -45zM885 63q0 -26 -19 -44.5t-45 -18.5t-44.5 18.5t-18.5 44.5t18.5 45t44.5 19t45 -19t19 -45zM885 1079q0 -26 -19 -44.5 t-45 -18.5t-44.5 18.5t-18.5 44.5t18.5 45t44.5 19t45 -19t19 -45z" />
<glyph unicode="D" horiz-adv-x="1007" d="M250 63q0 -26 -19 -44.5t-45 -18.5t-44.5 18.5t-18.5 44.5t18.5 45t44.5 19t45 -19t19 -45zM250 317q0 -26 -19 -44.5t-45 -18.5t-44.5 18.5t-18.5 44.5t18.5 45t44.5 19t45 -19t19 -45zM250 444q0 -26 -19 -44.5t-45 -18.5t-44.5 18.5t-18.5 44.5t18.5 45t44.5 19 t45 -19t19 -45zM250 571q0 -26 -19 -44.5t-45 -18.5t-44.5 18.5t-18.5 44.5t18.5 45t44.5 19t45 -19t19 -45zM250 698q0 -26 -19 -44.5t-45 -18.5t-44.5 18.5t-18.5 44.5t18.5 45t44.5 19t45 -19t19 -45zM250 825q0 -26 -19 -44.5t-45 -18.5t-44.5 18.5t-18.5 44.5t18.5 45 t44.5 19t45 -19t19 -45zM250 952q0 -26 -19 -44.5t-45 -18.5t-44.5 18.5t-18.5 44.5t18.5 45t44.5 19t45 -19t19 -45zM250 1079q0 -26 -19 -44.5t-45 -18.5t-44.5 18.5t-18.5 44.5t18.5 45t44.5 19t45 -19t19 -45zM250 1206q0 -26 -19 -44.5t-45 -18.5t-44.5 18.5 t-18.5 44.5t18.5 45t44.5 19t45 -19t19 -45zM250 190q0 -26 -19 -44.5t-45 -18.5t-44.5 18.5t-18.5 44.5t18.5 45t44.5 19t45 -19t19 -45zM377 63q0 -26 -19 -44.5t-45 -18.5t-44.5 18.5t-18.5 44.5t18.5 45t44.5 19t45 -19t19 -45zM377 1206q0 -26 -19 -44.5t-45 -18.5 t-44.5 18.5t-18.5 44.5t18.5 45t44.5 19t45 -19t19 -45zM504 63q0 -26 -19 -44.5t-45 -18.5t-44.5 18.5t-18.5 44.5t18.5 45t44.5 19t45 -19t19 -45zM504 1206q0 -26 -19 -44.5t-45 -18.5t-44.5 18.5t-18.5 44.5t18.5 45t44.5 19t45 -19t19 -45zM631 63q0 -26 -19 -44.5 t-45 -18.5t-44.5 18.5t-18.5 44.5t18.5 45t44.5 19t45 -19t19 -45zM631 1206q0 -26 -19 -44.5t-45 -18.5t-44.5 18.5t-18.5 44.5t18.5 45t44.5 19t45 -19t19 -45zM758 63q0 -26 -19 -44.5t-45 -18.5t-44.5 18.5t-18.5 44.5t18.5 45t44.5 19t45 -19t19 -45zM758 1206 q0 -26 -19 -44.5t-45 -18.5t-44.5 18.5t-18.5 44.5t18.5 45t44.5 19t45 -19t19 -45zM885 952q0 -26 -19 -44.5t-45 -18.5t-44.5 18.5t-18.5 44.5t18.5 45t44.5 19t45 -19t19 -45zM885 1079q0 -26 -19 -44.5t-45 -18.5t-44.5 18.5t-18.5 44.5t18.5 45t44.5 19t45 -19t19 -45z M885 190q0 -26 -19 -44.5t-45 -18.5t-44.5 18.5t-18.5 44.5t18.5 45t44.5 19t45 -19t19 -45zM885 317q0 -26 -19 -44.5t-45 -18.5t-44.5 18.5t-18.5 44.5t18.5 45t44.5 19t45 -19t19 -45zM885 444q0 -26 -19 -44.5t-45 -18.5t-44.5 18.5t-18.5 44.5t18.5 45t44.5 19t45 -19 t19 -45zM885 571q0 -26 -19 -44.5t-45 -18.5t-44.5 18.5t-18.5 44.5t18.5 45t44.5 19t45 -19t19 -45zM885 698q0 -26 -19 -44.5t-45 -18.5t-44.5 18.5t-18.5 44.5t18.5 45t44.5 19t45 -19t19 -45zM885 825q0 -26 -19 -44.5t-45 -18.5t-44.5 18.5t-18.5 44.5t18.5 45t44.5 19 t45 -19t19 -45z" />
<glyph unicode="E" horiz-adv-x="798" d="M250 63q0 -26 -19 -44.5t-45 -18.5t-44.5 18.5t-18.5 44.5t18.5 45t44.5 19t45 -19t19 -45zM250 317q0 -26 -19 -44.5t-45 -18.5t-44.5 18.5t-18.5 44.5t18.5 45t44.5 19t45 -19t19 -45zM250 444q0 -26 -19 -44.5t-45 -18.5t-44.5 18.5t-18.5 44.5t18.5 45t44.5 19 t45 -19t19 -45zM250 571q0 -26 -19 -44.5t-45 -18.5t-44.5 18.5t-18.5 44.5t18.5 45t44.5 19t45 -19t19 -45zM250 698q0 -26 -19 -44.5t-45 -18.5t-44.5 18.5t-18.5 44.5t18.5 45t44.5 19t45 -19t19 -45zM250 825q0 -26 -19 -44.5t-45 -18.5t-44.5 18.5t-18.5 44.5t18.5 45 t44.5 19t45 -19t19 -45zM250 952q0 -26 -19 -44.5t-45 -18.5t-44.5 18.5t-18.5 44.5t18.5 45t44.5 19t45 -19t19 -45zM250 1079q0 -26 -19 -44.5t-45 -18.5t-44.5 18.5t-18.5 44.5t18.5 45t44.5 19t45 -19t19 -45zM250 1206q0 -26 -19 -44.5t-45 -18.5t-44.5 18.5 t-18.5 44.5t18.5 45t44.5 19t45 -19t19 -45zM250 190q0 -26 -19 -44.5t-45 -18.5t-44.5 18.5t-18.5 44.5t18.5 45t44.5 19t45 -19t19 -45zM377 63q0 -26 -19 -44.5t-45 -18.5t-44.5 18.5t-18.5 44.5t18.5 45t44.5 19t45 -19t19 -45zM377 1206q0 -26 -19 -44.5t-45 -18.5 t-44.5 18.5t-18.5 44.5t18.5 45t44.5 19t45 -19t19 -45zM504 63q0 -26 -19 -44.5t-45 -18.5t-44.5 18.5t-18.5 44.5t18.5 45t44.5 19t45 -19t19 -45zM504 1206q0 -26 -19 -44.5t-45 -18.5t-44.5 18.5t-18.5 44.5t18.5 45t44.5 19t45 -19t19 -45zM631 63q0 -26 -19 -44.5 t-45 -18.5t-44.5 18.5t-18.5 44.5t18.5 45t44.5 19t45 -19t19 -45zM631 1206q0 -26 -19 -44.5t-45 -18.5t-44.5 18.5t-18.5 44.5t18.5 45t44.5 19t45 -19t19 -45zM758 63q0 -26 -19 -44.5t-45 -18.5t-44.5 18.5t-18.5 44.5t18.5 45t44.5 19t45 -19t19 -45zM758 1206 q0 -26 -19 -44.5t-45 -18.5t-44.5 18.5t-18.5 44.5t18.5 45t44.5 19t45 -19t19 -45zM377 698q0 -26 -19 -44.5t-45 -18.5t-44.5 18.5t-18.5 44.5t18.5 45t44.5 19t45 -19t19 -45zM504 698q0 -26 -19 -44.5t-45 -18.5t-44.5 18.5t-18.5 44.5t18.5 45t44.5 19t45 -19t19 -45z M631 698q0 -26 -19 -44.5t-45 -18.5t-44.5 18.5t-18.5 44.5t18.5 45t44.5 19t45 -19t19 -45z" />
<glyph unicode="F" horiz-adv-x="798" d="M250 63q0 -26 -19 -44.5t-45 -18.5t-44.5 18.5t-18.5 44.5t18.5 45t44.5 19t45 -19t19 -45zM250 317q0 -26 -19 -44.5t-45 -18.5t-44.5 18.5t-18.5 44.5t18.5 45t44.5 19t45 -19t19 -45zM250 444q0 -26 -19 -44.5t-45 -18.5t-44.5 18.5t-18.5 44.5t18.5 45t44.5 19 t45 -19t19 -45zM250 571q0 -26 -19 -44.5t-45 -18.5t-44.5 18.5t-18.5 44.5t18.5 45t44.5 19t45 -19t19 -45zM250 698q0 -26 -19 -44.5t-45 -18.5t-44.5 18.5t-18.5 44.5t18.5 45t44.5 19t45 -19t19 -45zM250 825q0 -26 -19 -44.5t-45 -18.5t-44.5 18.5t-18.5 44.5t18.5 45 t44.5 19t45 -19t19 -45zM250 952q0 -26 -19 -44.5t-45 -18.5t-44.5 18.5t-18.5 44.5t18.5 45t44.5 19t45 -19t19 -45zM250 1079q0 -26 -19 -44.5t-45 -18.5t-44.5 18.5t-18.5 44.5t18.5 45t44.5 19t45 -19t19 -45zM250 1206q0 -26 -19 -44.5t-45 -18.5t-44.5 18.5 t-18.5 44.5t18.5 45t44.5 19t45 -19t19 -45zM250 190q0 -26 -19 -44.5t-45 -18.5t-44.5 18.5t-18.5 44.5t18.5 45t44.5 19t45 -19t19 -45zM377 1206q0 -26 -19 -44.5t-45 -18.5t-44.5 18.5t-18.5 44.5t18.5 45t44.5 19t45 -19t19 -45zM504 1206q0 -26 -19 -44.5t-45 -18.5 t-44.5 18.5t-18.5 44.5t18.5 45t44.5 19t45 -19t19 -45zM631 1206q0 -26 -19 -44.5t-45 -18.5t-44.5 18.5t-18.5 44.5t18.5 45t44.5 19t45 -19t19 -45zM758 1206q0 -26 -19 -44.5t-45 -18.5t-44.5 18.5t-18.5 44.5t18.5 45t44.5 19t45 -19t19 -45zM377 698q0 -26 -19 -44.5 t-45 -18.5t-44.5 18.5t-18.5 44.5t18.5 45t44.5 19t45 -19t19 -45zM504 698q0 -26 -19 -44.5t-45 -18.5t-44.5 18.5t-18.5 44.5t18.5 45t44.5 19t45 -19t19 -45zM631 698q0 -26 -19 -44.5t-45 -18.5t-44.5 18.5t-18.5 44.5t18.5 45t44.5 19t45 -19t19 -45z" />
<glyph unicode="G" horiz-adv-x="987" d="M250 317q0 -26 -19 -44.5t-45 -18.5t-44.5 18.5t-18.5 44.5t18.5 45t44.5 19t45 -19t19 -45zM250 444q0 -26 -19 -44.5t-45 -18.5t-44.5 18.5t-18.5 44.5t18.5 45t44.5 19t45 -19t19 -45zM250 571q0 -26 -19 -44.5t-45 -18.5t-44.5 18.5t-18.5 44.5t18.5 45t44.5 19 t45 -19t19 -45zM250 698q0 -26 -19 -44.5t-45 -18.5t-44.5 18.5t-18.5 44.5t18.5 45t44.5 19t45 -19t19 -45zM250 825q0 -26 -19 -44.5t-45 -18.5t-44.5 18.5t-18.5 44.5t18.5 45t44.5 19t45 -19t19 -45zM250 952q0 -26 -19 -44.5t-45 -18.5t-44.5 18.5t-18.5 44.5t18.5 45 t44.5 19t45 -19t19 -45zM250 1079q0 -26 -19 -44.5t-45 -18.5t-44.5 18.5t-18.5 44.5t18.5 45t44.5 19t45 -19t19 -45zM250 190q0 -26 -19 -44.5t-45 -18.5t-44.5 18.5t-18.5 44.5t18.5 45t44.5 19t45 -19t19 -45zM377 63q0 -26 -19 -44.5t-45 -18.5t-44.5 18.5t-18.5 44.5 t18.5 45t44.5 19t45 -19t19 -45zM377 1206q0 -26 -19 -44.5t-45 -18.5t-44.5 18.5t-18.5 44.5t18.5 45t44.5 19t45 -19t19 -45zM504 63q0 -26 -19 -44.5t-45 -18.5t-44.5 18.5t-18.5 44.5t18.5 45t44.5 19t45 -19t19 -45zM504 1206q0 -26 -19 -44.5t-45 -18.5t-44.5 18.5 t-18.5 44.5t18.5 45t44.5 19t45 -19t19 -45zM631 63q0 -26 -19 -44.5t-45 -18.5t-44.5 18.5t-18.5 44.5t18.5 45t44.5 19t45 -19t19 -45zM631 1206q0 -26 -19 -44.5t-45 -18.5t-44.5 18.5t-18.5 44.5t18.5 45t44.5 19t45 -19t19 -45zM758 63q0 -26 -19 -44.5t-45 -18.5 t-44.5 18.5t-18.5 44.5t18.5 45t44.5 19t45 -19t19 -45zM758 1206q0 -26 -19 -44.5t-45 -18.5t-44.5 18.5t-18.5 44.5t18.5 45t44.5 19t45 -19t19 -45zM885 1079q0 -26 -19 -44.5t-45 -18.5t-44.5 18.5t-18.5 44.5t18.5 45t44.5 19t45 -19t19 -45zM885 317q0 -26 -19 -44.5 t-45 -18.5t-44.5 18.5t-18.5 44.5t18.5 45t44.5 19t45 -19t19 -45zM885 444q0 -26 -19 -44.5t-45 -18.5t-44.5 18.5t-18.5 44.5t18.5 45t44.5 19t45 -19t19 -45zM885 571q0 -26 -19 -44.5t-45 -18.5t-44.5 18.5t-18.5 44.5t18.5 45t44.5 19t45 -19t19 -45zM885 190 q0 -26 -19 -44.5t-45 -18.5t-44.5 18.5t-18.5 44.5t18.5 45t44.5 19t45 -19t19 -45zM758 571q0 -26 -19 -44.5t-45 -18.5t-44.5 18.5t-18.5 44.5t18.5 45t44.5 19t45 -19t19 -45z" />
<glyph unicode="H" horiz-adv-x="1007" d="M250 63q0 -26 -19 -44.5t-45 -18.5t-44.5 18.5t-18.5 44.5t18.5 45t44.5 19t45 -19t19 -45zM250 317q0 -26 -19 -44.5t-45 -18.5t-44.5 18.5t-18.5 44.5t18.5 45t44.5 19t45 -19t19 -45zM250 444q0 -26 -19 -44.5t-45 -18.5t-44.5 18.5t-18.5 44.5t18.5 45t44.5 19 t45 -19t19 -45zM250 571q0 -26 -19 -44.5t-45 -18.5t-44.5 18.5t-18.5 44.5t18.5 45t44.5 19t45 -19t19 -45zM250 698q0 -26 -19 -44.5t-45 -18.5t-44.5 18.5t-18.5 44.5t18.5 45t44.5 19t45 -19t19 -45zM250 825q0 -26 -19 -44.5t-45 -18.5t-44.5 18.5t-18.5 44.5t18.5 45 t44.5 19t45 -19t19 -45zM250 952q0 -26 -19 -44.5t-45 -18.5t-44.5 18.5t-18.5 44.5t18.5 45t44.5 19t45 -19t19 -45zM250 1079q0 -26 -19 -44.5t-45 -18.5t-44.5 18.5t-18.5 44.5t18.5 45t44.5 19t45 -19t19 -45zM250 1206q0 -26 -19 -44.5t-45 -18.5t-44.5 18.5 t-18.5 44.5t18.5 45t44.5 19t45 -19t19 -45zM250 190q0 -26 -19 -44.5t-45 -18.5t-44.5 18.5t-18.5 44.5t18.5 45t44.5 19t45 -19t19 -45zM885 63q0 -26 -19 -44.5t-45 -18.5t-44.5 18.5t-18.5 44.5t18.5 45t44.5 19t45 -19t19 -45zM885 952q0 -26 -19 -44.5t-45 -18.5 t-44.5 18.5t-18.5 44.5t18.5 45t44.5 19t45 -19t19 -45zM885 1079q0 -26 -19 -44.5t-45 -18.5t-44.5 18.5t-18.5 44.5t18.5 45t44.5 19t45 -19t19 -45zM885 1206q0 -26 -19 -44.5t-45 -18.5t-44.5 18.5t-18.5 44.5t18.5 45t44.5 19t45 -19t19 -45zM885 190q0 -26 -19 -44.5 t-45 -18.5t-44.5 18.5t-18.5 44.5t18.5 45t44.5 19t45 -19t19 -45zM377 698q0 -26 -19 -44.5t-45 -18.5t-44.5 18.5t-18.5 44.5t18.5 45t44.5 19t45 -19t19 -45zM504 698q0 -26 -19 -44.5t-45 -18.5t-44.5 18.5t-18.5 44.5t18.5 45t44.5 19t45 -19t19 -45zM631 698 q0 -26 -19 -44.5t-45 -18.5t-44.5 18.5t-18.5 44.5t18.5 45t44.5 19t45 -19t19 -45zM758 698q0 -26 -19 -44.5t-45 -18.5t-44.5 18.5t-18.5 44.5t18.5 45t44.5 19t45 -19t19 -45zM885 317q0 -26 -19 -44.5t-45 -18.5t-44.5 18.5t-18.5 44.5t18.5 45t44.5 19t45 -19t19 -45z M885 444q0 -26 -19 -44.5t-45 -18.5t-44.5 18.5t-18.5 44.5t18.5 45t44.5 19t45 -19t19 -45zM885 571q0 -26 -19 -44.5t-45 -18.5t-44.5 18.5t-18.5 44.5t18.5 45t44.5 19t45 -19t19 -45zM885 698q0 -26 -19 -44.5t-45 -18.5t-44.5 18.5t-18.5 44.5t18.5 45t44.5 19t45 -19 t19 -45zM885 825q0 -26 -19 -44.5t-45 -18.5t-44.5 18.5t-18.5 44.5t18.5 45t44.5 19t45 -19t19 -45z" />
<glyph unicode="I" horiz-adv-x="544" d="M209 63q0 -26 -19 -44.5t-45 -18.5t-44.5 18.5t-18.5 44.5t18.5 45t44.5 19t45 -19t19 -45zM209 1206q0 -26 -19 -44.5t-45 -18.5t-44.5 18.5t-18.5 44.5t18.5 45t44.5 19t45 -19t19 -45zM336 63q0 -26 -19 -44.5t-45 -18.5t-44.5 18.5t-18.5 44.5t18.5 45t44.5 19 t45 -19t19 -45zM336 952q0 -26 -19 -44.5t-45 -18.5t-44.5 18.5t-18.5 44.5t18.5 45t44.5 19t45 -19t19 -45zM336 1079q0 -26 -19 -44.5t-45 -18.5t-44.5 18.5t-18.5 44.5t18.5 45t44.5 19t45 -19t19 -45zM336 1206q0 -26 -19 -44.5t-45 -18.5t-44.5 18.5t-18.5 44.5 t18.5 45t44.5 19t45 -19t19 -45zM336 190q0 -26 -19 -44.5t-45 -18.5t-44.5 18.5t-18.5 44.5t18.5 45t44.5 19t45 -19t19 -45zM463 63q0 -26 -19 -44.5t-45 -18.5t-44.5 18.5t-18.5 44.5t18.5 45t44.5 19t45 -19t19 -45zM463 1206q0 -26 -19 -44.5t-45 -18.5t-44.5 18.5 t-18.5 44.5t18.5 45t44.5 19t45 -19t19 -45zM336 317q0 -26 -19 -44.5t-45 -18.5t-44.5 18.5t-18.5 44.5t18.5 45t44.5 19t45 -19t19 -45zM336 444q0 -26 -19 -44.5t-45 -18.5t-44.5 18.5t-18.5 44.5t18.5 45t44.5 19t45 -19t19 -45zM336 571q0 -26 -19 -44.5t-45 -18.5 t-44.5 18.5t-18.5 44.5t18.5 45t44.5 19t45 -19t19 -45zM336 698q0 -26 -19 -44.5t-45 -18.5t-44.5 18.5t-18.5 44.5t18.5 45t44.5 19t45 -19t19 -45zM336 825q0 -26 -19 -44.5t-45 -18.5t-44.5 18.5t-18.5 44.5t18.5 45t44.5 19t45 -19t19 -45z" />
<glyph unicode="J" horiz-adv-x="884" d="M127 190q0 -26 -19 -44.5t-45 -18.5t-44.5 18.5t-18.5 44.5t18.5 45t44.5 19t45 -19t19 -45zM254 63q0 -26 -19 -44.5t-45 -18.5t-44.5 18.5t-18.5 44.5t18.5 45t44.5 19t45 -19t19 -45zM381 63q0 -26 -19 -44.5t-45 -18.5t-44.5 18.5t-18.5 44.5t18.5 45t44.5 19t45 -19 t19 -45zM508 63q0 -26 -19 -44.5t-45 -18.5t-44.5 18.5t-18.5 44.5t18.5 45t44.5 19t45 -19t19 -45zM508 1206q0 -26 -19 -44.5t-45 -18.5t-44.5 18.5t-18.5 44.5t18.5 45t44.5 19t45 -19t19 -45zM635 63q0 -26 -19 -44.5t-45 -18.5t-44.5 18.5t-18.5 44.5t18.5 45t44.5 19 t45 -19t19 -45zM635 1206q0 -26 -19 -44.5t-45 -18.5t-44.5 18.5t-18.5 44.5t18.5 45t44.5 19t45 -19t19 -45zM762 952q0 -26 -19 -44.5t-45 -18.5t-44.5 18.5t-18.5 44.5t18.5 45t44.5 19t45 -19t19 -45zM762 1079q0 -26 -19 -44.5t-45 -18.5t-44.5 18.5t-18.5 44.5 t18.5 45t44.5 19t45 -19t19 -45zM762 1206q0 -26 -19 -44.5t-45 -18.5t-44.5 18.5t-18.5 44.5t18.5 45t44.5 19t45 -19t19 -45zM762 190q0 -26 -19 -44.5t-45 -18.5t-44.5 18.5t-18.5 44.5t18.5 45t44.5 19t45 -19t19 -45zM762 317q0 -26 -19 -44.5t-45 -18.5t-44.5 18.5 t-18.5 44.5t18.5 45t44.5 19t45 -19t19 -45zM762 444q0 -26 -19 -44.5t-45 -18.5t-44.5 18.5t-18.5 44.5t18.5 45t44.5 19t45 -19t19 -45zM762 571q0 -26 -19 -44.5t-45 -18.5t-44.5 18.5t-18.5 44.5t18.5 45t44.5 19t45 -19t19 -45zM762 698q0 -26 -19 -44.5t-45 -18.5 t-44.5 18.5t-18.5 44.5t18.5 45t44.5 19t45 -19t19 -45zM762 825q0 -26 -19 -44.5t-45 -18.5t-44.5 18.5t-18.5 44.5t18.5 45t44.5 19t45 -19t19 -45z" />
<glyph unicode="K" d="M250 63q0 -26 -19 -44.5t-45 -18.5t-44.5 18.5t-18.5 44.5t18.5 45t44.5 19t45 -19t19 -45zM250 317q0 -26 -19 -44.5t-45 -18.5t-44.5 18.5t-18.5 44.5t18.5 45t44.5 19t45 -19t19 -45zM250 444q0 -26 -19 -44.5t-45 -18.5t-44.5 18.5t-18.5 44.5t18.5 45t44.5 19 t45 -19t19 -45zM250 571q0 -26 -19 -44.5t-45 -18.5t-44.5 18.5t-18.5 44.5t18.5 45t44.5 19t45 -19t19 -45zM250 698q0 -26 -19 -44.5t-45 -18.5t-44.5 18.5t-18.5 44.5t18.5 45t44.5 19t45 -19t19 -45zM250 825q0 -26 -19 -44.5t-45 -18.5t-44.5 18.5t-18.5 44.5t18.5 45 t44.5 19t45 -19t19 -45zM250 952q0 -26 -19 -44.5t-45 -18.5t-44.5 18.5t-18.5 44.5t18.5 45t44.5 19t45 -19t19 -45zM250 1079q0 -26 -19 -44.5t-45 -18.5t-44.5 18.5t-18.5 44.5t18.5 45t44.5 19t45 -19t19 -45zM250 1206q0 -26 -19 -44.5t-45 -18.5t-44.5 18.5 t-18.5 44.5t18.5 45t44.5 19t45 -19t19 -45zM250 190q0 -26 -19 -44.5t-45 -18.5t-44.5 18.5t-18.5 44.5t18.5 45t44.5 19t45 -19t19 -45zM631 952q0 -26 -19 -44.5t-45 -18.5t-44.5 18.5t-18.5 44.5t18.5 45t44.5 19t45 -19t19 -45zM758 1079q0 -26 -19 -44.5t-45 -18.5 t-44.5 18.5t-18.5 44.5t18.5 45t44.5 19t45 -19t19 -45zM885 63q0 -26 -19 -44.5t-45 -18.5t-44.5 18.5t-18.5 44.5t18.5 45t44.5 19t45 -19t19 -45zM885 1206q0 -26 -19 -44.5t-45 -18.5t-44.5 18.5t-18.5 44.5t18.5 45t44.5 19t45 -19t19 -45zM885 190q0 -26 -19 -44.5 t-45 -18.5t-44.5 18.5t-18.5 44.5t18.5 45t44.5 19t45 -19t19 -45zM377 698q0 -26 -19 -44.5t-45 -18.5t-44.5 18.5t-18.5 44.5t18.5 45t44.5 19t45 -19t19 -45zM504 571q0 -26 -19 -44.5t-45 -18.5t-44.5 18.5t-18.5 44.5t18.5 45t44.5 19t45 -19t19 -45zM504 825 q0 -26 -19 -44.5t-45 -18.5t-44.5 18.5t-18.5 44.5t18.5 45t44.5 19t45 -19t19 -45zM631 444q0 -26 -19 -44.5t-45 -18.5t-44.5 18.5t-18.5 44.5t18.5 45t44.5 19t45 -19t19 -45zM758 317q0 -26 -19 -44.5t-45 -18.5t-44.5 18.5t-18.5 44.5t18.5 45t44.5 19t45 -19t19 -45z " />
<glyph unicode="L" horiz-adv-x="925" d="M250 63q0 -26 -19 -44.5t-45 -18.5t-44.5 18.5t-18.5 44.5t18.5 45t44.5 19t45 -19t19 -45zM250 317q0 -26 -19 -44.5t-45 -18.5t-44.5 18.5t-18.5 44.5t18.5 45t44.5 19t45 -19t19 -45zM250 444q0 -26 -19 -44.5t-45 -18.5t-44.5 18.5t-18.5 44.5t18.5 45t44.5 19 t45 -19t19 -45zM250 571q0 -26 -19 -44.5t-45 -18.5t-44.5 18.5t-18.5 44.5t18.5 45t44.5 19t45 -19t19 -45zM250 698q0 -26 -19 -44.5t-45 -18.5t-44.5 18.5t-18.5 44.5t18.5 45t44.5 19t45 -19t19 -45zM250 825q0 -26 -19 -44.5t-45 -18.5t-44.5 18.5t-18.5 44.5t18.5 45 t44.5 19t45 -19t19 -45zM250 952q0 -26 -19 -44.5t-45 -18.5t-44.5 18.5t-18.5 44.5t18.5 45t44.5 19t45 -19t19 -45zM250 1079q0 -26 -19 -44.5t-45 -18.5t-44.5 18.5t-18.5 44.5t18.5 45t44.5 19t45 -19t19 -45zM250 1206q0 -26 -19 -44.5t-45 -18.5t-44.5 18.5 t-18.5 44.5t18.5 45t44.5 19t45 -19t19 -45zM250 190q0 -26 -19 -44.5t-45 -18.5t-44.5 18.5t-18.5 44.5t18.5 45t44.5 19t45 -19t19 -45zM377 63q0 -26 -19 -44.5t-45 -18.5t-44.5 18.5t-18.5 44.5t18.5 45t44.5 19t45 -19t19 -45zM504 63q0 -26 -19 -44.5t-45 -18.5 t-44.5 18.5t-18.5 44.5t18.5 45t44.5 19t45 -19t19 -45zM631 63q0 -26 -19 -44.5t-45 -18.5t-44.5 18.5t-18.5 44.5t18.5 45t44.5 19t45 -19t19 -45zM758 63q0 -26 -19 -44.5t-45 -18.5t-44.5 18.5t-18.5 44.5t18.5 45t44.5 19t45 -19t19 -45zM885 63q0 -26 -19 -44.5 t-45 -18.5t-44.5 18.5t-18.5 44.5t18.5 45t44.5 19t45 -19t19 -45z" />
<glyph unicode="M" horiz-adv-x="1134" d="M250 63q0 -26 -19 -44.5t-45 -18.5t-44.5 18.5t-18.5 44.5t18.5 45t44.5 19t45 -19t19 -45zM250 317q0 -26 -19 -44.5t-45 -18.5t-44.5 18.5t-18.5 44.5t18.5 45t44.5 19t45 -19t19 -45zM250 444q0 -26 -19 -44.5t-45 -18.5t-44.5 18.5t-18.5 44.5t18.5 45t44.5 19 t45 -19t19 -45zM250 571q0 -26 -19 -44.5t-45 -18.5t-44.5 18.5t-18.5 44.5t18.5 45t44.5 19t45 -19t19 -45zM250 698q0 -26 -19 -44.5t-45 -18.5t-44.5 18.5t-18.5 44.5t18.5 45t44.5 19t45 -19t19 -45zM250 825q0 -26 -19 -44.5t-45 -18.5t-44.5 18.5t-18.5 44.5t18.5 45 t44.5 19t45 -19t19 -45zM250 952q0 -26 -19 -44.5t-45 -18.5t-44.5 18.5t-18.5 44.5t18.5 45t44.5 19t45 -19t19 -45zM250 1079q0 -26 -19 -44.5t-45 -18.5t-44.5 18.5t-18.5 44.5t18.5 45t44.5 19t45 -19t19 -45zM250 1206q0 -26 -19 -44.5t-45 -18.5t-44.5 18.5 t-18.5 44.5t18.5 45t44.5 19t45 -19t19 -45zM250 190q0 -26 -19 -44.5t-45 -18.5t-44.5 18.5t-18.5 44.5t18.5 45t44.5 19t45 -19t19 -45zM377 1079q0 -26 -19 -44.5t-45 -18.5t-44.5 18.5t-18.5 44.5t18.5 45t44.5 19t45 -19t19 -45zM504 952q0 -26 -19 -44.5t-45 -18.5 t-44.5 18.5t-18.5 44.5t18.5 45t44.5 19t45 -19t19 -45zM758 952q0 -26 -19 -44.5t-45 -18.5t-44.5 18.5t-18.5 44.5t18.5 45t44.5 19t45 -19t19 -45zM885 1079q0 -26 -19 -44.5t-45 -18.5t-44.5 18.5t-18.5 44.5t18.5 45t44.5 19t45 -19t19 -45zM1012 63q0 -26 -19 -44.5 t-45 -18.5t-44.5 18.5t-18.5 44.5t18.5 45t44.5 19t45 -19t19 -45zM1012 317q0 -26 -19 -44.5t-45 -18.5t-44.5 18.5t-18.5 44.5t18.5 45t44.5 19t45 -19t19 -45zM1012 444q0 -26 -19 -44.5t-45 -18.5t-44.5 18.5t-18.5 44.5t18.5 45t44.5 19t45 -19t19 -45zM1012 571 q0 -26 -19 -44.5t-45 -18.5t-44.5 18.5t-18.5 44.5t18.5 45t44.5 19t45 -19t19 -45zM1012 698q0 -26 -19 -44.5t-45 -18.5t-44.5 18.5t-18.5 44.5t18.5 45t44.5 19t45 -19t19 -45zM1012 825q0 -26 -19 -44.5t-45 -18.5t-44.5 18.5t-18.5 44.5t18.5 45t44.5 19t45 -19t19 -45 zM1012 952q0 -26 -19 -44.5t-45 -18.5t-44.5 18.5t-18.5 44.5t18.5 45t44.5 19t45 -19t19 -45zM1012 1079q0 -26 -19 -44.5t-45 -18.5t-44.5 18.5t-18.5 44.5t18.5 45t44.5 19t45 -19t19 -45zM1012 1206q0 -26 -19 -44.5t-45 -18.5t-44.5 18.5t-18.5 44.5t18.5 45t44.5 19 t45 -19t19 -45zM1012 190q0 -26 -19 -44.5t-45 -18.5t-44.5 18.5t-18.5 44.5t18.5 45t44.5 19t45 -19t19 -45zM631 825q0 -26 -19 -44.5t-45 -18.5t-44.5 18.5t-18.5 44.5t18.5 45t44.5 19t45 -19t19 -45z" />
<glyph unicode="N" horiz-adv-x="1007" d="M250 63q0 -26 -19 -44.5t-45 -18.5t-44.5 18.5t-18.5 44.5t18.5 45t44.5 19t45 -19t19 -45zM250 317q0 -26 -19 -44.5t-45 -18.5t-44.5 18.5t-18.5 44.5t18.5 45t44.5 19t45 -19t19 -45zM250 444q0 -26 -19 -44.5t-45 -18.5t-44.5 18.5t-18.5 44.5t18.5 45t44.5 19 t45 -19t19 -45zM250 571q0 -26 -19 -44.5t-45 -18.5t-44.5 18.5t-18.5 44.5t18.5 45t44.5 19t45 -19t19 -45zM250 698q0 -26 -19 -44.5t-45 -18.5t-44.5 18.5t-18.5 44.5t18.5 45t44.5 19t45 -19t19 -45zM250 825q0 -26 -19 -44.5t-45 -18.5t-44.5 18.5t-18.5 44.5t18.5 45 t44.5 19t45 -19t19 -45zM250 952q0 -26 -19 -44.5t-45 -18.5t-44.5 18.5t-18.5 44.5t18.5 45t44.5 19t45 -19t19 -45zM250 1079q0 -26 -19 -44.5t-45 -18.5t-44.5 18.5t-18.5 44.5t18.5 45t44.5 19t45 -19t19 -45zM250 1206q0 -26 -19 -44.5t-45 -18.5t-44.5 18.5 t-18.5 44.5t18.5 45t44.5 19t45 -19t19 -45zM250 190q0 -26 -19 -44.5t-45 -18.5t-44.5 18.5t-18.5 44.5t18.5 45t44.5 19t45 -19t19 -45zM377 952q0 -26 -19 -44.5t-45 -18.5t-44.5 18.5t-18.5 44.5t18.5 45t44.5 19t45 -19t19 -45zM885 63q0 -26 -19 -44.5t-45 -18.5 t-44.5 18.5t-18.5 44.5t18.5 45t44.5 19t45 -19t19 -45zM885 952q0 -26 -19 -44.5t-45 -18.5t-44.5 18.5t-18.5 44.5t18.5 45t44.5 19t45 -19t19 -45zM885 1079q0 -26 -19 -44.5t-45 -18.5t-44.5 18.5t-18.5 44.5t18.5 45t44.5 19t45 -19t19 -45zM885 1206q0 -26 -19 -44.5 t-45 -18.5t-44.5 18.5t-18.5 44.5t18.5 45t44.5 19t45 -19t19 -45zM885 190q0 -26 -19 -44.5t-45 -18.5t-44.5 18.5t-18.5 44.5t18.5 45t44.5 19t45 -19t19 -45zM504 698q0 -26 -19 -44.5t-45 -18.5t-44.5 18.5t-18.5 44.5t18.5 45t44.5 19t45 -19t19 -45zM504 825 q0 -26 -19 -44.5t-45 -18.5t-44.5 18.5t-18.5 44.5t18.5 45t44.5 19t45 -19t19 -45zM631 444q0 -26 -19 -44.5t-45 -18.5t-44.5 18.5t-18.5 44.5t18.5 45t44.5 19t45 -19t19 -45zM631 571q0 -26 -19 -44.5t-45 -18.5t-44.5 18.5t-18.5 44.5t18.5 45t44.5 19t45 -19t19 -45z M758 317q0 -26 -19 -44.5t-45 -18.5t-44.5 18.5t-18.5 44.5t18.5 45t44.5 19t45 -19t19 -45zM885 317q0 -26 -19 -44.5t-45 -18.5t-44.5 18.5t-18.5 44.5t18.5 45t44.5 19t45 -19t19 -45zM885 444q0 -26 -19 -44.5t-45 -18.5t-44.5 18.5t-18.5 44.5t18.5 45t44.5 19t45 -19 t19 -45zM885 571q0 -26 -19 -44.5t-45 -18.5t-44.5 18.5t-18.5 44.5t18.5 45t44.5 19t45 -19t19 -45zM885 698q0 -26 -19 -44.5t-45 -18.5t-44.5 18.5t-18.5 44.5t18.5 45t44.5 19t45 -19t19 -45zM885 825q0 -26 -19 -44.5t-45 -18.5t-44.5 18.5t-18.5 44.5t18.5 45t44.5 19 t45 -19t19 -45z" />
<glyph unicode="O" horiz-adv-x="1007" d="M250 317q0 -26 -19 -44.5t-45 -18.5t-44.5 18.5t-18.5 44.5t18.5 45t44.5 19t45 -19t19 -45zM250 444q0 -26 -19 -44.5t-45 -18.5t-44.5 18.5t-18.5 44.5t18.5 45t44.5 19t45 -19t19 -45zM250 571q0 -26 -19 -44.5t-45 -18.5t-44.5 18.5t-18.5 44.5t18.5 45t44.5 19 t45 -19t19 -45zM250 698q0 -26 -19 -44.5t-45 -18.5t-44.5 18.5t-18.5 44.5t18.5 45t44.5 19t45 -19t19 -45zM250 825q0 -26 -19 -44.5t-45 -18.5t-44.5 18.5t-18.5 44.5t18.5 45t44.5 19t45 -19t19 -45zM250 952q0 -26 -19 -44.5t-45 -18.5t-44.5 18.5t-18.5 44.5t18.5 45 t44.5 19t45 -19t19 -45zM250 1079q0 -26 -19 -44.5t-45 -18.5t-44.5 18.5t-18.5 44.5t18.5 45t44.5 19t45 -19t19 -45zM250 190q0 -26 -19 -44.5t-45 -18.5t-44.5 18.5t-18.5 44.5t18.5 45t44.5 19t45 -19t19 -45zM377 63q0 -26 -19 -44.5t-45 -18.5t-44.5 18.5t-18.5 44.5 t18.5 45t44.5 19t45 -19t19 -45zM377 1206q0 -26 -19 -44.5t-45 -18.5t-44.5 18.5t-18.5 44.5t18.5 45t44.5 19t45 -19t19 -45zM504 63q0 -26 -19 -44.5t-45 -18.5t-44.5 18.5t-18.5 44.5t18.5 45t44.5 19t45 -19t19 -45zM504 1206q0 -26 -19 -44.5t-45 -18.5t-44.5 18.5 t-18.5 44.5t18.5 45t44.5 19t45 -19t19 -45zM631 63q0 -26 -19 -44.5t-45 -18.5t-44.5 18.5t-18.5 44.5t18.5 45t44.5 19t45 -19t19 -45zM631 1206q0 -26 -19 -44.5t-45 -18.5t-44.5 18.5t-18.5 44.5t18.5 45t44.5 19t45 -19t19 -45zM758 63q0 -26 -19 -44.5t-45 -18.5 t-44.5 18.5t-18.5 44.5t18.5 45t44.5 19t45 -19t19 -45zM758 1206q0 -26 -19 -44.5t-45 -18.5t-44.5 18.5t-18.5 44.5t18.5 45t44.5 19t45 -19t19 -45zM885 952q0 -26 -19 -44.5t-45 -18.5t-44.5 18.5t-18.5 44.5t18.5 45t44.5 19t45 -19t19 -45zM885 1079q0 -26 -19 -44.5 t-45 -18.5t-44.5 18.5t-18.5 44.5t18.5 45t44.5 19t45 -19t19 -45zM885 190q0 -26 -19 -44.5t-45 -18.5t-44.5 18.5t-18.5 44.5t18.5 45t44.5 19t45 -19t19 -45zM885 317q0 -26 -19 -44.5t-45 -18.5t-44.5 18.5t-18.5 44.5t18.5 45t44.5 19t45 -19t19 -45zM885 444 q0 -26 -19 -44.5t-45 -18.5t-44.5 18.5t-18.5 44.5t18.5 45t44.5 19t45 -19t19 -45zM885 571q0 -26 -19 -44.5t-45 -18.5t-44.5 18.5t-18.5 44.5t18.5 45t44.5 19t45 -19t19 -45zM885 698q0 -26 -19 -44.5t-45 -18.5t-44.5 18.5t-18.5 44.5t18.5 45t44.5 19t45 -19t19 -45z M885 825q0 -26 -19 -44.5t-45 -18.5t-44.5 18.5t-18.5 44.5t18.5 45t44.5 19t45 -19t19 -45z" />
<glyph unicode="P" d="M250 63q0 -26 -19 -44.5t-45 -18.5t-44.5 18.5t-18.5 44.5t18.5 45t44.5 19t45 -19t19 -45zM250 317q0 -26 -19 -44.5t-45 -18.5t-44.5 18.5t-18.5 44.5t18.5 45t44.5 19t45 -19t19 -45zM250 444q0 -26 -19 -44.5t-45 -18.5t-44.5 18.5t-18.5 44.5t18.5 45t44.5 19 t45 -19t19 -45zM250 571q0 -26 -19 -44.5t-45 -18.5t-44.5 18.5t-18.5 44.5t18.5 45t44.5 19t45 -19t19 -45zM250 698q0 -26 -19 -44.5t-45 -18.5t-44.5 18.5t-18.5 44.5t18.5 45t44.5 19t45 -19t19 -45zM250 825q0 -26 -19 -44.5t-45 -18.5t-44.5 18.5t-18.5 44.5t18.5 45 t44.5 19t45 -19t19 -45zM250 952q0 -26 -19 -44.5t-45 -18.5t-44.5 18.5t-18.5 44.5t18.5 45t44.5 19t45 -19t19 -45zM250 1079q0 -26 -19 -44.5t-45 -18.5t-44.5 18.5t-18.5 44.5t18.5 45t44.5 19t45 -19t19 -45zM250 1206q0 -26 -19 -44.5t-45 -18.5t-44.5 18.5 t-18.5 44.5t18.5 45t44.5 19t45 -19t19 -45zM250 190q0 -26 -19 -44.5t-45 -18.5t-44.5 18.5t-18.5 44.5t18.5 45t44.5 19t45 -19t19 -45zM377 1206q0 -26 -19 -44.5t-45 -18.5t-44.5 18.5t-18.5 44.5t18.5 45t44.5 19t45 -19t19 -45zM504 1206q0 -26 -19 -44.5t-45 -18.5 t-44.5 18.5t-18.5 44.5t18.5 45t44.5 19t45 -19t19 -45zM631 1206q0 -26 -19 -44.5t-45 -18.5t-44.5 18.5t-18.5 44.5t18.5 45t44.5 19t45 -19t19 -45zM758 1206q0 -26 -19 -44.5t-45 -18.5t-44.5 18.5t-18.5 44.5t18.5 45t44.5 19t45 -19t19 -45zM885 952q0 -26 -19 -44.5 t-45 -18.5t-44.5 18.5t-18.5 44.5t18.5 45t44.5 19t45 -19t19 -45zM885 1079q0 -26 -19 -44.5t-45 -18.5t-44.5 18.5t-18.5 44.5t18.5 45t44.5 19t45 -19t19 -45zM377 571q0 -26 -19 -44.5t-45 -18.5t-44.5 18.5t-18.5 44.5t18.5 45t44.5 19t45 -19t19 -45zM504 444 q0 -26 -19 -44.5t-45 -18.5t-44.5 18.5t-18.5 44.5t18.5 45t44.5 19t45 -19t19 -45zM631 444q0 -26 -19 -44.5t-45 -18.5t-44.5 18.5t-18.5 44.5t18.5 45t44.5 19t45 -19t19 -45zM758 444q0 -26 -19 -44.5t-45 -18.5t-44.5 18.5t-18.5 44.5t18.5 45t44.5 19t45 -19t19 -45z M885 571q0 -26 -19 -44.5t-45 -18.5t-44.5 18.5t-18.5 44.5t18.5 45t44.5 19t45 -19t19 -45zM885 698q0 -26 -19 -44.5t-45 -18.5t-44.5 18.5t-18.5 44.5t18.5 45t44.5 19t45 -19t19 -45zM885 825q0 -26 -19 -44.5t-45 -18.5t-44.5 18.5t-18.5 44.5t18.5 45t44.5 19t45 -19 t19 -45z" />
<glyph unicode="Q" horiz-adv-x="1007" d="M250 317q0 -26 -19 -44.5t-45 -18.5t-44.5 18.5t-18.5 44.5t18.5 45t44.5 19t45 -19t19 -45zM250 444q0 -26 -19 -44.5t-45 -18.5t-44.5 18.5t-18.5 44.5t18.5 45t44.5 19t45 -19t19 -45zM250 571q0 -26 -19 -44.5t-45 -18.5t-44.5 18.5t-18.5 44.5t18.5 45t44.5 19 t45 -19t19 -45zM250 698q0 -26 -19 -44.5t-45 -18.5t-44.5 18.5t-18.5 44.5t18.5 45t44.5 19t45 -19t19 -45zM250 825q0 -26 -19 -44.5t-45 -18.5t-44.5 18.5t-18.5 44.5t18.5 45t44.5 19t45 -19t19 -45zM250 952q0 -26 -19 -44.5t-45 -18.5t-44.5 18.5t-18.5 44.5t18.5 45 t44.5 19t45 -19t19 -45zM250 1079q0 -26 -19 -44.5t-45 -18.5t-44.5 18.5t-18.5 44.5t18.5 45t44.5 19t45 -19t19 -45zM250 190q0 -26 -19 -44.5t-45 -18.5t-44.5 18.5t-18.5 44.5t18.5 45t44.5 19t45 -19t19 -45zM377 63q0 -26 -19 -44.5t-45 -18.5t-44.5 18.5t-18.5 44.5 t18.5 45t44.5 19t45 -19t19 -45zM377 1206q0 -26 -19 -44.5t-45 -18.5t-44.5 18.5t-18.5 44.5t18.5 45t44.5 19t45 -19t19 -45zM504 63q0 -26 -19 -44.5t-45 -18.5t-44.5 18.5t-18.5 44.5t18.5 45t44.5 19t45 -19t19 -45zM504 1206q0 -26 -19 -44.5t-45 -18.5t-44.5 18.5 t-18.5 44.5t18.5 45t44.5 19t45 -19t19 -45zM631 63q0 -26 -19 -44.5t-45 -18.5t-44.5 18.5t-18.5 44.5t18.5 45t44.5 19t45 -19t19 -45zM631 1206q0 -26 -19 -44.5t-45 -18.5t-44.5 18.5t-18.5 44.5t18.5 45t44.5 19t45 -19t19 -45zM758 63q0 -26 -19 -44.5t-45 -18.5 t-44.5 18.5t-18.5 44.5t18.5 45t44.5 19t45 -19t19 -45zM758 1206q0 -26 -19 -44.5t-45 -18.5t-44.5 18.5t-18.5 44.5t18.5 45t44.5 19t45 -19t19 -45zM885 952q0 -26 -19 -44.5t-45 -18.5t-44.5 18.5t-18.5 44.5t18.5 45t44.5 19t45 -19t19 -45zM885 1079q0 -26 -19 -44.5 t-45 -18.5t-44.5 18.5t-18.5 44.5t18.5 45t44.5 19t45 -19t19 -45zM885 190q0 -26 -19 -44.5t-45 -18.5t-44.5 18.5t-18.5 44.5t18.5 45t44.5 19t45 -19t19 -45zM885 317q0 -26 -19 -44.5t-45 -18.5t-44.5 18.5t-18.5 44.5t18.5 45t44.5 19t45 -19t19 -45zM885 444 q0 -26 -19 -44.5t-45 -18.5t-44.5 18.5t-18.5 44.5t18.5 45t44.5 19t45 -19t19 -45zM885 571q0 -26 -19 -44.5t-45 -18.5t-44.5 18.5t-18.5 44.5t18.5 45t44.5 19t45 -19t19 -45zM885 698q0 -26 -19 -44.5t-45 -18.5t-44.5 18.5t-18.5 44.5t18.5 45t44.5 19t45 -19t19 -45z M885 825q0 -26 -19 -44.5t-45 -18.5t-44.5 18.5t-18.5 44.5t18.5 45t44.5 19t45 -19t19 -45zM631 190q0 -26 -19 -44.5t-45 -18.5t-44.5 18.5t-18.5 44.5t18.5 45t44.5 19t45 -19t19 -45zM631 -63q0 -26 -19 -45t-45 -19t-44.5 19t-18.5 45t18.5 44.5t44.5 18.5t45 -18.5 t19 -44.5zM758 -190q0 -26 -19 -45t-45 -19t-44.5 19t-18.5 45t18.5 44.5t44.5 18.5t45 -18.5t19 -44.5z" />
<glyph unicode="R" d="M250 63q0 -26 -19 -44.5t-45 -18.5t-44.5 18.5t-18.5 44.5t18.5 45t44.5 19t45 -19t19 -45zM250 317q0 -26 -19 -44.5t-45 -18.5t-44.5 18.5t-18.5 44.5t18.5 45t44.5 19t45 -19t19 -45zM250 444q0 -26 -19 -44.5t-45 -18.5t-44.5 18.5t-18.5 44.5t18.5 45t44.5 19 t45 -19t19 -45zM250 571q0 -26 -19 -44.5t-45 -18.5t-44.5 18.5t-18.5 44.5t18.5 45t44.5 19t45 -19t19 -45zM250 698q0 -26 -19 -44.5t-45 -18.5t-44.5 18.5t-18.5 44.5t18.5 45t44.5 19t45 -19t19 -45zM250 825q0 -26 -19 -44.5t-45 -18.5t-44.5 18.5t-18.5 44.5t18.5 45 t44.5 19t45 -19t19 -45zM250 952q0 -26 -19 -44.5t-45 -18.5t-44.5 18.5t-18.5 44.5t18.5 45t44.5 19t45 -19t19 -45zM250 1079q0 -26 -19 -44.5t-45 -18.5t-44.5 18.5t-18.5 44.5t18.5 45t44.5 19t45 -19t19 -45zM250 1206q0 -26 -19 -44.5t-45 -18.5t-44.5 18.5 t-18.5 44.5t18.5 45t44.5 19t45 -19t19 -45zM250 190q0 -26 -19 -44.5t-45 -18.5t-44.5 18.5t-18.5 44.5t18.5 45t44.5 19t45 -19t19 -45zM377 1206q0 -26 -19 -44.5t-45 -18.5t-44.5 18.5t-18.5 44.5t18.5 45t44.5 19t45 -19t19 -45zM504 1206q0 -26 -19 -44.5t-45 -18.5 t-44.5 18.5t-18.5 44.5t18.5 45t44.5 19t45 -19t19 -45zM631 1206q0 -26 -19 -44.5t-45 -18.5t-44.5 18.5t-18.5 44.5t18.5 45t44.5 19t45 -19t19 -45zM758 1206q0 -26 -19 -44.5t-45 -18.5t-44.5 18.5t-18.5 44.5t18.5 45t44.5 19t45 -19t19 -45zM885 952q0 -26 -19 -44.5 t-45 -18.5t-44.5 18.5t-18.5 44.5t18.5 45t44.5 19t45 -19t19 -45zM885 1079q0 -26 -19 -44.5t-45 -18.5t-44.5 18.5t-18.5 44.5t18.5 45t44.5 19t45 -19t19 -45zM377 571q0 -26 -19 -44.5t-45 -18.5t-44.5 18.5t-18.5 44.5t18.5 45t44.5 19t45 -19t19 -45zM504 444 q0 -26 -19 -44.5t-45 -18.5t-44.5 18.5t-18.5 44.5t18.5 45t44.5 19t45 -19t19 -45zM631 444q0 -26 -19 -44.5t-45 -18.5t-44.5 18.5t-18.5 44.5t18.5 45t44.5 19t45 -19t19 -45zM758 444q0 -26 -19 -44.5t-45 -18.5t-44.5 18.5t-18.5 44.5t18.5 45t44.5 19t45 -19t19 -45z M885 571q0 -26 -19 -44.5t-45 -18.5t-44.5 18.5t-18.5 44.5t18.5 45t44.5 19t45 -19t19 -45zM885 698q0 -26 -19 -44.5t-45 -18.5t-44.5 18.5t-18.5 44.5t18.5 45t44.5 19t45 -19t19 -45zM885 825q0 -26 -19 -44.5t-45 -18.5t-44.5 18.5t-18.5 44.5t18.5 45t44.5 19t45 -19 t19 -45zM631 317q0 -26 -19 -44.5t-45 -18.5t-44.5 18.5t-18.5 44.5t18.5 45t44.5 19t45 -19t19 -45zM758 190q0 -26 -19 -44.5t-45 -18.5t-44.5 18.5t-18.5 44.5t18.5 45t44.5 19t45 -19t19 -45zM885 63q0 -26 -19 -44.5t-45 -18.5t-44.5 18.5t-18.5 44.5t18.5 45t44.5 19 t45 -19t19 -45z" />
<glyph unicode="S" horiz-adv-x="905" d="M188 825q0 -26 -18.5 -44.5t-44.5 -18.5t-45 18.5t-19 44.5t19 45t45 19t44.5 -19t18.5 -45zM188 952q0 -26 -18.5 -44.5t-44.5 -18.5t-45 18.5t-19 44.5t19 45t45 19t44.5 -19t18.5 -45zM188 1079q0 -26 -18.5 -44.5t-44.5 -18.5t-45 18.5t-19 44.5t19 45t45 19 t44.5 -19t18.5 -45zM188 190q0 -26 -18.5 -44.5t-44.5 -18.5t-45 18.5t-19 44.5t19 45t45 19t44.5 -19t18.5 -45zM315 63q0 -26 -18.5 -44.5t-44.5 -18.5t-45 18.5t-19 44.5t19 45t45 19t44.5 -19t18.5 -45zM315 698q0 -26 -18.5 -44.5t-44.5 -18.5t-45 18.5t-19 44.5t19 45 t45 19t44.5 -19t18.5 -45zM315 1206q0 -26 -18.5 -44.5t-44.5 -18.5t-45 18.5t-19 44.5t19 45t45 19t44.5 -19t18.5 -45zM442 63q0 -26 -18.5 -44.5t-44.5 -18.5t-45 18.5t-19 44.5t19 45t45 19t44.5 -19t18.5 -45zM442 698q0 -26 -18.5 -44.5t-44.5 -18.5t-45 18.5 t-19 44.5t19 45t45 19t44.5 -19t18.5 -45zM442 1206q0 -26 -18.5 -44.5t-44.5 -18.5t-45 18.5t-19 44.5t19 45t45 19t44.5 -19t18.5 -45zM569 63q0 -26 -18.5 -44.5t-44.5 -18.5t-45 18.5t-19 44.5t19 45t45 19t44.5 -19t18.5 -45zM569 698q0 -26 -18.5 -44.5t-44.5 -18.5 t-45 18.5t-19 44.5t19 45t45 19t44.5 -19t18.5 -45zM569 1206q0 -26 -18.5 -44.5t-44.5 -18.5t-45 18.5t-19 44.5t19 45t45 19t44.5 -19t18.5 -45zM696 63q0 -26 -18.5 -44.5t-44.5 -18.5t-45 18.5t-19 44.5t19 45t45 19t44.5 -19t18.5 -45zM696 698q0 -26 -18.5 -44.5 t-44.5 -18.5t-45 18.5t-19 44.5t19 45t45 19t44.5 -19t18.5 -45zM696 1206q0 -26 -18.5 -44.5t-44.5 -18.5t-45 18.5t-19 44.5t19 45t45 19t44.5 -19t18.5 -45zM823 317q0 -26 -18.5 -44.5t-44.5 -18.5t-45 18.5t-19 44.5t19 45t45 19t44.5 -19t18.5 -45zM823 444 q0 -26 -18.5 -44.5t-44.5 -18.5t-45 18.5t-19 44.5t19 45t45 19t44.5 -19t18.5 -45zM823 571q0 -26 -18.5 -44.5t-44.5 -18.5t-45 18.5t-19 44.5t19 45t45 19t44.5 -19t18.5 -45zM823 1079q0 -26 -18.5 -44.5t-44.5 -18.5t-45 18.5t-19 44.5t19 45t45 19t44.5 -19t18.5 -45z M823 190q0 -26 -18.5 -44.5t-44.5 -18.5t-45 18.5t-19 44.5t19 45t45 19t44.5 -19t18.5 -45z" />
<glyph unicode="T" horiz-adv-x="716" d="M295 1206q0 -26 -19 -44.5t-45 -18.5t-44.5 18.5t-18.5 44.5t18.5 45t44.5 19t45 -19t19 -45zM422 63q0 -26 -19 -44.5t-45 -18.5t-44.5 18.5t-18.5 44.5t18.5 45t44.5 19t45 -19t19 -45zM422 952q0 -26 -19 -44.5t-45 -18.5t-44.5 18.5t-18.5 44.5t18.5 45t44.5 19 t45 -19t19 -45zM422 1079q0 -26 -19 -44.5t-45 -18.5t-44.5 18.5t-18.5 44.5t18.5 45t44.5 19t45 -19t19 -45zM422 1206q0 -26 -19 -44.5t-45 -18.5t-44.5 18.5t-18.5 44.5t18.5 45t44.5 19t45 -19t19 -45zM422 190q0 -26 -19 -44.5t-45 -18.5t-44.5 18.5t-18.5 44.5 t18.5 45t44.5 19t45 -19t19 -45zM549 1206q0 -26 -19 -44.5t-45 -18.5t-44.5 18.5t-18.5 44.5t18.5 45t44.5 19t45 -19t19 -45zM422 317q0 -26 -19 -44.5t-45 -18.5t-44.5 18.5t-18.5 44.5t18.5 45t44.5 19t45 -19t19 -45zM422 444q0 -26 -19 -44.5t-45 -18.5t-44.5 18.5 t-18.5 44.5t18.5 45t44.5 19t45 -19t19 -45zM422 571q0 -26 -19 -44.5t-45 -18.5t-44.5 18.5t-18.5 44.5t18.5 45t44.5 19t45 -19t19 -45zM422 698q0 -26 -19 -44.5t-45 -18.5t-44.5 18.5t-18.5 44.5t18.5 45t44.5 19t45 -19t19 -45zM422 825q0 -26 -19 -44.5t-45 -18.5 t-44.5 18.5t-18.5 44.5t18.5 45t44.5 19t45 -19t19 -45zM676 1206q0 -26 -19 -44.5t-45 -18.5t-44.5 18.5t-18.5 44.5t18.5 45t44.5 19t45 -19t19 -45zM168 1206q0 -26 -19 -44.5t-45 -18.5t-44.5 18.5t-18.5 44.5t18.5 45t44.5 19t45 -19t19 -45z" />
<glyph unicode="U" horiz-adv-x="1007" d="M250 317q0 -26 -19 -44.5t-45 -18.5t-44.5 18.5t-18.5 44.5t18.5 45t44.5 19t45 -19t19 -45zM250 444q0 -26 -19 -44.5t-45 -18.5t-44.5 18.5t-18.5 44.5t18.5 45t44.5 19t45 -19t19 -45zM250 571q0 -26 -19 -44.5t-45 -18.5t-44.5 18.5t-18.5 44.5t18.5 45t44.5 19 t45 -19t19 -45zM250 698q0 -26 -19 -44.5t-45 -18.5t-44.5 18.5t-18.5 44.5t18.5 45t44.5 19t45 -19t19 -45zM250 825q0 -26 -19 -44.5t-45 -18.5t-44.5 18.5t-18.5 44.5t18.5 45t44.5 19t45 -19t19 -45zM250 952q0 -26 -19 -44.5t-45 -18.5t-44.5 18.5t-18.5 44.5t18.5 45 t44.5 19t45 -19t19 -45zM250 1079q0 -26 -19 -44.5t-45 -18.5t-44.5 18.5t-18.5 44.5t18.5 45t44.5 19t45 -19t19 -45zM250 190q0 -26 -19 -44.5t-45 -18.5t-44.5 18.5t-18.5 44.5t18.5 45t44.5 19t45 -19t19 -45zM377 63q0 -26 -19 -44.5t-45 -18.5t-44.5 18.5t-18.5 44.5 t18.5 45t44.5 19t45 -19t19 -45zM504 63q0 -26 -19 -44.5t-45 -18.5t-44.5 18.5t-18.5 44.5t18.5 45t44.5 19t45 -19t19 -45zM631 63q0 -26 -19 -44.5t-45 -18.5t-44.5 18.5t-18.5 44.5t18.5 45t44.5 19t45 -19t19 -45zM758 63q0 -26 -19 -44.5t-45 -18.5t-44.5 18.5 t-18.5 44.5t18.5 45t44.5 19t45 -19t19 -45zM885 952q0 -26 -19 -44.5t-45 -18.5t-44.5 18.5t-18.5 44.5t18.5 45t44.5 19t45 -19t19 -45zM885 1079q0 -26 -19 -44.5t-45 -18.5t-44.5 18.5t-18.5 44.5t18.5 45t44.5 19t45 -19t19 -45zM885 190q0 -26 -19 -44.5t-45 -18.5 t-44.5 18.5t-18.5 44.5t18.5 45t44.5 19t45 -19t19 -45zM885 317q0 -26 -19 -44.5t-45 -18.5t-44.5 18.5t-18.5 44.5t18.5 45t44.5 19t45 -19t19 -45zM885 444q0 -26 -19 -44.5t-45 -18.5t-44.5 18.5t-18.5 44.5t18.5 45t44.5 19t45 -19t19 -45zM885 571q0 -26 -19 -44.5 t-45 -18.5t-44.5 18.5t-18.5 44.5t18.5 45t44.5 19t45 -19t19 -45zM885 698q0 -26 -19 -44.5t-45 -18.5t-44.5 18.5t-18.5 44.5t18.5 45t44.5 19t45 -19t19 -45zM885 825q0 -26 -19 -44.5t-45 -18.5t-44.5 18.5t-18.5 44.5t18.5 45t44.5 19t45 -19t19 -45zM250 1206 q0 -26 -19 -44.5t-45 -18.5t-44.5 18.5t-18.5 44.5t18.5 45t44.5 19t45 -19t19 -45zM885 1206q0 -26 -19 -44.5t-45 -18.5t-44.5 18.5t-18.5 44.5t18.5 45t44.5 19t45 -19t19 -45z" />
<glyph unicode="V" horiz-adv-x="925" d="M590 63q0 -26 -19 -44.5t-45 -18.5t-44.5 18.5t-18.5 44.5t18.5 45t44.5 19t45 -19t19 -45zM717 190q0 -26 -19 -44.5t-45 -18.5t-44.5 18.5t-18.5 44.5t18.5 45t44.5 19t45 -19t19 -45zM717 317q0 -26 -19 -44.5t-45 -18.5t-44.5 18.5t-18.5 44.5t18.5 45t44.5 19 t45 -19t19 -45zM717 444q0 -26 -19 -44.5t-45 -18.5t-44.5 18.5t-18.5 44.5t18.5 45t44.5 19t45 -19t19 -45zM717 571q0 -26 -19 -44.5t-45 -18.5t-44.5 18.5t-18.5 44.5t18.5 45t44.5 19t45 -19t19 -45zM844 698q0 -26 -19 -44.5t-45 -18.5t-44.5 18.5t-18.5 44.5t18.5 45 t44.5 19t45 -19t19 -45zM844 825q0 -26 -19 -44.5t-45 -18.5t-44.5 18.5t-18.5 44.5t18.5 45t44.5 19t45 -19t19 -45zM844 952q0 -26 -19 -44.5t-45 -18.5t-44.5 18.5t-18.5 44.5t18.5 45t44.5 19t45 -19t19 -45zM844 1079q0 -26 -19 -44.5t-45 -18.5t-44.5 18.5t-18.5 44.5 t18.5 45t44.5 19t45 -19t19 -45zM844 1206q0 -26 -19 -44.5t-45 -18.5t-44.5 18.5t-18.5 44.5t18.5 45t44.5 19t45 -19t19 -45zM336 63q0 26 18.5 45t44.5 19t45 -19t19 -45t-19 -44.5t-45 -18.5t-44.5 18.5t-18.5 44.5zM209 190q0 26 18.5 45t44.5 19t45 -19t19 -45 t-19 -44.5t-45 -18.5t-44.5 18.5t-18.5 44.5zM209 317q0 26 18.5 45t44.5 19t45 -19t19 -45t-19 -44.5t-45 -18.5t-44.5 18.5t-18.5 44.5zM209 444q0 26 18.5 45t44.5 19t45 -19t19 -45t-19 -44.5t-45 -18.5t-44.5 18.5t-18.5 44.5zM209 571q0 26 18.5 45t44.5 19t45 -19 t19 -45t-19 -44.5t-45 -18.5t-44.5 18.5t-18.5 44.5zM82 698q0 26 18.5 45t44.5 19t45 -19t19 -45t-19 -44.5t-45 -18.5t-44.5 18.5t-18.5 44.5zM82 825q0 26 18.5 45t44.5 19t45 -19t19 -45t-19 -44.5t-45 -18.5t-44.5 18.5t-18.5 44.5zM82 952q0 26 18.5 45t44.5 19 t45 -19t19 -45t-19 -44.5t-45 -18.5t-44.5 18.5t-18.5 44.5zM82 1079q0 26 18.5 45t44.5 19t45 -19t19 -45t-19 -44.5t-45 -18.5t-44.5 18.5t-18.5 44.5zM82 1206q0 26 18.5 45t44.5 19t45 -19t19 -45t-19 -44.5t-45 -18.5t-44.5 18.5t-18.5 44.5z" />
<glyph unicode="W" horiz-adv-x="1388" d="M250 317q0 -26 -19 -44.5t-45 -18.5t-44.5 18.5t-18.5 44.5t18.5 45t44.5 19t45 -19t19 -45zM250 444q0 -26 -19 -44.5t-45 -18.5t-44.5 18.5t-18.5 44.5t18.5 45t44.5 19t45 -19t19 -45zM250 571q0 -26 -19 -44.5t-45 -18.5t-44.5 18.5t-18.5 44.5t18.5 45t44.5 19 t45 -19t19 -45zM250 698q0 -26 -19 -44.5t-45 -18.5t-44.5 18.5t-18.5 44.5t18.5 45t44.5 19t45 -19t19 -45zM250 825q0 -26 -19 -44.5t-45 -18.5t-44.5 18.5t-18.5 44.5t18.5 45t44.5 19t45 -19t19 -45zM250 952q0 -26 -19 -44.5t-45 -18.5t-44.5 18.5t-18.5 44.5t18.5 45 t44.5 19t45 -19t19 -45zM250 1079q0 -26 -19 -44.5t-45 -18.5t-44.5 18.5t-18.5 44.5t18.5 45t44.5 19t45 -19t19 -45zM250 1206q0 -26 -19 -44.5t-45 -18.5t-44.5 18.5t-18.5 44.5t18.5 45t44.5 19t45 -19t19 -45zM250 190q0 -26 -19 -44.5t-45 -18.5t-44.5 18.5 t-18.5 44.5t18.5 45t44.5 19t45 -19t19 -45zM377 63q0 -26 -19 -44.5t-45 -18.5t-44.5 18.5t-18.5 44.5t18.5 45t44.5 19t45 -19t19 -45zM504 63q0 -26 -19 -44.5t-45 -18.5t-44.5 18.5t-18.5 44.5t18.5 45t44.5 19t45 -19t19 -45zM631 190q0 -26 -19 -44.5t-45 -18.5 t-44.5 18.5t-18.5 44.5t18.5 45t44.5 19t45 -19t19 -45zM1139 317q0 26 18.5 45t44.5 19t45 -19t19 -45t-19 -44.5t-45 -18.5t-44.5 18.5t-18.5 44.5zM1139 444q0 26 18.5 45t44.5 19t45 -19t19 -45t-19 -44.5t-45 -18.5t-44.5 18.5t-18.5 44.5zM1139 571q0 26 18.5 45 t44.5 19t45 -19t19 -45t-19 -44.5t-45 -18.5t-44.5 18.5t-18.5 44.5zM1139 698q0 26 18.5 45t44.5 19t45 -19t19 -45t-19 -44.5t-45 -18.5t-44.5 18.5t-18.5 44.5zM1139 825q0 26 18.5 45t44.5 19t45 -19t19 -45t-19 -44.5t-45 -18.5t-44.5 18.5t-18.5 44.5zM1139 952 q0 26 18.5 45t44.5 19t45 -19t19 -45t-19 -44.5t-45 -18.5t-44.5 18.5t-18.5 44.5zM1139 1079q0 26 18.5 45t44.5 19t45 -19t19 -45t-19 -44.5t-45 -18.5t-44.5 18.5t-18.5 44.5zM1139 1206q0 26 18.5 45t44.5 19t45 -19t19 -45t-19 -44.5t-45 -18.5t-44.5 18.5t-18.5 44.5z M1139 190q0 26 18.5 45t44.5 19t45 -19t19 -45t-19 -44.5t-45 -18.5t-44.5 18.5t-18.5 44.5zM1012 63q0 26 18.5 45t44.5 19t45 -19t19 -45t-19 -44.5t-45 -18.5t-44.5 18.5t-18.5 44.5zM885 63q0 26 18.5 45t44.5 19t45 -19t19 -45t-19 -44.5t-45 -18.5t-44.5 18.5 t-18.5 44.5zM758 190q0 26 18.5 45t44.5 19t45 -19t19 -45t-19 -44.5t-45 -18.5t-44.5 18.5t-18.5 44.5zM631 952q0 26 18.5 45t44.5 19t45 -19t19 -45t-19 -44.5t-45 -18.5t-44.5 18.5t-18.5 44.5zM631 1079q0 26 18.5 45t44.5 19t45 -19t19 -45t-19 -44.5t-45 -18.5 t-44.5 18.5t-18.5 44.5zM631 317q0 26 18.5 45t44.5 19t45 -19t19 -45t-19 -44.5t-45 -18.5t-44.5 18.5t-18.5 44.5zM631 444q0 26 18.5 45t44.5 19t45 -19t19 -45t-19 -44.5t-45 -18.5t-44.5 18.5t-18.5 44.5zM631 571q0 26 18.5 45t44.5 19t45 -19t19 -45t-19 -44.5 t-45 -18.5t-44.5 18.5t-18.5 44.5zM631 698q0 26 18.5 45t44.5 19t45 -19t19 -45t-19 -44.5t-45 -18.5t-44.5 18.5t-18.5 44.5zM631 825q0 26 18.5 45t44.5 19t45 -19t19 -45t-19 -44.5t-45 -18.5t-44.5 18.5t-18.5 44.5z" />
<glyph unicode="X" d="M229 63q0 -26 -18.5 -44.5t-44.5 -18.5t-45 18.5t-19 44.5t19 45t45 19t44.5 -19t18.5 -45zM229 317q0 -26 -18.5 -44.5t-44.5 -18.5t-45 18.5t-19 44.5t19 45t45 19t44.5 -19t18.5 -45zM229 952q0 -26 -18.5 -44.5t-44.5 -18.5t-45 18.5t-19 44.5t19 45t45 19t44.5 -19 t18.5 -45zM229 1079q0 -26 -18.5 -44.5t-44.5 -18.5t-45 18.5t-19 44.5t19 45t45 19t44.5 -19t18.5 -45zM229 1206q0 -26 -18.5 -44.5t-44.5 -18.5t-45 18.5t-19 44.5t19 45t45 19t44.5 -19t18.5 -45zM229 190q0 -26 -18.5 -44.5t-44.5 -18.5t-45 18.5t-19 44.5t19 45t45 19 t44.5 -19t18.5 -45zM864 63q0 -26 -18.5 -44.5t-44.5 -18.5t-45 18.5t-19 44.5t19 45t45 19t44.5 -19t18.5 -45zM864 952q0 -26 -18.5 -44.5t-44.5 -18.5t-45 18.5t-19 44.5t19 45t45 19t44.5 -19t18.5 -45zM864 1079q0 -26 -18.5 -44.5t-44.5 -18.5t-45 18.5t-19 44.5 t19 45t45 19t44.5 -19t18.5 -45zM864 1206q0 -26 -18.5 -44.5t-44.5 -18.5t-45 18.5t-19 44.5t19 45t45 19t44.5 -19t18.5 -45zM864 190q0 -26 -18.5 -44.5t-44.5 -18.5t-45 18.5t-19 44.5t19 45t45 19t44.5 -19t18.5 -45zM356 444q0 -26 -18.5 -44.5t-44.5 -18.5t-45 18.5 t-19 44.5t19 45t45 19t44.5 -19t18.5 -45zM356 825q0 -26 -18.5 -44.5t-44.5 -18.5t-45 18.5t-19 44.5t19 45t45 19t44.5 -19t18.5 -45zM483 571q0 -26 -18.5 -44.5t-44.5 -18.5t-45 18.5t-19 44.5t19 45t45 19t44.5 -19t18.5 -45zM483 698q0 -26 -18.5 -44.5t-44.5 -18.5 t-45 18.5t-19 44.5t19 45t45 19t44.5 -19t18.5 -45zM610 571q0 -26 -18.5 -44.5t-44.5 -18.5t-45 18.5t-19 44.5t19 45t45 19t44.5 -19t18.5 -45zM610 698q0 -26 -18.5 -44.5t-44.5 -18.5t-45 18.5t-19 44.5t19 45t45 19t44.5 -19t18.5 -45zM737 444q0 -26 -18.5 -44.5 t-44.5 -18.5t-45 18.5t-19 44.5t19 45t45 19t44.5 -19t18.5 -45zM737 825q0 -26 -18.5 -44.5t-44.5 -18.5t-45 18.5t-19 44.5t19 45t45 19t44.5 -19t18.5 -45zM864 317q0 -26 -18.5 -44.5t-44.5 -18.5t-45 18.5t-19 44.5t19 45t45 19t44.5 -19t18.5 -45z" />
<glyph unicode="Y" horiz-adv-x="970" d="M168 1079q0 -26 -19 -44.5t-45 -18.5t-44.5 18.5t-18.5 44.5t18.5 45t44.5 19t45 -19t19 -45zM168 1206q0 -26 -19 -44.5t-45 -18.5t-44.5 18.5t-18.5 44.5t18.5 45t44.5 19t45 -19t19 -45zM295 952q0 -26 -19 -44.5t-45 -18.5t-44.5 18.5t-18.5 44.5t18.5 45t44.5 19 t45 -19t19 -45zM549 63q0 -26 -19 -44.5t-45 -18.5t-44.5 18.5t-18.5 44.5t18.5 45t44.5 19t45 -19t19 -45zM549 190q0 -26 -19 -44.5t-45 -18.5t-44.5 18.5t-18.5 44.5t18.5 45t44.5 19t45 -19t19 -45zM803 952q0 -26 -19 -44.5t-45 -18.5t-44.5 18.5t-18.5 44.5t18.5 45 t44.5 19t45 -19t19 -45zM930 1079q0 -26 -19 -44.5t-45 -18.5t-44.5 18.5t-18.5 44.5t18.5 45t44.5 19t45 -19t19 -45zM930 1206q0 -26 -19 -44.5t-45 -18.5t-44.5 18.5t-18.5 44.5t18.5 45t44.5 19t45 -19t19 -45zM422 825q0 -26 -19 -44.5t-45 -18.5t-44.5 18.5 t-18.5 44.5t18.5 45t44.5 19t45 -19t19 -45zM549 317q0 -26 -19 -44.5t-45 -18.5t-44.5 18.5t-18.5 44.5t18.5 45t44.5 19t45 -19t19 -45zM549 444q0 -26 -19 -44.5t-45 -18.5t-44.5 18.5t-18.5 44.5t18.5 45t44.5 19t45 -19t19 -45zM549 571q0 -26 -19 -44.5t-45 -18.5 t-44.5 18.5t-18.5 44.5t18.5 45t44.5 19t45 -19t19 -45zM549 698q0 -26 -19 -44.5t-45 -18.5t-44.5 18.5t-18.5 44.5t18.5 45t44.5 19t45 -19t19 -45zM676 825q0 -26 -19 -44.5t-45 -18.5t-44.5 18.5t-18.5 44.5t18.5 45t44.5 19t45 -19t19 -45z" />
<glyph unicode="Z" horiz-adv-x="884" d="M188 63q0 -26 -18.5 -44.5t-44.5 -18.5t-45 18.5t-19 44.5t19 45t45 19t44.5 -19t18.5 -45zM188 1206q0 -26 -18.5 -44.5t-44.5 -18.5t-45 18.5t-19 44.5t19 45t45 19t44.5 -19t18.5 -45zM188 190q0 -26 -18.5 -44.5t-44.5 -18.5t-45 18.5t-19 44.5t19 45t45 19t44.5 -19 t18.5 -45zM315 63q0 -26 -18.5 -44.5t-44.5 -18.5t-45 18.5t-19 44.5t19 45t45 19t44.5 -19t18.5 -45zM315 1206q0 -26 -18.5 -44.5t-44.5 -18.5t-45 18.5t-19 44.5t19 45t45 19t44.5 -19t18.5 -45zM442 63q0 -26 -18.5 -44.5t-44.5 -18.5t-45 18.5t-19 44.5t19 45t45 19 t44.5 -19t18.5 -45zM442 1206q0 -26 -18.5 -44.5t-44.5 -18.5t-45 18.5t-19 44.5t19 45t45 19t44.5 -19t18.5 -45zM569 63q0 -26 -18.5 -44.5t-44.5 -18.5t-45 18.5t-19 44.5t19 45t45 19t44.5 -19t18.5 -45zM569 1206q0 -26 -18.5 -44.5t-44.5 -18.5t-45 18.5t-19 44.5 t19 45t45 19t44.5 -19t18.5 -45zM696 63q0 -26 -18.5 -44.5t-44.5 -18.5t-45 18.5t-19 44.5t19 45t45 19t44.5 -19t18.5 -45zM696 952q0 -26 -18.5 -44.5t-44.5 -18.5t-45 18.5t-19 44.5t19 45t45 19t44.5 -19t18.5 -45zM696 1206q0 -26 -18.5 -44.5t-44.5 -18.5t-45 18.5 t-19 44.5t19 45t45 19t44.5 -19t18.5 -45zM823 63q0 -26 -18.5 -44.5t-44.5 -18.5t-45 18.5t-19 44.5t19 45t45 19t44.5 -19t18.5 -45zM823 1079q0 -26 -18.5 -44.5t-44.5 -18.5t-45 18.5t-19 44.5t19 45t45 19t44.5 -19t18.5 -45zM823 1206q0 -26 -18.5 -44.5t-44.5 -18.5 t-45 18.5t-19 44.5t19 45t45 19t44.5 -19t18.5 -45zM315 317q0 -26 -18.5 -44.5t-44.5 -18.5t-45 18.5t-19 44.5t19 45t45 19t44.5 -19t18.5 -45zM315 444q0 -26 -18.5 -44.5t-44.5 -18.5t-45 18.5t-19 44.5t19 45t45 19t44.5 -19t18.5 -45zM442 571q0 -26 -18.5 -44.5 t-44.5 -18.5t-45 18.5t-19 44.5t19 45t45 19t44.5 -19t18.5 -45zM569 698q0 -26 -18.5 -44.5t-44.5 -18.5t-45 18.5t-19 44.5t19 45t45 19t44.5 -19t18.5 -45zM696 825q0 -26 -18.5 -44.5t-44.5 -18.5t-45 18.5t-19 44.5t19 45t45 19t44.5 -19t18.5 -45z" />
<glyph unicode="[" horiz-adv-x="417" d="M209 63q0 -26 -19 -44.5t-45 -18.5t-44.5 18.5t-18.5 44.5t18.5 45t44.5 19t45 -19t19 -45zM209 317q0 -26 -19 -44.5t-45 -18.5t-44.5 18.5t-18.5 44.5t18.5 45t44.5 19t45 -19t19 -45zM209 444q0 -26 -19 -44.5t-45 -18.5t-44.5 18.5t-18.5 44.5t18.5 45t44.5 19 t45 -19t19 -45zM209 571q0 -26 -19 -44.5t-45 -18.5t-44.5 18.5t-18.5 44.5t18.5 45t44.5 19t45 -19t19 -45zM209 698q0 -26 -19 -44.5t-45 -18.5t-44.5 18.5t-18.5 44.5t18.5 45t44.5 19t45 -19t19 -45zM209 825q0 -26 -19 -44.5t-45 -18.5t-44.5 18.5t-18.5 44.5t18.5 45 t44.5 19t45 -19t19 -45zM209 952q0 -26 -19 -44.5t-45 -18.5t-44.5 18.5t-18.5 44.5t18.5 45t44.5 19t45 -19t19 -45zM209 1079q0 -26 -19 -44.5t-45 -18.5t-44.5 18.5t-18.5 44.5t18.5 45t44.5 19t45 -19t19 -45zM209 1206q0 -26 -19 -44.5t-45 -18.5t-44.5 18.5 t-18.5 44.5t18.5 45t44.5 19t45 -19t19 -45zM209 190q0 -26 -19 -44.5t-45 -18.5t-44.5 18.5t-18.5 44.5t18.5 45t44.5 19t45 -19t19 -45zM336 63q0 -26 -19 -44.5t-45 -18.5t-44.5 18.5t-18.5 44.5t18.5 45t44.5 19t45 -19t19 -45zM336 1206q0 -26 -19 -44.5t-45 -18.5 t-44.5 18.5t-18.5 44.5t18.5 45t44.5 19t45 -19t19 -45z" />
<glyph unicode="\" horiz-adv-x="507" d="M381 63q0 26 18.5 45t44.5 19t45 -19t19 -45t-19 -44.5t-45 -18.5t-44.5 18.5t-18.5 44.5zM381 190q0 26 18.5 45t44.5 19t45 -19t19 -45t-19 -44.5t-45 -18.5t-44.5 18.5t-18.5 44.5zM254 317q0 26 18.5 45t44.5 19t45 -19t19 -45t-19 -44.5t-45 -18.5t-44.5 18.5 t-18.5 44.5zM254 444q0 26 18.5 45t44.5 19t45 -19t19 -45t-19 -44.5t-45 -18.5t-44.5 18.5t-18.5 44.5zM254 571q0 26 18.5 45t44.5 19t45 -19t19 -45t-19 -44.5t-45 -18.5t-44.5 18.5t-18.5 44.5zM127 698q0 26 18.5 45t44.5 19t45 -19t19 -45t-19 -44.5t-45 -18.5 t-44.5 18.5t-18.5 44.5zM127 825q0 26 18.5 45t44.5 19t45 -19t19 -45t-19 -44.5t-45 -18.5t-44.5 18.5t-18.5 44.5zM127 952q0 26 18.5 45t44.5 19t45 -19t19 -45t-19 -44.5t-45 -18.5t-44.5 18.5t-18.5 44.5zM0 1079q0 26 18.5 45t44.5 19t45 -19t19 -45t-19 -44.5 t-45 -18.5t-44.5 18.5t-18.5 44.5zM0 1206q0 26 18.5 45t44.5 19t45 -19t19 -45t-19 -44.5t-45 -18.5t-44.5 18.5t-18.5 44.5z" />
<glyph unicode="]" horiz-adv-x="417" d="M209 63q0 26 18.5 45t44.5 19t45 -19t19 -45t-19 -44.5t-45 -18.5t-44.5 18.5t-18.5 44.5zM209 317q0 26 18.5 45t44.5 19t45 -19t19 -45t-19 -44.5t-45 -18.5t-44.5 18.5t-18.5 44.5zM209 444q0 26 18.5 45t44.5 19t45 -19t19 -45t-19 -44.5t-45 -18.5t-44.5 18.5 t-18.5 44.5zM209 571q0 26 18.5 45t44.5 19t45 -19t19 -45t-19 -44.5t-45 -18.5t-44.5 18.5t-18.5 44.5zM209 698q0 26 18.5 45t44.5 19t45 -19t19 -45t-19 -44.5t-45 -18.5t-44.5 18.5t-18.5 44.5zM209 825q0 26 18.5 45t44.5 19t45 -19t19 -45t-19 -44.5t-45 -18.5 t-44.5 18.5t-18.5 44.5zM209 952q0 26 18.5 45t44.5 19t45 -19t19 -45t-19 -44.5t-45 -18.5t-44.5 18.5t-18.5 44.5zM209 1079q0 26 18.5 45t44.5 19t45 -19t19 -45t-19 -44.5t-45 -18.5t-44.5 18.5t-18.5 44.5zM209 1206q0 26 18.5 45t44.5 19t45 -19t19 -45t-19 -44.5 t-45 -18.5t-44.5 18.5t-18.5 44.5zM209 190q0 26 18.5 45t44.5 19t45 -19t19 -45t-19 -44.5t-45 -18.5t-44.5 18.5t-18.5 44.5zM82 63q0 26 18.5 45t44.5 19t45 -19t19 -45t-19 -44.5t-45 -18.5t-44.5 18.5t-18.5 44.5zM82 1206q0 26 18.5 45t44.5 19t45 -19t19 -45 t-19 -44.5t-45 -18.5t-44.5 18.5t-18.5 44.5z" />
<glyph unicode="^" horiz-adv-x="544" d="M209 1079q0 -26 -19 -44.5t-45 -18.5t-44.5 18.5t-18.5 44.5t18.5 45t44.5 19t45 -19t19 -45zM336 1079q0 26 18.5 45t44.5 19t45 -19t19 -45t-19 -44.5t-45 -18.5t-44.5 18.5t-18.5 44.5zM209 1206q0 26 18.5 45t44.5 19t45 -19t19 -45t-19 -44.5t-45 -18.5t-44.5 18.5 t-18.5 44.5z" />
<glyph unicode="_" horiz-adv-x="507" d="M254 -63q0 -26 -19 -45t-45 -19t-44.5 19t-18.5 45t18.5 44.5t44.5 18.5t45 -18.5t19 -44.5zM381 -63q0 -26 -19 -45t-45 -19t-44.5 19t-18.5 45t18.5 44.5t44.5 18.5t45 -18.5t19 -44.5zM508 -63q0 -26 -19 -45t-45 -19t-44.5 19t-18.5 45t18.5 44.5t44.5 18.5t45 -18.5 t19 -44.5zM127 -63q0 -26 -19 -45t-45 -19t-44.5 19t-18.5 45t18.5 44.5t44.5 18.5t45 -18.5t19 -44.5z" />
<glyph unicode="`" horiz-adv-x="358" d="M127 1028q0 26 18.5 45t44.5 19t45 -19t19 -45t-19 -44.5t-45 -18.5t-44.5 18.5t-18.5 44.5zM41 1186q0 34 25.5 59t60.5 25t60.5 -25t25.5 -59q0 -35 -25.5 -60.5t-60.5 -25.5t-60.5 25.5t-25.5 60.5zM199 918q0 15 12 25.5t27 10.5t26.5 -10.5t11.5 -25.5 q0 -17 -11.5 -28t-26.5 -11q-16 0 -27.5 11t-11.5 28z" />
<glyph unicode="a" d="M229 317q0 -26 -18.5 -44.5t-44.5 -18.5t-45 18.5t-19 44.5t19 45t45 19t44.5 -19t18.5 -45zM229 444q0 -26 -18.5 -44.5t-44.5 -18.5t-45 18.5t-19 44.5t19 45t45 19t44.5 -19t18.5 -45zM229 571q0 -26 -18.5 -44.5t-44.5 -18.5t-45 18.5t-19 44.5t19 45t45 19t44.5 -19 t18.5 -45zM229 698q0 -26 -18.5 -44.5t-44.5 -18.5t-45 18.5t-19 44.5t19 45t45 19t44.5 -19t18.5 -45zM229 190q0 -26 -18.5 -44.5t-44.5 -18.5t-45 18.5t-19 44.5t19 45t45 19t44.5 -19t18.5 -45zM356 63q0 -26 -18.5 -44.5t-44.5 -18.5t-45 18.5t-19 44.5t19 45t45 19 t44.5 -19t18.5 -45zM483 63q0 -26 -18.5 -44.5t-44.5 -18.5t-45 18.5t-19 44.5t19 45t45 19t44.5 -19t18.5 -45zM610 63q0 -26 -18.5 -44.5t-44.5 -18.5t-45 18.5t-19 44.5t19 45t45 19t44.5 -19t18.5 -45zM737 190q0 -26 -18.5 -44.5t-44.5 -18.5t-45 18.5t-19 44.5t19 45 t45 19t44.5 -19t18.5 -45zM864 63q0 -26 -18.5 -44.5t-44.5 -18.5t-45 18.5t-19 44.5t19 45t45 19t44.5 -19t18.5 -45zM864 190q0 -26 -18.5 -44.5t-44.5 -18.5t-45 18.5t-19 44.5t19 45t45 19t44.5 -19t18.5 -45zM356 825q0 -26 -18.5 -44.5t-44.5 -18.5t-45 18.5t-19 44.5 t19 45t45 19t44.5 -19t18.5 -45zM483 825q0 -26 -18.5 -44.5t-44.5 -18.5t-45 18.5t-19 44.5t19 45t45 19t44.5 -19t18.5 -45zM610 825q0 -26 -18.5 -44.5t-44.5 -18.5t-45 18.5t-19 44.5t19 45t45 19t44.5 -19t18.5 -45zM737 825q0 -26 -18.5 -44.5t-44.5 -18.5t-45 18.5 t-19 44.5t19 45t45 19t44.5 -19t18.5 -45zM864 317q0 -26 -18.5 -44.5t-44.5 -18.5t-45 18.5t-19 44.5t19 45t45 19t44.5 -19t18.5 -45zM864 444q0 -26 -18.5 -44.5t-44.5 -18.5t-45 18.5t-19 44.5t19 45t45 19t44.5 -19t18.5 -45zM864 571q0 -26 -18.5 -44.5t-44.5 -18.5 t-45 18.5t-19 44.5t19 45t45 19t44.5 -19t18.5 -45zM864 698q0 -26 -18.5 -44.5t-44.5 -18.5t-45 18.5t-19 44.5t19 45t45 19t44.5 -19t18.5 -45z" />
<glyph unicode="b" d="M229 317q0 -26 -18.5 -44.5t-44.5 -18.5t-45 18.5t-19 44.5t19 45t45 19t44.5 -19t18.5 -45zM229 444q0 -26 -18.5 -44.5t-44.5 -18.5t-45 18.5t-19 44.5t19 45t45 19t44.5 -19t18.5 -45zM229 571q0 -26 -18.5 -44.5t-44.5 -18.5t-45 18.5t-19 44.5t19 45t45 19t44.5 -19 t18.5 -45zM229 698q0 -26 -18.5 -44.5t-44.5 -18.5t-45 18.5t-19 44.5t19 45t45 19t44.5 -19t18.5 -45zM229 825q0 -26 -18.5 -44.5t-44.5 -18.5t-45 18.5t-19 44.5t19 45t45 19t44.5 -19t18.5 -45zM229 952q0 -26 -18.5 -44.5t-44.5 -18.5t-45 18.5t-19 44.5t19 45t45 19 t44.5 -19t18.5 -45zM229 1079q0 -26 -18.5 -44.5t-44.5 -18.5t-45 18.5t-19 44.5t19 45t45 19t44.5 -19t18.5 -45zM229 1206q0 -26 -18.5 -44.5t-44.5 -18.5t-45 18.5t-19 44.5t19 45t45 19t44.5 -19t18.5 -45zM229 190q0 -26 -18.5 -44.5t-44.5 -18.5t-45 18.5t-19 44.5 t19 45t45 19t44.5 -19t18.5 -45zM356 63q0 -26 -18.5 -44.5t-44.5 -18.5t-45 18.5t-19 44.5t19 45t45 19t44.5 -19t18.5 -45zM483 63q0 -26 -18.5 -44.5t-44.5 -18.5t-45 18.5t-19 44.5t19 45t45 19t44.5 -19t18.5 -45zM610 63q0 -26 -18.5 -44.5t-44.5 -18.5t-45 18.5 t-19 44.5t19 45t45 19t44.5 -19t18.5 -45zM737 63q0 -26 -18.5 -44.5t-44.5 -18.5t-45 18.5t-19 44.5t19 45t45 19t44.5 -19t18.5 -45zM864 190q0 -26 -18.5 -44.5t-44.5 -18.5t-45 18.5t-19 44.5t19 45t45 19t44.5 -19t18.5 -45zM356 698q0 -26 -18.5 -44.5t-44.5 -18.5 t-45 18.5t-19 44.5t19 45t45 19t44.5 -19t18.5 -45zM483 825q0 -26 -18.5 -44.5t-44.5 -18.5t-45 18.5t-19 44.5t19 45t45 19t44.5 -19t18.5 -45zM610 825q0 -26 -18.5 -44.5t-44.5 -18.5t-45 18.5t-19 44.5t19 45t45 19t44.5 -19t18.5 -45zM737 825q0 -26 -18.5 -44.5 t-44.5 -18.5t-45 18.5t-19 44.5t19 45t45 19t44.5 -19t18.5 -45zM864 317q0 -26 -18.5 -44.5t-44.5 -18.5t-45 18.5t-19 44.5t19 45t45 19t44.5 -19t18.5 -45zM864 444q0 -26 -18.5 -44.5t-44.5 -18.5t-45 18.5t-19 44.5t19 45t45 19t44.5 -19t18.5 -45zM864 571 q0 -26 -18.5 -44.5t-44.5 -18.5t-45 18.5t-19 44.5t19 45t45 19t44.5 -19t18.5 -45zM864 698q0 -26 -18.5 -44.5t-44.5 -18.5t-45 18.5t-19 44.5t19 45t45 19t44.5 -19t18.5 -45z" />
<glyph unicode="c" horiz-adv-x="905" d="M229 317q0 -26 -18.5 -44.5t-44.5 -18.5t-45 18.5t-19 44.5t19 45t45 19t44.5 -19t18.5 -45zM229 444q0 -26 -18.5 -44.5t-44.5 -18.5t-45 18.5t-19 44.5t19 45t45 19t44.5 -19t18.5 -45zM229 571q0 -26 -18.5 -44.5t-44.5 -18.5t-45 18.5t-19 44.5t19 45t45 19t44.5 -19 t18.5 -45zM229 698q0 -26 -18.5 -44.5t-44.5 -18.5t-45 18.5t-19 44.5t19 45t45 19t44.5 -19t18.5 -45zM229 190q0 -26 -18.5 -44.5t-44.5 -18.5t-45 18.5t-19 44.5t19 45t45 19t44.5 -19t18.5 -45zM356 63q0 -26 -18.5 -44.5t-44.5 -18.5t-45 18.5t-19 44.5t19 45t45 19 t44.5 -19t18.5 -45zM483 63q0 -26 -18.5 -44.5t-44.5 -18.5t-45 18.5t-19 44.5t19 45t45 19t44.5 -19t18.5 -45zM610 63q0 -26 -18.5 -44.5t-44.5 -18.5t-45 18.5t-19 44.5t19 45t45 19t44.5 -19t18.5 -45zM864 63q0 -26 -18.5 -44.5t-44.5 -18.5t-45 18.5t-19 44.5t19 45 t45 19t44.5 -19t18.5 -45zM356 825q0 -26 -18.5 -44.5t-44.5 -18.5t-45 18.5t-19 44.5t19 45t45 19t44.5 -19t18.5 -45zM483 825q0 -26 -18.5 -44.5t-44.5 -18.5t-45 18.5t-19 44.5t19 45t45 19t44.5 -19t18.5 -45zM610 825q0 -26 -18.5 -44.5t-44.5 -18.5t-45 18.5 t-19 44.5t19 45t45 19t44.5 -19t18.5 -45zM737 825q0 -26 -18.5 -44.5t-44.5 -18.5t-45 18.5t-19 44.5t19 45t45 19t44.5 -19t18.5 -45zM864 698q0 -26 -18.5 -44.5t-44.5 -18.5t-45 18.5t-19 44.5t19 45t45 19t44.5 -19t18.5 -45zM737 63q0 -26 -18.5 -44.5t-44.5 -18.5 t-45 18.5t-19 44.5t19 45t45 19t44.5 -19t18.5 -45z" />
<glyph unicode="d" d="M737 317q0 26 19 45t45 19t44.5 -19t18.5 -45t-18.5 -44.5t-44.5 -18.5t-45 18.5t-19 44.5zM737 444q0 26 19 45t45 19t44.5 -19t18.5 -45t-18.5 -44.5t-44.5 -18.5t-45 18.5t-19 44.5zM737 571q0 26 19 45t45 19t44.5 -19t18.5 -45t-18.5 -44.5t-44.5 -18.5t-45 18.5 t-19 44.5zM737 698q0 26 19 45t45 19t44.5 -19t18.5 -45t-18.5 -44.5t-44.5 -18.5t-45 18.5t-19 44.5zM737 825q0 26 19 45t45 19t44.5 -19t18.5 -45t-18.5 -44.5t-44.5 -18.5t-45 18.5t-19 44.5zM737 952q0 26 19 45t45 19t44.5 -19t18.5 -45t-18.5 -44.5t-44.5 -18.5 t-45 18.5t-19 44.5zM737 1079q0 26 19 45t45 19t44.5 -19t18.5 -45t-18.5 -44.5t-44.5 -18.5t-45 18.5t-19 44.5zM737 1206q0 26 19 45t45 19t44.5 -19t18.5 -45t-18.5 -44.5t-44.5 -18.5t-45 18.5t-19 44.5zM737 190q0 26 19 45t45 19t44.5 -19t18.5 -45t-18.5 -44.5 t-44.5 -18.5t-45 18.5t-19 44.5zM610 63q0 26 19 45t45 19t44.5 -19t18.5 -45t-18.5 -44.5t-44.5 -18.5t-45 18.5t-19 44.5zM483 63q0 26 19 45t45 19t44.5 -19t18.5 -45t-18.5 -44.5t-44.5 -18.5t-45 18.5t-19 44.5zM356 63q0 26 19 45t45 19t44.5 -19t18.5 -45 t-18.5 -44.5t-44.5 -18.5t-45 18.5t-19 44.5zM229 63q0 26 19 45t45 19t44.5 -19t18.5 -45t-18.5 -44.5t-44.5 -18.5t-45 18.5t-19 44.5zM102 190q0 26 19 45t45 19t44.5 -19t18.5 -45t-18.5 -44.5t-44.5 -18.5t-45 18.5t-19 44.5zM610 698q0 26 19 45t45 19t44.5 -19 t18.5 -45t-18.5 -44.5t-44.5 -18.5t-45 18.5t-19 44.5zM483 825q0 26 19 45t45 19t44.5 -19t18.5 -45t-18.5 -44.5t-44.5 -18.5t-45 18.5t-19 44.5zM356 825q0 26 19 45t45 19t44.5 -19t18.5 -45t-18.5 -44.5t-44.5 -18.5t-45 18.5t-19 44.5zM229 825q0 26 19 45t45 19 t44.5 -19t18.5 -45t-18.5 -44.5t-44.5 -18.5t-45 18.5t-19 44.5zM102 317q0 26 19 45t45 19t44.5 -19t18.5 -45t-18.5 -44.5t-44.5 -18.5t-45 18.5t-19 44.5zM102 444q0 26 19 45t45 19t44.5 -19t18.5 -45t-18.5 -44.5t-44.5 -18.5t-45 18.5t-19 44.5zM102 571q0 26 19 45 t45 19t44.5 -19t18.5 -45t-18.5 -44.5t-44.5 -18.5t-45 18.5t-19 44.5zM102 698q0 26 19 45t45 19t44.5 -19t18.5 -45t-18.5 -44.5t-44.5 -18.5t-45 18.5t-19 44.5z" />
<glyph unicode="e" horiz-adv-x="946" d="M229 317q0 -26 -18.5 -44.5t-44.5 -18.5t-45 18.5t-19 44.5t19 45t45 19t44.5 -19t18.5 -45zM229 444q0 -26 -18.5 -44.5t-44.5 -18.5t-45 18.5t-19 44.5t19 45t45 19t44.5 -19t18.5 -45zM229 571q0 -26 -18.5 -44.5t-44.5 -18.5t-45 18.5t-19 44.5t19 45t45 19t44.5 -19 t18.5 -45zM229 698q0 -26 -18.5 -44.5t-44.5 -18.5t-45 18.5t-19 44.5t19 45t45 19t44.5 -19t18.5 -45zM229 190q0 -26 -18.5 -44.5t-44.5 -18.5t-45 18.5t-19 44.5t19 45t45 19t44.5 -19t18.5 -45zM356 63q0 -26 -18.5 -44.5t-44.5 -18.5t-45 18.5t-19 44.5t19 45t45 19 t44.5 -19t18.5 -45zM483 63q0 -26 -18.5 -44.5t-44.5 -18.5t-45 18.5t-19 44.5t19 45t45 19t44.5 -19t18.5 -45zM610 63q0 -26 -18.5 -44.5t-44.5 -18.5t-45 18.5t-19 44.5t19 45t45 19t44.5 -19t18.5 -45zM737 63q0 -26 -18.5 -44.5t-44.5 -18.5t-45 18.5t-19 44.5t19 45 t45 19t44.5 -19t18.5 -45zM356 825q0 -26 -18.5 -44.5t-44.5 -18.5t-45 18.5t-19 44.5t19 45t45 19t44.5 -19t18.5 -45zM483 825q0 -26 -18.5 -44.5t-44.5 -18.5t-45 18.5t-19 44.5t19 45t45 19t44.5 -19t18.5 -45zM610 825q0 -26 -18.5 -44.5t-44.5 -18.5t-45 18.5 t-19 44.5t19 45t45 19t44.5 -19t18.5 -45zM737 825q0 -26 -18.5 -44.5t-44.5 -18.5t-45 18.5t-19 44.5t19 45t45 19t44.5 -19t18.5 -45zM864 444q0 -26 -18.5 -44.5t-44.5 -18.5t-45 18.5t-19 44.5t19 45t45 19t44.5 -19t18.5 -45zM864 571q0 -26 -18.5 -44.5t-44.5 -18.5 t-45 18.5t-19 44.5t19 45t45 19t44.5 -19t18.5 -45zM864 698q0 -26 -18.5 -44.5t-44.5 -18.5t-45 18.5t-19 44.5t19 45t45 19t44.5 -19t18.5 -45zM610 444q0 26 19 45t45 19t44.5 -19t18.5 -45t-18.5 -44.5t-44.5 -18.5t-45 18.5t-19 44.5zM483 444q0 26 19 45t45 19 t44.5 -19t18.5 -45t-18.5 -44.5t-44.5 -18.5t-45 18.5t-19 44.5zM356 444q0 26 19 45t45 19t44.5 -19t18.5 -45t-18.5 -44.5t-44.5 -18.5t-45 18.5t-19 44.5zM229 571q0 26 19 45t45 19t44.5 -19t18.5 -45t-18.5 -44.5t-44.5 -18.5t-45 18.5t-19 44.5z" />
<glyph unicode="f" horiz-adv-x="716" d="M168 825q0 -26 -19 -44.5t-45 -18.5t-44.5 18.5t-18.5 44.5t18.5 45t44.5 19t45 -19t19 -45zM422 63q0 -26 -19 -44.5t-45 -18.5t-44.5 18.5t-18.5 44.5t18.5 45t44.5 19t45 -19t19 -45zM422 952q0 -26 -19 -44.5t-45 -18.5t-44.5 18.5t-18.5 44.5t18.5 45t44.5 19 t45 -19t19 -45zM422 1079q0 -26 -19 -44.5t-45 -18.5t-44.5 18.5t-18.5 44.5t18.5 45t44.5 19t45 -19t19 -45zM422 190q0 -26 -19 -44.5t-45 -18.5t-44.5 18.5t-18.5 44.5t18.5 45t44.5 19t45 -19t19 -45zM549 1206q0 -26 -19 -44.5t-45 -18.5t-44.5 18.5t-18.5 44.5 t18.5 45t44.5 19t45 -19t19 -45zM676 1206q0 -26 -19 -44.5t-45 -18.5t-44.5 18.5t-18.5 44.5t18.5 45t44.5 19t45 -19t19 -45zM168 -190q0 -26 -19 -45t-45 -19t-44.5 19t-18.5 45t18.5 44.5t44.5 18.5t45 -18.5t19 -44.5zM295 -190q0 -26 -19 -45t-45 -19t-44.5 19 t-18.5 45t18.5 44.5t44.5 18.5t45 -18.5t19 -44.5zM422 -63q0 -26 -19 -45t-45 -19t-44.5 19t-18.5 45t18.5 44.5t44.5 18.5t45 -18.5t19 -44.5zM295 825q0 -26 -19 -44.5t-45 -18.5t-44.5 18.5t-18.5 44.5t18.5 45t44.5 19t45 -19t19 -45zM422 317q0 -26 -19 -44.5 t-45 -18.5t-44.5 18.5t-18.5 44.5t18.5 45t44.5 19t45 -19t19 -45zM422 444q0 -26 -19 -44.5t-45 -18.5t-44.5 18.5t-18.5 44.5t18.5 45t44.5 19t45 -19t19 -45zM422 571q0 -26 -19 -44.5t-45 -18.5t-44.5 18.5t-18.5 44.5t18.5 45t44.5 19t45 -19t19 -45zM422 698 q0 -26 -19 -44.5t-45 -18.5t-44.5 18.5t-18.5 44.5t18.5 45t44.5 19t45 -19t19 -45zM422 825q0 -26 -19 -44.5t-45 -18.5t-44.5 18.5t-18.5 44.5t18.5 45t44.5 19t45 -19t19 -45zM549 825q0 -26 -19 -44.5t-45 -18.5t-44.5 18.5t-18.5 44.5t18.5 45t44.5 19t45 -19t19 -45z M676 825q0 -26 -19 -44.5t-45 -18.5t-44.5 18.5t-18.5 44.5t18.5 45t44.5 19t45 -19t19 -45z" />
<glyph unicode="g" horiz-adv-x="925" d="M209 -63q0 -26 -19 -45t-45 -19t-44.5 19t-18.5 45t18.5 44.5t44.5 18.5t45 -18.5t19 -44.5zM209 190q0 -26 -19 -44.5t-45 -18.5t-44.5 18.5t-18.5 44.5t18.5 45t44.5 19t45 -19t19 -45zM209 444q0 -26 -19 -44.5t-45 -18.5t-44.5 18.5t-18.5 44.5t18.5 45t44.5 19 t45 -19t19 -45zM209 571q0 -26 -19 -44.5t-45 -18.5t-44.5 18.5t-18.5 44.5t18.5 45t44.5 19t45 -19t19 -45zM209 698q0 -26 -19 -44.5t-45 -18.5t-44.5 18.5t-18.5 44.5t18.5 45t44.5 19t45 -19t19 -45zM209 -190q0 -26 -19 -45t-45 -19t-44.5 19t-18.5 45t18.5 44.5 t44.5 18.5t45 -18.5t19 -44.5zM336 -317q0 -26 -19 -45t-45 -19t-44.5 19t-18.5 45t18.5 44.5t44.5 18.5t45 -18.5t19 -44.5zM336 825q0 -26 -19 -44.5t-45 -18.5t-44.5 18.5t-18.5 44.5t18.5 45t44.5 19t45 -19t19 -45zM463 -317q0 -26 -19 -45t-45 -19t-44.5 19t-18.5 45 t18.5 44.5t44.5 18.5t45 -18.5t19 -44.5zM463 825q0 -26 -19 -44.5t-45 -18.5t-44.5 18.5t-18.5 44.5t18.5 45t44.5 19t45 -19t19 -45zM590 -317q0 -26 -19 -45t-45 -19t-44.5 19t-18.5 45t18.5 44.5t44.5 18.5t45 -18.5t19 -44.5zM590 825q0 -26 -19 -44.5t-45 -18.5 t-44.5 18.5t-18.5 44.5t18.5 45t44.5 19t45 -19t19 -45zM717 -317q0 -26 -19 -45t-45 -19t-44.5 19t-18.5 45t18.5 44.5t44.5 18.5t45 -18.5t19 -44.5zM717 698q0 -26 -19 -44.5t-45 -18.5t-44.5 18.5t-18.5 44.5t18.5 45t44.5 19t45 -19t19 -45zM844 571q0 -26 -19 -44.5 t-45 -18.5t-44.5 18.5t-18.5 44.5t18.5 45t44.5 19t45 -19t19 -45zM844 825q0 -26 -19 -44.5t-45 -18.5t-44.5 18.5t-18.5 44.5t18.5 45t44.5 19t45 -19t19 -45zM844 -190q0 -26 -19 -45t-45 -19t-44.5 19t-18.5 45t18.5 44.5t44.5 18.5t45 -18.5t19 -44.5zM336 63 q0 -26 -19 -44.5t-45 -18.5t-44.5 18.5t-18.5 44.5t18.5 45t44.5 19t45 -19t19 -45zM336 317q0 -26 -19 -44.5t-45 -18.5t-44.5 18.5t-18.5 44.5t18.5 45t44.5 19t45 -19t19 -45zM463 63q0 -26 -19 -44.5t-45 -18.5t-44.5 18.5t-18.5 44.5t18.5 45t44.5 19t45 -19t19 -45z M463 317q0 -26 -19 -44.5t-45 -18.5t-44.5 18.5t-18.5 44.5t18.5 45t44.5 19t45 -19t19 -45zM590 63q0 -26 -19 -44.5t-45 -18.5t-44.5 18.5t-18.5 44.5t18.5 45t44.5 19t45 -19t19 -45zM590 317q0 -26 -19 -44.5t-45 -18.5t-44.5 18.5t-18.5 44.5t18.5 45t44.5 19t45 -19 t19 -45zM717 63q0 -26 -19 -44.5t-45 -18.5t-44.5 18.5t-18.5 44.5t18.5 45t44.5 19t45 -19t19 -45zM717 317q0 -26 -19 -44.5t-45 -18.5t-44.5 18.5t-18.5 44.5t18.5 45t44.5 19t45 -19t19 -45zM844 -63q0 -26 -19 -45t-45 -19t-44.5 19t-18.5 45t18.5 44.5t44.5 18.5 t45 -18.5t19 -44.5zM844 444q0 -26 -19 -44.5t-45 -18.5t-44.5 18.5t-18.5 44.5t18.5 45t44.5 19t45 -19t19 -45z" />
<glyph unicode="h" d="M229 317q0 -26 -18.5 -44.5t-44.5 -18.5t-45 18.5t-19 44.5t19 45t45 19t44.5 -19t18.5 -45zM229 444q0 -26 -18.5 -44.5t-44.5 -18.5t-45 18.5t-19 44.5t19 45t45 19t44.5 -19t18.5 -45zM229 571q0 -26 -18.5 -44.5t-44.5 -18.5t-45 18.5t-19 44.5t19 45t45 19t44.5 -19 t18.5 -45zM229 698q0 -26 -18.5 -44.5t-44.5 -18.5t-45 18.5t-19 44.5t19 45t45 19t44.5 -19t18.5 -45zM229 825q0 -26 -18.5 -44.5t-44.5 -18.5t-45 18.5t-19 44.5t19 45t45 19t44.5 -19t18.5 -45zM229 952q0 -26 -18.5 -44.5t-44.5 -18.5t-45 18.5t-19 44.5t19 45t45 19 t44.5 -19t18.5 -45zM229 1079q0 -26 -18.5 -44.5t-44.5 -18.5t-45 18.5t-19 44.5t19 45t45 19t44.5 -19t18.5 -45zM229 1206q0 -26 -18.5 -44.5t-44.5 -18.5t-45 18.5t-19 44.5t19 45t45 19t44.5 -19t18.5 -45zM229 190q0 -26 -18.5 -44.5t-44.5 -18.5t-45 18.5t-19 44.5 t19 45t45 19t44.5 -19t18.5 -45zM864 190q0 -26 -18.5 -44.5t-44.5 -18.5t-45 18.5t-19 44.5t19 45t45 19t44.5 -19t18.5 -45zM356 698q0 -26 -18.5 -44.5t-44.5 -18.5t-45 18.5t-19 44.5t19 45t45 19t44.5 -19t18.5 -45zM483 825q0 -26 -18.5 -44.5t-44.5 -18.5t-45 18.5 t-19 44.5t19 45t45 19t44.5 -19t18.5 -45zM610 825q0 -26 -18.5 -44.5t-44.5 -18.5t-45 18.5t-19 44.5t19 45t45 19t44.5 -19t18.5 -45zM737 825q0 -26 -18.5 -44.5t-44.5 -18.5t-45 18.5t-19 44.5t19 45t45 19t44.5 -19t18.5 -45zM864 317q0 -26 -18.5 -44.5t-44.5 -18.5 t-45 18.5t-19 44.5t19 45t45 19t44.5 -19t18.5 -45zM864 444q0 -26 -18.5 -44.5t-44.5 -18.5t-45 18.5t-19 44.5t19 45t45 19t44.5 -19t18.5 -45zM864 571q0 -26 -18.5 -44.5t-44.5 -18.5t-45 18.5t-19 44.5t19 45t45 19t44.5 -19t18.5 -45zM864 698q0 -26 -18.5 -44.5 t-44.5 -18.5t-45 18.5t-19 44.5t19 45t45 19t44.5 -19t18.5 -45zM229 63q0 -26 -18.5 -44.5t-44.5 -18.5t-45 18.5t-19 44.5t19 45t45 19t44.5 -19t18.5 -45zM864 63q0 -26 -18.5 -44.5t-44.5 -18.5t-45 18.5t-19 44.5t19 45t45 19t44.5 -19t18.5 -45z" />
<glyph unicode="i" horiz-adv-x="376" d="M252 317q0 -26 -19 -44.5t-45 -18.5t-44.5 18.5t-18.5 44.5t18.5 45t44.5 19t45 -19t19 -45zM252 444q0 -26 -19 -44.5t-45 -18.5t-44.5 18.5t-18.5 44.5t18.5 45t44.5 19t45 -19t19 -45zM252 571q0 -26 -19 -44.5t-45 -18.5t-44.5 18.5t-18.5 44.5t18.5 45t44.5 19 t45 -19t19 -45zM252 698q0 -26 -19 -44.5t-45 -18.5t-44.5 18.5t-18.5 44.5t18.5 45t44.5 19t45 -19t19 -45zM252 825q0 -26 -19 -44.5t-45 -18.5t-44.5 18.5t-18.5 44.5t18.5 45t44.5 19t45 -19t19 -45zM274 1130q0 -35 -25.5 -60.5t-60.5 -25.5t-60.5 25.5t-25.5 60.5 q0 34 25.5 59t60.5 25t60.5 -25t25.5 -59zM252 190q0 -26 -19 -44.5t-45 -18.5t-44.5 18.5t-18.5 44.5t18.5 45t44.5 19t45 -19t19 -45zM252 63q0 -26 -19 -44.5t-45 -18.5t-44.5 18.5t-18.5 44.5t18.5 45t44.5 19t45 -19t19 -45z" />
<glyph unicode="j" horiz-adv-x="399" d="M274 317q0 -26 -18.5 -44.5t-44.5 -18.5t-45 18.5t-19 44.5t19 45t45 19t44.5 -19t18.5 -45zM274 444q0 -26 -18.5 -44.5t-44.5 -18.5t-45 18.5t-19 44.5t19 45t45 19t44.5 -19t18.5 -45zM274 571q0 -26 -18.5 -44.5t-44.5 -18.5t-45 18.5t-19 44.5t19 45t45 19t44.5 -19 t18.5 -45zM274 698q0 -26 -18.5 -44.5t-44.5 -18.5t-45 18.5t-19 44.5t19 45t45 19t44.5 -19t18.5 -45zM274 825q0 -26 -18.5 -44.5t-44.5 -18.5t-45 18.5t-19 44.5t19 45t45 19t44.5 -19t18.5 -45zM297 1130q0 -35 -25.5 -60.5t-60.5 -25.5t-60.5 25.5t-25.5 60.5 q0 34 25.5 59t60.5 25t60.5 -25t25.5 -59zM274 190q0 -26 -18.5 -44.5t-44.5 -18.5t-45 18.5t-19 44.5t19 45t45 19t44.5 -19t18.5 -45zM274 63q0 -26 -18.5 -44.5t-44.5 -18.5t-45 18.5t-19 44.5t19 45t45 19t44.5 -19t18.5 -45zM274 -63q0 -26 -18.5 -45t-44.5 -19t-45 19 t-19 45t19 44.5t45 18.5t44.5 -18.5t18.5 -44.5zM147 -190q0 -26 -18.5 -45t-44.5 -19t-45 19t-19 45t19 44.5t45 18.5t44.5 -18.5t18.5 -44.5z" />
<glyph unicode="k" horiz-adv-x="905" d="M229 63q0 -26 -18.5 -44.5t-44.5 -18.5t-45 18.5t-19 44.5t19 45t45 19t44.5 -19t18.5 -45zM229 317q0 -26 -18.5 -44.5t-44.5 -18.5t-45 18.5t-19 44.5t19 45t45 19t44.5 -19t18.5 -45zM229 444q0 -26 -18.5 -44.5t-44.5 -18.5t-45 18.5t-19 44.5t19 45t45 19t44.5 -19 t18.5 -45zM229 571q0 -26 -18.5 -44.5t-44.5 -18.5t-45 18.5t-19 44.5t19 45t45 19t44.5 -19t18.5 -45zM229 698q0 -26 -18.5 -44.5t-44.5 -18.5t-45 18.5t-19 44.5t19 45t45 19t44.5 -19t18.5 -45zM229 825q0 -26 -18.5 -44.5t-44.5 -18.5t-45 18.5t-19 44.5t19 45t45 19 t44.5 -19t18.5 -45zM229 952q0 -26 -18.5 -44.5t-44.5 -18.5t-45 18.5t-19 44.5t19 45t45 19t44.5 -19t18.5 -45zM229 1079q0 -26 -18.5 -44.5t-44.5 -18.5t-45 18.5t-19 44.5t19 45t45 19t44.5 -19t18.5 -45zM229 1206q0 -26 -18.5 -44.5t-44.5 -18.5t-45 18.5t-19 44.5 t19 45t45 19t44.5 -19t18.5 -45zM229 190q0 -26 -18.5 -44.5t-44.5 -18.5t-45 18.5t-19 44.5t19 45t45 19t44.5 -19t18.5 -45zM737 190q0 -26 -18.5 -44.5t-44.5 -18.5t-45 18.5t-19 44.5t19 45t45 19t44.5 -19t18.5 -45zM864 63q0 -26 -18.5 -44.5t-44.5 -18.5t-45 18.5 t-19 44.5t19 45t45 19t44.5 -19t18.5 -45zM356 317q0 -26 -18.5 -44.5t-44.5 -18.5t-45 18.5t-19 44.5t19 45t45 19t44.5 -19t18.5 -45zM483 444q0 -26 -18.5 -44.5t-44.5 -18.5t-45 18.5t-19 44.5t19 45t45 19t44.5 -19t18.5 -45zM610 317q0 -26 -18.5 -44.5t-44.5 -18.5 t-45 18.5t-19 44.5t19 45t45 19t44.5 -19t18.5 -45zM610 571q0 -26 -18.5 -44.5t-44.5 -18.5t-45 18.5t-19 44.5t19 45t45 19t44.5 -19t18.5 -45zM737 698q0 -26 -18.5 -44.5t-44.5 -18.5t-45 18.5t-19 44.5t19 45t45 19t44.5 -19t18.5 -45zM864 825q0 -26 -18.5 -44.5 t-44.5 -18.5t-45 18.5t-19 44.5t19 45t45 19t44.5 -19t18.5 -45z" />
<glyph unicode="l" horiz-adv-x="331" d="M229 63q0 -26 -18.5 -44.5t-44.5 -18.5t-45 18.5t-19 44.5t19 45t45 19t44.5 -19t18.5 -45zM229 952q0 -26 -18.5 -44.5t-44.5 -18.5t-45 18.5t-19 44.5t19 45t45 19t44.5 -19t18.5 -45zM229 1079q0 -26 -18.5 -44.5t-44.5 -18.5t-45 18.5t-19 44.5t19 45t45 19t44.5 -19 t18.5 -45zM229 1206q0 -26 -18.5 -44.5t-44.5 -18.5t-45 18.5t-19 44.5t19 45t45 19t44.5 -19t18.5 -45zM229 190q0 -26 -18.5 -44.5t-44.5 -18.5t-45 18.5t-19 44.5t19 45t45 19t44.5 -19t18.5 -45zM229 317q0 -26 -18.5 -44.5t-44.5 -18.5t-45 18.5t-19 44.5t19 45t45 19 t44.5 -19t18.5 -45zM229 444q0 -26 -18.5 -44.5t-44.5 -18.5t-45 18.5t-19 44.5t19 45t45 19t44.5 -19t18.5 -45zM229 571q0 -26 -18.5 -44.5t-44.5 -18.5t-45 18.5t-19 44.5t19 45t45 19t44.5 -19t18.5 -45zM229 698q0 -26 -18.5 -44.5t-44.5 -18.5t-45 18.5t-19 44.5 t19 45t45 19t44.5 -19t18.5 -45zM229 825q0 -26 -18.5 -44.5t-44.5 -18.5t-45 18.5t-19 44.5t19 45t45 19t44.5 -19t18.5 -45z" />
<glyph unicode="m" horiz-adv-x="1347" d="M229 317q0 -26 -18.5 -44.5t-44.5 -18.5t-45 18.5t-19 44.5t19 45t45 19t44.5 -19t18.5 -45zM229 444q0 -26 -18.5 -44.5t-44.5 -18.5t-45 18.5t-19 44.5t19 45t45 19t44.5 -19t18.5 -45zM229 571q0 -26 -18.5 -44.5t-44.5 -18.5t-45 18.5t-19 44.5t19 45t45 19t44.5 -19 t18.5 -45zM229 698q0 -26 -18.5 -44.5t-44.5 -18.5t-45 18.5t-19 44.5t19 45t45 19t44.5 -19t18.5 -45zM229 825q0 -26 -18.5 -44.5t-44.5 -18.5t-45 18.5t-19 44.5t19 45t45 19t44.5 -19t18.5 -45zM229 190q0 -26 -18.5 -44.5t-44.5 -18.5t-45 18.5t-19 44.5t19 45t45 19 t44.5 -19t18.5 -45zM737 190q0 -26 -18.5 -44.5t-44.5 -18.5t-45 18.5t-19 44.5t19 45t45 19t44.5 -19t18.5 -45zM356 698q0 -26 -18.5 -44.5t-44.5 -18.5t-45 18.5t-19 44.5t19 45t45 19t44.5 -19t18.5 -45zM483 825q0 -26 -18.5 -44.5t-44.5 -18.5t-45 18.5t-19 44.5 t19 45t45 19t44.5 -19t18.5 -45zM610 825q0 -26 -18.5 -44.5t-44.5 -18.5t-45 18.5t-19 44.5t19 45t45 19t44.5 -19t18.5 -45zM737 317q0 -26 -18.5 -44.5t-44.5 -18.5t-45 18.5t-19 44.5t19 45t45 19t44.5 -19t18.5 -45zM737 444q0 -26 -18.5 -44.5t-44.5 -18.5t-45 18.5 t-19 44.5t19 45t45 19t44.5 -19t18.5 -45zM737 571q0 -26 -18.5 -44.5t-44.5 -18.5t-45 18.5t-19 44.5t19 45t45 19t44.5 -19t18.5 -45zM737 698q0 -26 -18.5 -44.5t-44.5 -18.5t-45 18.5t-19 44.5t19 45t45 19t44.5 -19t18.5 -45zM229 63q0 -26 -18.5 -44.5t-44.5 -18.5 t-45 18.5t-19 44.5t19 45t45 19t44.5 -19t18.5 -45zM737 63q0 -26 -18.5 -44.5t-44.5 -18.5t-45 18.5t-19 44.5t19 45t45 19t44.5 -19t18.5 -45zM1245 190q0 -26 -18.5 -44.5t-44.5 -18.5t-45 18.5t-19 44.5t19 45t45 19t44.5 -19t18.5 -45zM864 698q0 -26 -18.5 -44.5 t-44.5 -18.5t-45 18.5t-19 44.5t19 45t45 19t44.5 -19t18.5 -45zM991 825q0 -26 -18.5 -44.5t-44.5 -18.5t-45 18.5t-19 44.5t19 45t45 19t44.5 -19t18.5 -45zM1118 825q0 -26 -18.5 -44.5t-44.5 -18.5t-45 18.5t-19 44.5t19 45t45 19t44.5 -19t18.5 -45zM1245 317 q0 -26 -18.5 -44.5t-44.5 -18.5t-45 18.5t-19 44.5t19 45t45 19t44.5 -19t18.5 -45zM1245 444q0 -26 -18.5 -44.5t-44.5 -18.5t-45 18.5t-19 44.5t19 45t45 19t44.5 -19t18.5 -45zM1245 571q0 -26 -18.5 -44.5t-44.5 -18.5t-45 18.5t-19 44.5t19 45t45 19t44.5 -19t18.5 -45 zM1245 698q0 -26 -18.5 -44.5t-44.5 -18.5t-45 18.5t-19 44.5t19 45t45 19t44.5 -19t18.5 -45zM1245 63q0 -26 -18.5 -44.5t-44.5 -18.5t-45 18.5t-19 44.5t19 45t45 19t44.5 -19t18.5 -45z" />
<glyph unicode="n" d="M229 317q0 -26 -18.5 -44.5t-44.5 -18.5t-45 18.5t-19 44.5t19 45t45 19t44.5 -19t18.5 -45zM229 444q0 -26 -18.5 -44.5t-44.5 -18.5t-45 18.5t-19 44.5t19 45t45 19t44.5 -19t18.5 -45zM229 571q0 -26 -18.5 -44.5t-44.5 -18.5t-45 18.5t-19 44.5t19 45t45 19t44.5 -19 t18.5 -45zM229 698q0 -26 -18.5 -44.5t-44.5 -18.5t-45 18.5t-19 44.5t19 45t45 19t44.5 -19t18.5 -45zM229 825q0 -26 -18.5 -44.5t-44.5 -18.5t-45 18.5t-19 44.5t19 45t45 19t44.5 -19t18.5 -45zM229 190q0 -26 -18.5 -44.5t-44.5 -18.5t-45 18.5t-19 44.5t19 45t45 19 t44.5 -19t18.5 -45zM864 190q0 -26 -18.5 -44.5t-44.5 -18.5t-45 18.5t-19 44.5t19 45t45 19t44.5 -19t18.5 -45zM356 698q0 -26 -18.5 -44.5t-44.5 -18.5t-45 18.5t-19 44.5t19 45t45 19t44.5 -19t18.5 -45zM483 825q0 -26 -18.5 -44.5t-44.5 -18.5t-45 18.5t-19 44.5 t19 45t45 19t44.5 -19t18.5 -45zM610 825q0 -26 -18.5 -44.5t-44.5 -18.5t-45 18.5t-19 44.5t19 45t45 19t44.5 -19t18.5 -45zM737 825q0 -26 -18.5 -44.5t-44.5 -18.5t-45 18.5t-19 44.5t19 45t45 19t44.5 -19t18.5 -45zM864 317q0 -26 -18.5 -44.5t-44.5 -18.5t-45 18.5 t-19 44.5t19 45t45 19t44.5 -19t18.5 -45zM864 444q0 -26 -18.5 -44.5t-44.5 -18.5t-45 18.5t-19 44.5t19 45t45 19t44.5 -19t18.5 -45zM864 571q0 -26 -18.5 -44.5t-44.5 -18.5t-45 18.5t-19 44.5t19 45t45 19t44.5 -19t18.5 -45zM864 698q0 -26 -18.5 -44.5t-44.5 -18.5 t-45 18.5t-19 44.5t19 45t45 19t44.5 -19t18.5 -45zM229 63q0 -26 -18.5 -44.5t-44.5 -18.5t-45 18.5t-19 44.5t19 45t45 19t44.5 -19t18.5 -45zM864 63q0 -26 -18.5 -44.5t-44.5 -18.5t-45 18.5t-19 44.5t19 45t45 19t44.5 -19t18.5 -45z" />
<glyph unicode="o" d="M229 317q0 -26 -18.5 -44.5t-44.5 -18.5t-45 18.5t-19 44.5t19 45t45 19t44.5 -19t18.5 -45zM229 444q0 -26 -18.5 -44.5t-44.5 -18.5t-45 18.5t-19 44.5t19 45t45 19t44.5 -19t18.5 -45zM229 571q0 -26 -18.5 -44.5t-44.5 -18.5t-45 18.5t-19 44.5t19 45t45 19t44.5 -19 t18.5 -45zM229 698q0 -26 -18.5 -44.5t-44.5 -18.5t-45 18.5t-19 44.5t19 45t45 19t44.5 -19t18.5 -45zM229 190q0 -26 -18.5 -44.5t-44.5 -18.5t-45 18.5t-19 44.5t19 45t45 19t44.5 -19t18.5 -45zM356 63q0 -26 -18.5 -44.5t-44.5 -18.5t-45 18.5t-19 44.5t19 45t45 19 t44.5 -19t18.5 -45zM483 63q0 -26 -18.5 -44.5t-44.5 -18.5t-45 18.5t-19 44.5t19 45t45 19t44.5 -19t18.5 -45zM610 63q0 -26 -18.5 -44.5t-44.5 -18.5t-45 18.5t-19 44.5t19 45t45 19t44.5 -19t18.5 -45zM737 63q0 -26 -18.5 -44.5t-44.5 -18.5t-45 18.5t-19 44.5t19 45 t45 19t44.5 -19t18.5 -45zM864 190q0 -26 -18.5 -44.5t-44.5 -18.5t-45 18.5t-19 44.5t19 45t45 19t44.5 -19t18.5 -45zM356 825q0 -26 -18.5 -44.5t-44.5 -18.5t-45 18.5t-19 44.5t19 45t45 19t44.5 -19t18.5 -45zM483 825q0 -26 -18.5 -44.5t-44.5 -18.5t-45 18.5 t-19 44.5t19 45t45 19t44.5 -19t18.5 -45zM610 825q0 -26 -18.5 -44.5t-44.5 -18.5t-45 18.5t-19 44.5t19 45t45 19t44.5 -19t18.5 -45zM737 825q0 -26 -18.5 -44.5t-44.5 -18.5t-45 18.5t-19 44.5t19 45t45 19t44.5 -19t18.5 -45zM864 317q0 -26 -18.5 -44.5t-44.5 -18.5 t-45 18.5t-19 44.5t19 45t45 19t44.5 -19t18.5 -45zM864 444q0 -26 -18.5 -44.5t-44.5 -18.5t-45 18.5t-19 44.5t19 45t45 19t44.5 -19t18.5 -45zM864 571q0 -26 -18.5 -44.5t-44.5 -18.5t-45 18.5t-19 44.5t19 45t45 19t44.5 -19t18.5 -45zM864 698q0 -26 -18.5 -44.5 t-44.5 -18.5t-45 18.5t-19 44.5t19 45t45 19t44.5 -19t18.5 -45z" />
<glyph unicode="p" d="M229 571q0 -26 -18.5 -44.5t-44.5 -18.5t-45 18.5t-19 44.5t19 45t45 19t44.5 -19t18.5 -45zM229 444q0 -26 -18.5 -44.5t-44.5 -18.5t-45 18.5t-19 44.5t19 45t45 19t44.5 -19t18.5 -45zM229 317q0 -26 -18.5 -44.5t-44.5 -18.5t-45 18.5t-19 44.5t19 45t45 19t44.5 -19 t18.5 -45zM229 190q0 -26 -18.5 -44.5t-44.5 -18.5t-45 18.5t-19 44.5t19 45t45 19t44.5 -19t18.5 -45zM229 63q0 -26 -18.5 -44.5t-44.5 -18.5t-45 18.5t-19 44.5t19 45t45 19t44.5 -19t18.5 -45zM229 -63q0 -26 -18.5 -45t-44.5 -19t-45 19t-19 45t19 44.5t45 18.5 t44.5 -18.5t18.5 -44.5zM229 -190q0 -26 -18.5 -45t-44.5 -19t-45 19t-19 45t19 44.5t45 18.5t44.5 -18.5t18.5 -44.5zM229 -317q0 -26 -18.5 -45t-44.5 -19t-45 19t-19 45t19 44.5t45 18.5t44.5 -18.5t18.5 -44.5zM229 698q0 -26 -18.5 -44.5t-44.5 -18.5t-45 18.5 t-19 44.5t19 45t45 19t44.5 -19t18.5 -45zM356 825q0 -26 -18.5 -44.5t-44.5 -18.5t-45 18.5t-19 44.5t19 45t45 19t44.5 -19t18.5 -45zM483 825q0 -26 -18.5 -44.5t-44.5 -18.5t-45 18.5t-19 44.5t19 45t45 19t44.5 -19t18.5 -45zM610 825q0 -26 -18.5 -44.5t-44.5 -18.5 t-45 18.5t-19 44.5t19 45t45 19t44.5 -19t18.5 -45zM737 825q0 -26 -18.5 -44.5t-44.5 -18.5t-45 18.5t-19 44.5t19 45t45 19t44.5 -19t18.5 -45zM864 698q0 -26 -18.5 -44.5t-44.5 -18.5t-45 18.5t-19 44.5t19 45t45 19t44.5 -19t18.5 -45zM356 190q0 -26 -18.5 -44.5 t-44.5 -18.5t-45 18.5t-19 44.5t19 45t45 19t44.5 -19t18.5 -45zM483 63q0 -26 -18.5 -44.5t-44.5 -18.5t-45 18.5t-19 44.5t19 45t45 19t44.5 -19t18.5 -45zM610 63q0 -26 -18.5 -44.5t-44.5 -18.5t-45 18.5t-19 44.5t19 45t45 19t44.5 -19t18.5 -45zM737 63 q0 -26 -18.5 -44.5t-44.5 -18.5t-45 18.5t-19 44.5t19 45t45 19t44.5 -19t18.5 -45zM864 571q0 -26 -18.5 -44.5t-44.5 -18.5t-45 18.5t-19 44.5t19 45t45 19t44.5 -19t18.5 -45zM864 444q0 -26 -18.5 -44.5t-44.5 -18.5t-45 18.5t-19 44.5t19 45t45 19t44.5 -19t18.5 -45z M864 317q0 -26 -18.5 -44.5t-44.5 -18.5t-45 18.5t-19 44.5t19 45t45 19t44.5 -19t18.5 -45zM864 190q0 -26 -18.5 -44.5t-44.5 -18.5t-45 18.5t-19 44.5t19 45t45 19t44.5 -19t18.5 -45z" />
<glyph unicode="q" d="M737 571q0 26 19 45t45 19t44.5 -19t18.5 -45t-18.5 -44.5t-44.5 -18.5t-45 18.5t-19 44.5zM737 444q0 26 19 45t45 19t44.5 -19t18.5 -45t-18.5 -44.5t-44.5 -18.5t-45 18.5t-19 44.5zM737 317q0 26 19 45t45 19t44.5 -19t18.5 -45t-18.5 -44.5t-44.5 -18.5t-45 18.5 t-19 44.5zM737 190q0 26 19 45t45 19t44.5 -19t18.5 -45t-18.5 -44.5t-44.5 -18.5t-45 18.5t-19 44.5zM737 63q0 26 19 45t45 19t44.5 -19t18.5 -45t-18.5 -44.5t-44.5 -18.5t-45 18.5t-19 44.5zM737 -63q0 26 19 44.5t45 18.5t44.5 -18.5t18.5 -44.5t-18.5 -45t-44.5 -19 t-45 19t-19 45zM737 -190q0 26 19 44.5t45 18.5t44.5 -18.5t18.5 -44.5t-18.5 -45t-44.5 -19t-45 19t-19 45zM737 -317q0 26 19 44.5t45 18.5t44.5 -18.5t18.5 -44.5t-18.5 -45t-44.5 -19t-45 19t-19 45zM737 698q0 26 19 45t45 19t44.5 -19t18.5 -45t-18.5 -44.5 t-44.5 -18.5t-45 18.5t-19 44.5zM610 825q0 26 19 45t45 19t44.5 -19t18.5 -45t-18.5 -44.5t-44.5 -18.5t-45 18.5t-19 44.5zM483 825q0 26 19 45t45 19t44.5 -19t18.5 -45t-18.5 -44.5t-44.5 -18.5t-45 18.5t-19 44.5zM356 825q0 26 19 45t45 19t44.5 -19t18.5 -45 t-18.5 -44.5t-44.5 -18.5t-45 18.5t-19 44.5zM229 825q0 26 19 45t45 19t44.5 -19t18.5 -45t-18.5 -44.5t-44.5 -18.5t-45 18.5t-19 44.5zM102 698q0 26 19 45t45 19t44.5 -19t18.5 -45t-18.5 -44.5t-44.5 -18.5t-45 18.5t-19 44.5zM610 190q0 26 19 45t45 19t44.5 -19 t18.5 -45t-18.5 -44.5t-44.5 -18.5t-45 18.5t-19 44.5zM483 63q0 26 19 45t45 19t44.5 -19t18.5 -45t-18.5 -44.5t-44.5 -18.5t-45 18.5t-19 44.5zM356 63q0 26 19 45t45 19t44.5 -19t18.5 -45t-18.5 -44.5t-44.5 -18.5t-45 18.5t-19 44.5zM229 63q0 26 19 45t45 19 t44.5 -19t18.5 -45t-18.5 -44.5t-44.5 -18.5t-45 18.5t-19 44.5zM102 571q0 26 19 45t45 19t44.5 -19t18.5 -45t-18.5 -44.5t-44.5 -18.5t-45 18.5t-19 44.5zM102 444q0 26 19 45t45 19t44.5 -19t18.5 -45t-18.5 -44.5t-44.5 -18.5t-45 18.5t-19 44.5zM102 317q0 26 19 45 t45 19t44.5 -19t18.5 -45t-18.5 -44.5t-44.5 -18.5t-45 18.5t-19 44.5zM102 190q0 26 19 45t45 19t44.5 -19t18.5 -45t-18.5 -44.5t-44.5 -18.5t-45 18.5t-19 44.5z" />
<glyph unicode="r" horiz-adv-x="757" d="M229 317q0 -26 -18.5 -44.5t-44.5 -18.5t-45 18.5t-19 44.5t19 45t45 19t44.5 -19t18.5 -45zM229 444q0 -26 -18.5 -44.5t-44.5 -18.5t-45 18.5t-19 44.5t19 45t45 19t44.5 -19t18.5 -45zM229 571q0 -26 -18.5 -44.5t-44.5 -18.5t-45 18.5t-19 44.5t19 45t45 19t44.5 -19 t18.5 -45zM229 698q0 -26 -18.5 -44.5t-44.5 -18.5t-45 18.5t-19 44.5t19 45t45 19t44.5 -19t18.5 -45zM229 825q0 -26 -18.5 -44.5t-44.5 -18.5t-45 18.5t-19 44.5t19 45t45 19t44.5 -19t18.5 -45zM229 190q0 -26 -18.5 -44.5t-44.5 -18.5t-45 18.5t-19 44.5t19 45t45 19 t44.5 -19t18.5 -45zM356 698q0 -26 -18.5 -44.5t-44.5 -18.5t-45 18.5t-19 44.5t19 45t45 19t44.5 -19t18.5 -45zM483 825q0 -26 -18.5 -44.5t-44.5 -18.5t-45 18.5t-19 44.5t19 45t45 19t44.5 -19t18.5 -45zM610 825q0 -26 -18.5 -44.5t-44.5 -18.5t-45 18.5t-19 44.5 t19 45t45 19t44.5 -19t18.5 -45zM737 698q0 -26 -18.5 -44.5t-44.5 -18.5t-45 18.5t-19 44.5t19 45t45 19t44.5 -19t18.5 -45zM229 63q0 -26 -18.5 -44.5t-44.5 -18.5t-45 18.5t-19 44.5t19 45t45 19t44.5 -19t18.5 -45z" />
<glyph unicode="s" horiz-adv-x="925" d="M209 571q0 -26 -19 -44.5t-45 -18.5t-44.5 18.5t-18.5 44.5t18.5 45t44.5 19t45 -19t19 -45zM209 698q0 -26 -19 -44.5t-45 -18.5t-44.5 18.5t-18.5 44.5t18.5 45t44.5 19t45 -19t19 -45zM209 190q0 -26 -19 -44.5t-45 -18.5t-44.5 18.5t-18.5 44.5t18.5 45t44.5 19 t45 -19t19 -45zM336 63q0 -26 -19 -44.5t-45 -18.5t-44.5 18.5t-18.5 44.5t18.5 45t44.5 19t45 -19t19 -45zM463 63q0 -26 -19 -44.5t-45 -18.5t-44.5 18.5t-18.5 44.5t18.5 45t44.5 19t45 -19t19 -45zM590 63q0 -26 -19 -44.5t-45 -18.5t-44.5 18.5t-18.5 44.5t18.5 45 t44.5 19t45 -19t19 -45zM717 63q0 -26 -19 -44.5t-45 -18.5t-44.5 18.5t-18.5 44.5t18.5 45t44.5 19t45 -19t19 -45zM844 190q0 -26 -19 -44.5t-45 -18.5t-44.5 18.5t-18.5 44.5t18.5 45t44.5 19t45 -19t19 -45zM336 444q0 -26 -19 -44.5t-45 -18.5t-44.5 18.5t-18.5 44.5 t18.5 45t44.5 19t45 -19t19 -45zM336 825q0 -26 -19 -44.5t-45 -18.5t-44.5 18.5t-18.5 44.5t18.5 45t44.5 19t45 -19t19 -45zM463 444q0 -26 -19 -44.5t-45 -18.5t-44.5 18.5t-18.5 44.5t18.5 45t44.5 19t45 -19t19 -45zM463 825q0 -26 -19 -44.5t-45 -18.5t-44.5 18.5 t-18.5 44.5t18.5 45t44.5 19t45 -19t19 -45zM590 444q0 -26 -19 -44.5t-45 -18.5t-44.5 18.5t-18.5 44.5t18.5 45t44.5 19t45 -19t19 -45zM590 825q0 -26 -19 -44.5t-45 -18.5t-44.5 18.5t-18.5 44.5t18.5 45t44.5 19t45 -19t19 -45zM717 444q0 -26 -19 -44.5t-45 -18.5 t-44.5 18.5t-18.5 44.5t18.5 45t44.5 19t45 -19t19 -45zM717 825q0 -26 -19 -44.5t-45 -18.5t-44.5 18.5t-18.5 44.5t18.5 45t44.5 19t45 -19t19 -45zM844 317q0 -26 -19 -44.5t-45 -18.5t-44.5 18.5t-18.5 44.5t18.5 45t44.5 19t45 -19t19 -45zM844 698q0 -26 -19 -44.5 t-45 -18.5t-44.5 18.5t-18.5 44.5t18.5 45t44.5 19t45 -19t19 -45z" />
<glyph unicode="t" horiz-adv-x="823" d="M168 825q0 -26 -19 -44.5t-45 -18.5t-44.5 18.5t-18.5 44.5t18.5 45t44.5 19t45 -19t19 -45zM295 952q0 -26 -19 -44.5t-45 -18.5t-44.5 18.5t-18.5 44.5t18.5 45t44.5 19t45 -19t19 -45zM295 1079q0 -26 -19 -44.5t-45 -18.5t-44.5 18.5t-18.5 44.5t18.5 45t44.5 19 t45 -19t19 -45zM295 1206q0 -26 -19 -44.5t-45 -18.5t-44.5 18.5t-18.5 44.5t18.5 45t44.5 19t45 -19t19 -45zM295 190q0 -26 -19 -44.5t-45 -18.5t-44.5 18.5t-18.5 44.5t18.5 45t44.5 19t45 -19t19 -45zM422 63q0 -26 -19 -44.5t-45 -18.5t-44.5 18.5t-18.5 44.5t18.5 45 t44.5 19t45 -19t19 -45zM549 63q0 -26 -19 -44.5t-45 -18.5t-44.5 18.5t-18.5 44.5t18.5 45t44.5 19t45 -19t19 -45zM676 63q0 -26 -19 -44.5t-45 -18.5t-44.5 18.5t-18.5 44.5t18.5 45t44.5 19t45 -19t19 -45zM803 190q0 -26 -19 -44.5t-45 -18.5t-44.5 18.5t-18.5 44.5 t18.5 45t44.5 19t45 -19t19 -45zM295 317q0 -26 -19 -44.5t-45 -18.5t-44.5 18.5t-18.5 44.5t18.5 45t44.5 19t45 -19t19 -45zM295 444q0 -26 -19 -44.5t-45 -18.5t-44.5 18.5t-18.5 44.5t18.5 45t44.5 19t45 -19t19 -45zM295 571q0 -26 -19 -44.5t-45 -18.5t-44.5 18.5 t-18.5 44.5t18.5 45t44.5 19t45 -19t19 -45zM295 698q0 -26 -19 -44.5t-45 -18.5t-44.5 18.5t-18.5 44.5t18.5 45t44.5 19t45 -19t19 -45zM295 825q0 -26 -19 -44.5t-45 -18.5t-44.5 18.5t-18.5 44.5t18.5 45t44.5 19t45 -19t19 -45zM422 825q0 -26 -19 -44.5t-45 -18.5 t-44.5 18.5t-18.5 44.5t18.5 45t44.5 19t45 -19t19 -45zM549 825q0 -26 -19 -44.5t-45 -18.5t-44.5 18.5t-18.5 44.5t18.5 45t44.5 19t45 -19t19 -45zM676 825q0 -26 -19 -44.5t-45 -18.5t-44.5 18.5t-18.5 44.5t18.5 45t44.5 19t45 -19t19 -45z" />
<glyph unicode="u" d="M737 571q0 26 19 45t45 19t44.5 -19t18.5 -45t-18.5 -44.5t-44.5 -18.5t-45 18.5t-19 44.5zM737 444q0 26 19 45t45 19t44.5 -19t18.5 -45t-18.5 -44.5t-44.5 -18.5t-45 18.5t-19 44.5zM737 317q0 26 19 45t45 19t44.5 -19t18.5 -45t-18.5 -44.5t-44.5 -18.5t-45 18.5 t-19 44.5zM737 190q0 26 19 45t45 19t44.5 -19t18.5 -45t-18.5 -44.5t-44.5 -18.5t-45 18.5t-19 44.5zM737 63q0 26 19 45t45 19t44.5 -19t18.5 -45t-18.5 -44.5t-44.5 -18.5t-45 18.5t-19 44.5zM737 698q0 26 19 45t45 19t44.5 -19t18.5 -45t-18.5 -44.5t-44.5 -18.5 t-45 18.5t-19 44.5zM102 698q0 26 19 45t45 19t44.5 -19t18.5 -45t-18.5 -44.5t-44.5 -18.5t-45 18.5t-19 44.5zM610 190q0 26 19 45t45 19t44.5 -19t18.5 -45t-18.5 -44.5t-44.5 -18.5t-45 18.5t-19 44.5zM483 63q0 26 19 45t45 19t44.5 -19t18.5 -45t-18.5 -44.5 t-44.5 -18.5t-45 18.5t-19 44.5zM356 63q0 26 19 45t45 19t44.5 -19t18.5 -45t-18.5 -44.5t-44.5 -18.5t-45 18.5t-19 44.5zM229 63q0 26 19 45t45 19t44.5 -19t18.5 -45t-18.5 -44.5t-44.5 -18.5t-45 18.5t-19 44.5zM102 571q0 26 19 45t45 19t44.5 -19t18.5 -45 t-18.5 -44.5t-44.5 -18.5t-45 18.5t-19 44.5zM102 444q0 26 19 45t45 19t44.5 -19t18.5 -45t-18.5 -44.5t-44.5 -18.5t-45 18.5t-19 44.5zM102 317q0 26 19 45t45 19t44.5 -19t18.5 -45t-18.5 -44.5t-44.5 -18.5t-45 18.5t-19 44.5zM102 190q0 26 19 45t45 19t44.5 -19 t18.5 -45t-18.5 -44.5t-44.5 -18.5t-45 18.5t-19 44.5zM737 825q0 26 19 45t45 19t44.5 -19t18.5 -45t-18.5 -44.5t-44.5 -18.5t-45 18.5t-19 44.5zM102 825q0 26 19 45t45 19t44.5 -19t18.5 -45t-18.5 -44.5t-44.5 -18.5t-45 18.5t-19 44.5z" />
<glyph unicode="v" horiz-adv-x="798" d="M209 698q0 -26 -19 -44.5t-45 -18.5t-44.5 18.5t-18.5 44.5t18.5 45t44.5 19t45 -19t19 -45zM209 825q0 -26 -19 -44.5t-45 -18.5t-44.5 18.5t-18.5 44.5t18.5 45t44.5 19t45 -19t19 -45zM463 63q0 -26 -19 -44.5t-45 -18.5t-44.5 18.5t-18.5 44.5t18.5 45t44.5 19 t45 -19t19 -45zM463 190q0 -26 -19 -44.5t-45 -18.5t-44.5 18.5t-18.5 44.5t18.5 45t44.5 19t45 -19t19 -45zM336 317q0 -26 -19 -44.5t-45 -18.5t-44.5 18.5t-18.5 44.5t18.5 45t44.5 19t45 -19t19 -45zM336 444q0 -26 -19 -44.5t-45 -18.5t-44.5 18.5t-18.5 44.5t18.5 45 t44.5 19t45 -19t19 -45zM336 571q0 -26 -19 -44.5t-45 -18.5t-44.5 18.5t-18.5 44.5t18.5 45t44.5 19t45 -19t19 -45zM590 317q0 -26 -19 -44.5t-45 -18.5t-44.5 18.5t-18.5 44.5t18.5 45t44.5 19t45 -19t19 -45zM590 444q0 -26 -19 -44.5t-45 -18.5t-44.5 18.5t-18.5 44.5 t18.5 45t44.5 19t45 -19t19 -45zM590 571q0 -26 -19 -44.5t-45 -18.5t-44.5 18.5t-18.5 44.5t18.5 45t44.5 19t45 -19t19 -45zM717 698q0 -26 -19 -44.5t-45 -18.5t-44.5 18.5t-18.5 44.5t18.5 45t44.5 19t45 -19t19 -45zM717 825q0 -26 -19 -44.5t-45 -18.5t-44.5 18.5 t-18.5 44.5t18.5 45t44.5 19t45 -19t19 -45z" />
<glyph unicode="w" horiz-adv-x="1347" d="M229 317q0 -26 -18.5 -44.5t-44.5 -18.5t-45 18.5t-19 44.5t19 45t45 19t44.5 -19t18.5 -45zM229 444q0 -26 -18.5 -44.5t-44.5 -18.5t-45 18.5t-19 44.5t19 45t45 19t44.5 -19t18.5 -45zM229 571q0 -26 -18.5 -44.5t-44.5 -18.5t-45 18.5t-19 44.5t19 45t45 19t44.5 -19 t18.5 -45zM229 698q0 -26 -18.5 -44.5t-44.5 -18.5t-45 18.5t-19 44.5t19 45t45 19t44.5 -19t18.5 -45zM229 825q0 -26 -18.5 -44.5t-44.5 -18.5t-45 18.5t-19 44.5t19 45t45 19t44.5 -19t18.5 -45zM229 190q0 -26 -18.5 -44.5t-44.5 -18.5t-45 18.5t-19 44.5t19 45t45 19 t44.5 -19t18.5 -45zM356 63q0 -26 -18.5 -44.5t-44.5 -18.5t-45 18.5t-19 44.5t19 45t45 19t44.5 -19t18.5 -45zM483 63q0 -26 -18.5 -44.5t-44.5 -18.5t-45 18.5t-19 44.5t19 45t45 19t44.5 -19t18.5 -45zM610 63q0 -26 -18.5 -44.5t-44.5 -18.5t-45 18.5t-19 44.5t19 45 t45 19t44.5 -19t18.5 -45zM737 317q0 -26 -18.5 -44.5t-44.5 -18.5t-45 18.5t-19 44.5t19 45t45 19t44.5 -19t18.5 -45zM737 444q0 -26 -18.5 -44.5t-44.5 -18.5t-45 18.5t-19 44.5t19 45t45 19t44.5 -19t18.5 -45zM737 571q0 -26 -18.5 -44.5t-44.5 -18.5t-45 18.5 t-19 44.5t19 45t45 19t44.5 -19t18.5 -45zM737 698q0 -26 -18.5 -44.5t-44.5 -18.5t-45 18.5t-19 44.5t19 45t45 19t44.5 -19t18.5 -45zM737 825q0 -26 -18.5 -44.5t-44.5 -18.5t-45 18.5t-19 44.5t19 45t45 19t44.5 -19t18.5 -45zM737 190q0 -26 -18.5 -44.5t-44.5 -18.5 t-45 18.5t-19 44.5t19 45t45 19t44.5 -19t18.5 -45zM864 63q0 -26 -18.5 -44.5t-44.5 -18.5t-45 18.5t-19 44.5t19 45t45 19t44.5 -19t18.5 -45zM991 63q0 -26 -18.5 -44.5t-44.5 -18.5t-45 18.5t-19 44.5t19 45t45 19t44.5 -19t18.5 -45zM1118 63q0 -26 -18.5 -44.5 t-44.5 -18.5t-45 18.5t-19 44.5t19 45t45 19t44.5 -19t18.5 -45zM1245 190q0 -26 -18.5 -44.5t-44.5 -18.5t-45 18.5t-19 44.5t19 45t45 19t44.5 -19t18.5 -45zM1245 317q0 -26 -18.5 -44.5t-44.5 -18.5t-45 18.5t-19 44.5t19 45t45 19t44.5 -19t18.5 -45zM1245 444 q0 -26 -18.5 -44.5t-44.5 -18.5t-45 18.5t-19 44.5t19 45t45 19t44.5 -19t18.5 -45zM1245 571q0 -26 -18.5 -44.5t-44.5 -18.5t-45 18.5t-19 44.5t19 45t45 19t44.5 -19t18.5 -45zM1245 698q0 -26 -18.5 -44.5t-44.5 -18.5t-45 18.5t-19 44.5t19 45t45 19t44.5 -19t18.5 -45 zM1245 825q0 -26 -18.5 -44.5t-44.5 -18.5t-45 18.5t-19 44.5t19 45t45 19t44.5 -19t18.5 -45z" />
<glyph unicode="x" horiz-adv-x="798" d="M209 63q0 -26 -19 -44.5t-45 -18.5t-44.5 18.5t-18.5 44.5t18.5 45t44.5 19t45 -19t19 -45zM209 698q0 -26 -19 -44.5t-45 -18.5t-44.5 18.5t-18.5 44.5t18.5 45t44.5 19t45 -19t19 -45zM209 825q0 -26 -19 -44.5t-45 -18.5t-44.5 18.5t-18.5 44.5t18.5 45t44.5 19 t45 -19t19 -45zM209 190q0 -26 -19 -44.5t-45 -18.5t-44.5 18.5t-18.5 44.5t18.5 45t44.5 19t45 -19t19 -45zM717 63q0 -26 -19 -44.5t-45 -18.5t-44.5 18.5t-18.5 44.5t18.5 45t44.5 19t45 -19t19 -45zM717 190q0 -26 -19 -44.5t-45 -18.5t-44.5 18.5t-18.5 44.5t18.5 45 t44.5 19t45 -19t19 -45zM336 317q0 -26 -19 -44.5t-45 -18.5t-44.5 18.5t-18.5 44.5t18.5 45t44.5 19t45 -19t19 -45zM336 571q0 -26 -19 -44.5t-45 -18.5t-44.5 18.5t-18.5 44.5t18.5 45t44.5 19t45 -19t19 -45zM463 444q0 -26 -19 -44.5t-45 -18.5t-44.5 18.5t-18.5 44.5 t18.5 45t44.5 19t45 -19t19 -45zM590 317q0 -26 -19 -44.5t-45 -18.5t-44.5 18.5t-18.5 44.5t18.5 45t44.5 19t45 -19t19 -45zM590 571q0 -26 -19 -44.5t-45 -18.5t-44.5 18.5t-18.5 44.5t18.5 45t44.5 19t45 -19t19 -45zM717 698q0 -26 -19 -44.5t-45 -18.5t-44.5 18.5 t-18.5 44.5t18.5 45t44.5 19t45 -19t19 -45zM717 825q0 -26 -19 -44.5t-45 -18.5t-44.5 18.5t-18.5 44.5t18.5 45t44.5 19t45 -19t19 -45z" />
<glyph unicode="y" d="M229 190q0 -26 -18.5 -44.5t-44.5 -18.5t-45 18.5t-19 44.5t19 45t45 19t44.5 -19t18.5 -45zM229 317q0 -26 -18.5 -44.5t-44.5 -18.5t-45 18.5t-19 44.5t19 45t45 19t44.5 -19t18.5 -45zM229 444q0 -26 -18.5 -44.5t-44.5 -18.5t-45 18.5t-19 44.5t19 45t45 19t44.5 -19 t18.5 -45zM229 571q0 -26 -18.5 -44.5t-44.5 -18.5t-45 18.5t-19 44.5t19 45t45 19t44.5 -19t18.5 -45zM229 698q0 -26 -18.5 -44.5t-44.5 -18.5t-45 18.5t-19 44.5t19 45t45 19t44.5 -19t18.5 -45zM229 825q0 -26 -18.5 -44.5t-44.5 -18.5t-45 18.5t-19 44.5t19 45t45 19 t44.5 -19t18.5 -45zM229 -190q0 -26 -18.5 -45t-44.5 -19t-45 19t-19 45t19 44.5t45 18.5t44.5 -18.5t18.5 -44.5zM356 -317q0 -26 -18.5 -45t-44.5 -19t-45 19t-19 45t19 44.5t45 18.5t44.5 -18.5t18.5 -44.5zM483 -317q0 -26 -18.5 -45t-44.5 -19t-45 19t-19 45t19 44.5 t45 18.5t44.5 -18.5t18.5 -44.5zM610 -317q0 -26 -18.5 -45t-44.5 -19t-45 19t-19 45t19 44.5t45 18.5t44.5 -18.5t18.5 -44.5zM737 -317q0 -26 -18.5 -45t-44.5 -19t-45 19t-19 45t19 44.5t45 18.5t44.5 -18.5t18.5 -44.5zM864 571q0 -26 -18.5 -44.5t-44.5 -18.5t-45 18.5 t-19 44.5t19 45t45 19t44.5 -19t18.5 -45zM864 698q0 -26 -18.5 -44.5t-44.5 -18.5t-45 18.5t-19 44.5t19 45t45 19t44.5 -19t18.5 -45zM864 825q0 -26 -18.5 -44.5t-44.5 -18.5t-45 18.5t-19 44.5t19 45t45 19t44.5 -19t18.5 -45zM864 -190q0 -26 -18.5 -45t-44.5 -19 t-45 19t-19 45t19 44.5t45 18.5t44.5 -18.5t18.5 -44.5zM356 63q0 -26 -18.5 -44.5t-44.5 -18.5t-45 18.5t-19 44.5t19 45t45 19t44.5 -19t18.5 -45zM483 63q0 -26 -18.5 -44.5t-44.5 -18.5t-45 18.5t-19 44.5t19 45t45 19t44.5 -19t18.5 -45zM610 63q0 -26 -18.5 -44.5 t-44.5 -18.5t-45 18.5t-19 44.5t19 45t45 19t44.5 -19t18.5 -45zM737 190q0 -26 -18.5 -44.5t-44.5 -18.5t-45 18.5t-19 44.5t19 45t45 19t44.5 -19t18.5 -45zM864 -63q0 -26 -18.5 -45t-44.5 -19t-45 19t-19 45t19 44.5t45 18.5t44.5 -18.5t18.5 -44.5zM864 63 q0 -26 -18.5 -44.5t-44.5 -18.5t-45 18.5t-19 44.5t19 45t45 19t44.5 -19t18.5 -45zM864 190q0 -26 -18.5 -44.5t-44.5 -18.5t-45 18.5t-19 44.5t19 45t45 19t44.5 -19t18.5 -45zM864 317q0 -26 -18.5 -44.5t-44.5 -18.5t-45 18.5t-19 44.5t19 45t45 19t44.5 -19t18.5 -45z M864 444q0 -26 -18.5 -44.5t-44.5 -18.5t-45 18.5t-19 44.5t19 45t45 19t44.5 -19t18.5 -45z" />
<glyph unicode="z" horiz-adv-x="925" d="M209 63q0 -26 -19 -44.5t-45 -18.5t-44.5 18.5t-18.5 44.5t18.5 45t44.5 19t45 -19t19 -45zM209 825q0 -26 -19 -44.5t-45 -18.5t-44.5 18.5t-18.5 44.5t18.5 45t44.5 19t45 -19t19 -45zM209 190q0 -26 -19 -44.5t-45 -18.5t-44.5 18.5t-18.5 44.5t18.5 45t44.5 19 t45 -19t19 -45zM336 63q0 -26 -19 -44.5t-45 -18.5t-44.5 18.5t-18.5 44.5t18.5 45t44.5 19t45 -19t19 -45zM463 63q0 -26 -19 -44.5t-45 -18.5t-44.5 18.5t-18.5 44.5t18.5 45t44.5 19t45 -19t19 -45zM590 63q0 -26 -19 -44.5t-45 -18.5t-44.5 18.5t-18.5 44.5t18.5 45 t44.5 19t45 -19t19 -45zM717 63q0 -26 -19 -44.5t-45 -18.5t-44.5 18.5t-18.5 44.5t18.5 45t44.5 19t45 -19t19 -45zM844 63q0 -26 -19 -44.5t-45 -18.5t-44.5 18.5t-18.5 44.5t18.5 45t44.5 19t45 -19t19 -45zM336 317q0 -26 -19 -44.5t-45 -18.5t-44.5 18.5t-18.5 44.5 t18.5 45t44.5 19t45 -19t19 -45zM336 825q0 -26 -19 -44.5t-45 -18.5t-44.5 18.5t-18.5 44.5t18.5 45t44.5 19t45 -19t19 -45zM463 444q0 -26 -19 -44.5t-45 -18.5t-44.5 18.5t-18.5 44.5t18.5 45t44.5 19t45 -19t19 -45zM463 825q0 -26 -19 -44.5t-45 -18.5t-44.5 18.5 t-18.5 44.5t18.5 45t44.5 19t45 -19t19 -45zM590 444q0 -26 -19 -44.5t-45 -18.5t-44.5 18.5t-18.5 44.5t18.5 45t44.5 19t45 -19t19 -45zM590 825q0 -26 -19 -44.5t-45 -18.5t-44.5 18.5t-18.5 44.5t18.5 45t44.5 19t45 -19t19 -45zM717 571q0 -26 -19 -44.5t-45 -18.5 t-44.5 18.5t-18.5 44.5t18.5 45t44.5 19t45 -19t19 -45zM717 825q0 -26 -19 -44.5t-45 -18.5t-44.5 18.5t-18.5 44.5t18.5 45t44.5 19t45 -19t19 -45zM844 698q0 -26 -19 -44.5t-45 -18.5t-44.5 18.5t-18.5 44.5t18.5 45t44.5 19t45 -19t19 -45zM844 825q0 -26 -19 -44.5 t-45 -18.5t-44.5 18.5t-18.5 44.5t18.5 45t44.5 19t45 -19t19 -45z" />
<glyph unicode="{" horiz-adv-x="544" d="M336 63q0 -26 -19 -44.5t-45 -18.5t-44.5 18.5t-18.5 44.5t18.5 45t44.5 19t45 -19t19 -45zM336 317q0 -26 -19 -44.5t-45 -18.5t-44.5 18.5t-18.5 44.5t18.5 45t44.5 19t45 -19t19 -45zM336 444q0 -26 -19 -44.5t-45 -18.5t-44.5 18.5t-18.5 44.5t18.5 45t44.5 19 t45 -19t19 -45zM336 698q0 -26 -19 -44.5t-45 -18.5t-44.5 18.5t-18.5 44.5t18.5 45t44.5 19t45 -19t19 -45zM336 825q0 -26 -19 -44.5t-45 -18.5t-44.5 18.5t-18.5 44.5t18.5 45t44.5 19t45 -19t19 -45zM336 952q0 -26 -19 -44.5t-45 -18.5t-44.5 18.5t-18.5 44.5t18.5 45 t44.5 19t45 -19t19 -45zM336 190q0 -26 -19 -44.5t-45 -18.5t-44.5 18.5t-18.5 44.5t18.5 45t44.5 19t45 -19t19 -45zM463 -63q0 -26 -19 -45t-45 -19t-44.5 19t-18.5 45t18.5 44.5t44.5 18.5t45 -18.5t19 -44.5zM209 571q0 -26 -19 -44.5t-45 -18.5t-44.5 18.5t-18.5 44.5 t18.5 45t44.5 19t45 -19t19 -45zM336 1079q0 -26 -19 -44.5t-45 -18.5t-44.5 18.5t-18.5 44.5t18.5 45t44.5 19t45 -19t19 -45zM463 1206q0 -26 -19 -44.5t-45 -18.5t-44.5 18.5t-18.5 44.5t18.5 45t44.5 19t45 -19t19 -45z" />
<glyph unicode="|" horiz-adv-x="374" d="M252 63q0 -26 -19 -44.5t-45 -18.5t-44.5 18.5t-18.5 44.5t18.5 45t44.5 19t45 -19t19 -45zM252 952q0 -26 -19 -44.5t-45 -18.5t-44.5 18.5t-18.5 44.5t18.5 45t44.5 19t45 -19t19 -45zM252 1079q0 -26 -19 -44.5t-45 -18.5t-44.5 18.5t-18.5 44.5t18.5 45t44.5 19 t45 -19t19 -45zM252 1206q0 -26 -19 -44.5t-45 -18.5t-44.5 18.5t-18.5 44.5t18.5 45t44.5 19t45 -19t19 -45zM252 190q0 -26 -19 -44.5t-45 -18.5t-44.5 18.5t-18.5 44.5t18.5 45t44.5 19t45 -19t19 -45zM250 1333q0 -26 -19 -44.5t-45 -18.5t-44.5 18.5t-18.5 44.5 t18.5 45t44.5 19t45 -19t19 -45zM252 317q0 -26 -19 -44.5t-45 -18.5t-44.5 18.5t-18.5 44.5t18.5 45t44.5 19t45 -19t19 -45zM252 444q0 -26 -19 -44.5t-45 -18.5t-44.5 18.5t-18.5 44.5t18.5 45t44.5 19t45 -19t19 -45zM252 571q0 -26 -19 -44.5t-45 -18.5t-44.5 18.5 t-18.5 44.5t18.5 45t44.5 19t45 -19t19 -45zM252 698q0 -26 -19 -44.5t-45 -18.5t-44.5 18.5t-18.5 44.5t18.5 45t44.5 19t45 -19t19 -45zM252 825q0 -26 -19 -44.5t-45 -18.5t-44.5 18.5t-18.5 44.5t18.5 45t44.5 19t45 -19t19 -45zM252 -63q0 -26 -19 -45t-45 -19 t-44.5 19t-18.5 45t18.5 44.5t44.5 18.5t45 -18.5t19 -44.5z" />
<glyph unicode="}" horiz-adv-x="544" d="M209 63q0 26 18.5 45t44.5 19t45 -19t19 -45t-19 -44.5t-45 -18.5t-44.5 18.5t-18.5 44.5zM209 317q0 26 18.5 45t44.5 19t45 -19t19 -45t-19 -44.5t-45 -18.5t-44.5 18.5t-18.5 44.5zM209 444q0 26 18.5 45t44.5 19t45 -19t19 -45t-19 -44.5t-45 -18.5t-44.5 18.5 t-18.5 44.5zM209 698q0 26 18.5 45t44.5 19t45 -19t19 -45t-19 -44.5t-45 -18.5t-44.5 18.5t-18.5 44.5zM209 825q0 26 18.5 45t44.5 19t45 -19t19 -45t-19 -44.5t-45 -18.5t-44.5 18.5t-18.5 44.5zM209 952q0 26 18.5 45t44.5 19t45 -19t19 -45t-19 -44.5t-45 -18.5 t-44.5 18.5t-18.5 44.5zM209 190q0 26 18.5 45t44.5 19t45 -19t19 -45t-19 -44.5t-45 -18.5t-44.5 18.5t-18.5 44.5zM82 -63q0 26 18.5 44.5t44.5 18.5t45 -18.5t19 -44.5t-19 -45t-45 -19t-44.5 19t-18.5 45zM336 571q0 26 18.5 45t44.5 19t45 -19t19 -45t-19 -44.5 t-45 -18.5t-44.5 18.5t-18.5 44.5zM209 1079q0 26 18.5 45t44.5 19t45 -19t19 -45t-19 -44.5t-45 -18.5t-44.5 18.5t-18.5 44.5zM82 1206q0 26 18.5 45t44.5 19t45 -19t19 -45t-19 -44.5t-45 -18.5t-44.5 18.5t-18.5 44.5z" />
<glyph unicode="~" horiz-adv-x="925" d="M844 698q0 -26 -19 -44.5t-45 -18.5t-44.5 18.5t-18.5 44.5t18.5 45t44.5 19t45 -19t19 -45zM209 571q0 -26 -19 -44.5t-45 -18.5t-44.5 18.5t-18.5 44.5t18.5 45t44.5 19t45 -19t19 -45zM336 698q0 -26 -19 -44.5t-45 -18.5t-44.5 18.5t-18.5 44.5t18.5 45t44.5 19 t45 -19t19 -45zM463 698q0 -26 -19 -44.5t-45 -18.5t-44.5 18.5t-18.5 44.5t18.5 45t44.5 19t45 -19t19 -45zM590 571q0 -26 -19 -44.5t-45 -18.5t-44.5 18.5t-18.5 44.5t18.5 45t44.5 19t45 -19t19 -45zM717 571q0 -26 -19 -44.5t-45 -18.5t-44.5 18.5t-18.5 44.5t18.5 45 t44.5 19t45 -19t19 -45z" />
<glyph unicode="&#xa0;" horiz-adv-x="1134" d="M250 317q0 -26 -19 -44.5t-45 -18.5t-44.5 18.5t-18.5 44.5t18.5 45t44.5 19t45 -19t19 -45zM250 444q0 -26 -19 -44.5t-45 -18.5t-44.5 18.5t-18.5 44.5t18.5 45t44.5 19t45 -19t19 -45zM250 571q0 -26 -19 -44.5t-45 -18.5t-44.5 18.5t-18.5 44.5t18.5 45t44.5 19 t45 -19t19 -45zM250 698q0 -26 -19 -44.5t-45 -18.5t-44.5 18.5t-18.5 44.5t18.5 45t44.5 19t45 -19t19 -45zM250 825q0 -26 -19 -44.5t-45 -18.5t-44.5 18.5t-18.5 44.5t18.5 45t44.5 19t45 -19t19 -45zM250 952q0 -26 -19 -44.5t-45 -18.5t-44.5 18.5t-18.5 44.5t18.5 45 t44.5 19t45 -19t19 -45zM250 1079q0 -26 -19 -44.5t-45 -18.5t-44.5 18.5t-18.5 44.5t18.5 45t44.5 19t45 -19t19 -45zM250 190q0 -26 -19 -44.5t-45 -18.5t-44.5 18.5t-18.5 44.5t18.5 45t44.5 19t45 -19t19 -45zM377 63q0 -26 -19 -44.5t-45 -18.5t-44.5 18.5t-18.5 44.5 t18.5 45t44.5 19t45 -19t19 -45zM377 1206q0 -26 -19 -44.5t-45 -18.5t-44.5 18.5t-18.5 44.5t18.5 45t44.5 19t45 -19t19 -45zM504 63q0 -26 -19 -44.5t-45 -18.5t-44.5 18.5t-18.5 44.5t18.5 45t44.5 19t45 -19t19 -45zM504 1206q0 -26 -19 -44.5t-45 -18.5t-44.5 18.5 t-18.5 44.5t18.5 45t44.5 19t45 -19t19 -45zM631 63q0 -26 -19 -44.5t-45 -18.5t-44.5 18.5t-18.5 44.5t18.5 45t44.5 19t45 -19t19 -45zM631 1206q0 -26 -19 -44.5t-45 -18.5t-44.5 18.5t-18.5 44.5t18.5 45t44.5 19t45 -19t19 -45zM758 63q0 -26 -19 -44.5t-45 -18.5 t-44.5 18.5t-18.5 44.5t18.5 45t44.5 19t45 -19t19 -45zM758 1206q0 -26 -19 -44.5t-45 -18.5t-44.5 18.5t-18.5 44.5t18.5 45t44.5 19t45 -19t19 -45zM885 63q0 -26 -19 -44.5t-45 -18.5t-44.5 18.5t-18.5 44.5t18.5 45t44.5 19t45 -19t19 -45zM885 1206q0 -26 -19 -44.5 t-45 -18.5t-44.5 18.5t-18.5 44.5t18.5 45t44.5 19t45 -19t19 -45zM1012 317q0 -26 -19 -44.5t-45 -18.5t-44.5 18.5t-18.5 44.5t18.5 45t44.5 19t45 -19t19 -45zM1012 444q0 -26 -19 -44.5t-45 -18.5t-44.5 18.5t-18.5 44.5t18.5 45t44.5 19t45 -19t19 -45zM1012 571 q0 -26 -19 -44.5t-45 -18.5t-44.5 18.5t-18.5 44.5t18.5 45t44.5 19t45 -19t19 -45zM1012 698q0 -26 -19 -44.5t-45 -18.5t-44.5 18.5t-18.5 44.5t18.5 45t44.5 19t45 -19t19 -45zM1012 825q0 -26 -19 -44.5t-45 -18.5t-44.5 18.5t-18.5 44.5t18.5 45t44.5 19t45 -19t19 -45 zM1012 952q0 -26 -19 -44.5t-45 -18.5t-44.5 18.5t-18.5 44.5t18.5 45t44.5 19t45 -19t19 -45zM1012 1079q0 -26 -19 -44.5t-45 -18.5t-44.5 18.5t-18.5 44.5t18.5 45t44.5 19t45 -19t19 -45zM1012 190q0 -26 -19 -44.5t-45 -18.5t-44.5 18.5t-18.5 44.5t18.5 45t44.5 19 t45 -19t19 -45z" />
<glyph unicode="&#xa4;" horiz-adv-x="970" d="M127 317q0 -26 -19 -44.5t-45 -18.5t-44.5 18.5t-18.5 44.5t18.5 45t44.5 19t45 -19t19 -45zM254 63q0 -26 -19 -44.5t-45 -18.5t-44.5 18.5t-18.5 44.5t18.5 45t44.5 19t45 -19t19 -45zM254 952q0 -26 -19 -44.5t-45 -18.5t-44.5 18.5t-18.5 44.5t18.5 45t44.5 19 t45 -19t19 -45zM254 1079q0 -26 -19 -44.5t-45 -18.5t-44.5 18.5t-18.5 44.5t18.5 45t44.5 19t45 -19t19 -45zM254 1206q0 -26 -19 -44.5t-45 -18.5t-44.5 18.5t-18.5 44.5t18.5 45t44.5 19t45 -19t19 -45zM254 190q0 -26 -19 -44.5t-45 -18.5t-44.5 18.5t-18.5 44.5 t18.5 45t44.5 19t45 -19t19 -45zM381 1206q0 -26 -19 -44.5t-45 -18.5t-44.5 18.5t-18.5 44.5t18.5 45t44.5 19t45 -19t19 -45zM508 1206q0 -26 -19 -44.5t-45 -18.5t-44.5 18.5t-18.5 44.5t18.5 45t44.5 19t45 -19t19 -45zM635 1206q0 -26 -19 -44.5t-45 -18.5t-44.5 18.5 t-18.5 44.5t18.5 45t44.5 19t45 -19t19 -45zM762 1206q0 -26 -19 -44.5t-45 -18.5t-44.5 18.5t-18.5 44.5t18.5 45t44.5 19t45 -19t19 -45zM889 698q0 -26 -19 -44.5t-45 -18.5t-44.5 18.5t-18.5 44.5t18.5 45t44.5 19t45 -19t19 -45zM889 825q0 -26 -19 -44.5t-45 -18.5 t-44.5 18.5t-18.5 44.5t18.5 45t44.5 19t45 -19t19 -45zM889 952q0 -26 -19 -44.5t-45 -18.5t-44.5 18.5t-18.5 44.5t18.5 45t44.5 19t45 -19t19 -45zM889 1079q0 -26 -19 -44.5t-45 -18.5t-44.5 18.5t-18.5 44.5t18.5 45t44.5 19t45 -19t19 -45zM254 317q0 -26 -19 -44.5 t-45 -18.5t-44.5 18.5t-18.5 44.5t18.5 45t44.5 19t45 -19t19 -45zM254 444q0 -26 -19 -44.5t-45 -18.5t-44.5 18.5t-18.5 44.5t18.5 45t44.5 19t45 -19t19 -45zM254 571q0 -26 -19 -44.5t-45 -18.5t-44.5 18.5t-18.5 44.5t18.5 45t44.5 19t45 -19t19 -45zM254 698 q0 -26 -19 -44.5t-45 -18.5t-44.5 18.5t-18.5 44.5t18.5 45t44.5 19t45 -19t19 -45zM254 825q0 -26 -19 -44.5t-45 -18.5t-44.5 18.5t-18.5 44.5t18.5 45t44.5 19t45 -19t19 -45zM381 317q0 -26 -19 -44.5t-45 -18.5t-44.5 18.5t-18.5 44.5t18.5 45t44.5 19t45 -19t19 -45z M381 571q0 -26 -19 -44.5t-45 -18.5t-44.5 18.5t-18.5 44.5t18.5 45t44.5 19t45 -19t19 -45zM508 317q0 -26 -19 -44.5t-45 -18.5t-44.5 18.5t-18.5 44.5t18.5 45t44.5 19t45 -19t19 -45zM508 571q0 -26 -19 -44.5t-45 -18.5t-44.5 18.5t-18.5 44.5t18.5 45t44.5 19t45 -19 t19 -45zM635 317q0 -26 -19 -44.5t-45 -18.5t-44.5 18.5t-18.5 44.5t18.5 45t44.5 19t45 -19t19 -45zM635 571q0 -26 -19 -44.5t-45 -18.5t-44.5 18.5t-18.5 44.5t18.5 45t44.5 19t45 -19t19 -45zM762 317q0 -26 -19 -44.5t-45 -18.5t-44.5 18.5t-18.5 44.5t18.5 45t44.5 19 t45 -19t19 -45zM762 571q0 -26 -19 -44.5t-45 -18.5t-44.5 18.5t-18.5 44.5t18.5 45t44.5 19t45 -19t19 -45z" />
<glyph unicode="&#xa6;" horiz-adv-x="372" d="M250 63q0 -26 -19 -44.5t-45 -18.5t-44.5 18.5t-18.5 44.5t18.5 45t44.5 19t45 -19t19 -45zM250 952q0 -26 -19 -44.5t-45 -18.5t-44.5 18.5t-18.5 44.5t18.5 45t44.5 19t45 -19t19 -45zM250 1079q0 -26 -19 -44.5t-45 -18.5t-44.5 18.5t-18.5 44.5t18.5 45t44.5 19 t45 -19t19 -45zM250 1206q0 -26 -19 -44.5t-45 -18.5t-44.5 18.5t-18.5 44.5t18.5 45t44.5 19t45 -19t19 -45zM250 190q0 -26 -19 -44.5t-45 -18.5t-44.5 18.5t-18.5 44.5t18.5 45t44.5 19t45 -19t19 -45zM250 317q0 -26 -19 -44.5t-45 -18.5t-44.5 18.5t-18.5 44.5t18.5 45 t44.5 19t45 -19t19 -45zM250 444q0 -26 -19 -44.5t-45 -18.5t-44.5 18.5t-18.5 44.5t18.5 45t44.5 19t45 -19t19 -45zM250 825q0 -26 -19 -44.5t-45 -18.5t-44.5 18.5t-18.5 44.5t18.5 45t44.5 19t45 -19t19 -45z" />
<glyph unicode="&#xa7;" horiz-adv-x="798" d="M209 444q0 -26 -19 -44.5t-45 -18.5t-44.5 18.5t-18.5 44.5t18.5 45t44.5 19t45 -19t19 -45zM209 571q0 -26 -19 -44.5t-45 -18.5t-44.5 18.5t-18.5 44.5t18.5 45t44.5 19t45 -19t19 -45zM209 698q0 -26 -19 -44.5t-45 -18.5t-44.5 18.5t-18.5 44.5t18.5 45t44.5 19 t45 -19t19 -45zM209 952q0 -26 -19 -44.5t-45 -18.5t-44.5 18.5t-18.5 44.5t18.5 45t44.5 19t45 -19t19 -45zM209 1079q0 -26 -19 -44.5t-45 -18.5t-44.5 18.5t-18.5 44.5t18.5 45t44.5 19t45 -19t19 -45zM336 1206q0 -26 -19 -44.5t-45 -18.5t-44.5 18.5t-18.5 44.5 t18.5 45t44.5 19t45 -19t19 -45zM463 1206q0 -26 -19 -44.5t-45 -18.5t-44.5 18.5t-18.5 44.5t18.5 45t44.5 19t45 -19t19 -45zM463 190q0 -26 -19 -44.5t-45 -18.5t-44.5 18.5t-18.5 44.5t18.5 45t44.5 19t45 -19t19 -45zM590 1206q0 -26 -19 -44.5t-45 -18.5t-44.5 18.5 t-18.5 44.5t18.5 45t44.5 19t45 -19t19 -45zM590 190q0 -26 -19 -44.5t-45 -18.5t-44.5 18.5t-18.5 44.5t18.5 45t44.5 19t45 -19t19 -45zM717 63q0 -26 -19 -44.5t-45 -18.5t-44.5 18.5t-18.5 44.5t18.5 45t44.5 19t45 -19t19 -45zM717 1079q0 -26 -19 -44.5t-45 -18.5 t-44.5 18.5t-18.5 44.5t18.5 45t44.5 19t45 -19t19 -45zM336 317q0 -26 -19 -44.5t-45 -18.5t-44.5 18.5t-18.5 44.5t18.5 45t44.5 19t45 -19t19 -45zM336 825q0 -26 -19 -44.5t-45 -18.5t-44.5 18.5t-18.5 44.5t18.5 45t44.5 19t45 -19t19 -45zM463 825q0 -26 -19 -44.5 t-45 -18.5t-44.5 18.5t-18.5 44.5t18.5 45t44.5 19t45 -19t19 -45zM590 698q0 -26 -19 -44.5t-45 -18.5t-44.5 18.5t-18.5 44.5t18.5 45t44.5 19t45 -19t19 -45zM717 317q0 -26 -19 -44.5t-45 -18.5t-44.5 18.5t-18.5 44.5t18.5 45t44.5 19t45 -19t19 -45zM717 444 q0 -26 -19 -44.5t-45 -18.5t-44.5 18.5t-18.5 44.5t18.5 45t44.5 19t45 -19t19 -45zM717 571q0 -26 -19 -44.5t-45 -18.5t-44.5 18.5t-18.5 44.5t18.5 45t44.5 19t45 -19t19 -45zM209 -63q0 -26 -19 -45t-45 -19t-44.5 19t-18.5 45t18.5 44.5t44.5 18.5t45 -18.5t19 -44.5z M336 -190q0 -26 -19 -45t-45 -19t-44.5 19t-18.5 45t18.5 44.5t44.5 18.5t45 -18.5t19 -44.5zM463 -190q0 -26 -19 -45t-45 -19t-44.5 19t-18.5 45t18.5 44.5t44.5 18.5t45 -18.5t19 -44.5zM590 -190q0 -26 -19 -45t-45 -19t-44.5 19t-18.5 45t18.5 44.5t44.5 18.5t45 -18.5 t19 -44.5zM717 -63q0 -26 -19 -45t-45 -19t-44.5 19t-18.5 45t18.5 44.5t44.5 18.5t45 -18.5t19 -44.5z" />
<glyph unicode="&#xa9;" horiz-adv-x="1134" d="M250 317q0 -26 -19 -44.5t-45 -18.5t-44.5 18.5t-18.5 44.5t18.5 45t44.5 19t45 -19t19 -45zM250 444q0 -26 -19 -44.5t-45 -18.5t-44.5 18.5t-18.5 44.5t18.5 45t44.5 19t45 -19t19 -45zM250 571q0 -26 -19 -44.5t-45 -18.5t-44.5 18.5t-18.5 44.5t18.5 45t44.5 19 t45 -19t19 -45zM250 698q0 -26 -19 -44.5t-45 -18.5t-44.5 18.5t-18.5 44.5t18.5 45t44.5 19t45 -19t19 -45zM250 825q0 -26 -19 -44.5t-45 -18.5t-44.5 18.5t-18.5 44.5t18.5 45t44.5 19t45 -19t19 -45zM250 952q0 -26 -19 -44.5t-45 -18.5t-44.5 18.5t-18.5 44.5t18.5 45 t44.5 19t45 -19t19 -45zM250 1079q0 -26 -19 -44.5t-45 -18.5t-44.5 18.5t-18.5 44.5t18.5 45t44.5 19t45 -19t19 -45zM250 190q0 -26 -19 -44.5t-45 -18.5t-44.5 18.5t-18.5 44.5t18.5 45t44.5 19t45 -19t19 -45zM377 63q0 -26 -19 -44.5t-45 -18.5t-44.5 18.5t-18.5 44.5 t18.5 45t44.5 19t45 -19t19 -45zM377 1206q0 -26 -19 -44.5t-45 -18.5t-44.5 18.5t-18.5 44.5t18.5 45t44.5 19t45 -19t19 -45zM504 63q0 -26 -19 -44.5t-45 -18.5t-44.5 18.5t-18.5 44.5t18.5 45t44.5 19t45 -19t19 -45zM504 1206q0 -26 -19 -44.5t-45 -18.5t-44.5 18.5 t-18.5 44.5t18.5 45t44.5 19t45 -19t19 -45zM631 63q0 -26 -19 -44.5t-45 -18.5t-44.5 18.5t-18.5 44.5t18.5 45t44.5 19t45 -19t19 -45zM631 952q0 -26 -19 -44.5t-45 -18.5t-44.5 18.5t-18.5 44.5t18.5 45t44.5 19t45 -19t19 -45zM631 1206q0 -26 -19 -44.5t-45 -18.5 t-44.5 18.5t-18.5 44.5t18.5 45t44.5 19t45 -19t19 -45zM758 63q0 -26 -19 -44.5t-45 -18.5t-44.5 18.5t-18.5 44.5t18.5 45t44.5 19t45 -19t19 -45zM758 952q0 -26 -19 -44.5t-45 -18.5t-44.5 18.5t-18.5 44.5t18.5 45t44.5 19t45 -19t19 -45zM758 1206q0 -26 -19 -44.5 t-45 -18.5t-44.5 18.5t-18.5 44.5t18.5 45t44.5 19t45 -19t19 -45zM885 63q0 -26 -19 -44.5t-45 -18.5t-44.5 18.5t-18.5 44.5t18.5 45t44.5 19t45 -19t19 -45zM885 1206q0 -26 -19 -44.5t-45 -18.5t-44.5 18.5t-18.5 44.5t18.5 45t44.5 19t45 -19t19 -45zM504 444 q0 -26 -19 -44.5t-45 -18.5t-44.5 18.5t-18.5 44.5t18.5 45t44.5 19t45 -19t19 -45zM504 571q0 -26 -19 -44.5t-45 -18.5t-44.5 18.5t-18.5 44.5t18.5 45t44.5 19t45 -19t19 -45zM504 698q0 -26 -19 -44.5t-45 -18.5t-44.5 18.5t-18.5 44.5t18.5 45t44.5 19t45 -19t19 -45z M504 825q0 -26 -19 -44.5t-45 -18.5t-44.5 18.5t-18.5 44.5t18.5 45t44.5 19t45 -19t19 -45zM631 317q0 -26 -19 -44.5t-45 -18.5t-44.5 18.5t-18.5 44.5t18.5 45t44.5 19t45 -19t19 -45zM758 317q0 -26 -19 -44.5t-45 -18.5t-44.5 18.5t-18.5 44.5t18.5 45t44.5 19t45 -19 t19 -45zM1012 317q0 -26 -19 -44.5t-45 -18.5t-44.5 18.5t-18.5 44.5t18.5 45t44.5 19t45 -19t19 -45zM1012 444q0 -26 -19 -44.5t-45 -18.5t-44.5 18.5t-18.5 44.5t18.5 45t44.5 19t45 -19t19 -45zM1012 571q0 -26 -19 -44.5t-45 -18.5t-44.5 18.5t-18.5 44.5t18.5 45 t44.5 19t45 -19t19 -45zM1012 698q0 -26 -19 -44.5t-45 -18.5t-44.5 18.5t-18.5 44.5t18.5 45t44.5 19t45 -19t19 -45zM1012 825q0 -26 -19 -44.5t-45 -18.5t-44.5 18.5t-18.5 44.5t18.5 45t44.5 19t45 -19t19 -45zM1012 952q0 -26 -19 -44.5t-45 -18.5t-44.5 18.5 t-18.5 44.5t18.5 45t44.5 19t45 -19t19 -45zM1012 1079q0 -26 -19 -44.5t-45 -18.5t-44.5 18.5t-18.5 44.5t18.5 45t44.5 19t45 -19t19 -45zM1012 190q0 -26 -19 -44.5t-45 -18.5t-44.5 18.5t-18.5 44.5t18.5 45t44.5 19t45 -19t19 -45zM504 952q0 -26 -19 -44.5t-45 -18.5 t-44.5 18.5t-18.5 44.5t18.5 45t44.5 19t45 -19t19 -45zM504 317q0 -26 -19 -44.5t-45 -18.5t-44.5 18.5t-18.5 44.5t18.5 45t44.5 19t45 -19t19 -45z" />
<glyph unicode="&#xab;" horiz-adv-x="798" d="M590 317q0 -26 -19 -44.5t-45 -18.5t-44.5 18.5t-18.5 44.5t18.5 45t44.5 19t45 -19t19 -45zM590 571q0 -26 -19 -44.5t-45 -18.5t-44.5 18.5t-18.5 44.5t18.5 45t44.5 19t45 -19t19 -45zM717 698q0 -26 -19 -44.5t-45 -18.5t-44.5 18.5t-18.5 44.5t18.5 45t44.5 19 t45 -19t19 -45zM717 190q0 -26 -19 -44.5t-45 -18.5t-44.5 18.5t-18.5 44.5t18.5 45t44.5 19t45 -19t19 -45zM463 444q0 -26 -19 -44.5t-45 -18.5t-44.5 18.5t-18.5 44.5t18.5 45t44.5 19t45 -19t19 -45zM336 317q0 -26 -19 -44.5t-45 -18.5t-44.5 18.5t-18.5 44.5t18.5 45 t44.5 19t45 -19t19 -45zM336 571q0 -26 -19 -44.5t-45 -18.5t-44.5 18.5t-18.5 44.5t18.5 45t44.5 19t45 -19t19 -45zM463 698q0 -26 -19 -44.5t-45 -18.5t-44.5 18.5t-18.5 44.5t18.5 45t44.5 19t45 -19t19 -45zM463 190q0 -26 -19 -44.5t-45 -18.5t-44.5 18.5t-18.5 44.5 t18.5 45t44.5 19t45 -19t19 -45zM209 444q0 -26 -19 -44.5t-45 -18.5t-44.5 18.5t-18.5 44.5t18.5 45t44.5 19t45 -19t19 -45z" />
<glyph unicode="&#xac;" horiz-adv-x="1134" d="M250 317q0 -26 -19 -44.5t-45 -18.5t-44.5 18.5t-18.5 44.5t18.5 45t44.5 19t45 -19t19 -45zM250 444q0 -26 -19 -44.5t-45 -18.5t-44.5 18.5t-18.5 44.5t18.5 45t44.5 19t45 -19t19 -45zM250 571q0 -26 -19 -44.5t-45 -18.5t-44.5 18.5t-18.5 44.5t18.5 45t44.5 19 t45 -19t19 -45zM250 698q0 -26 -19 -44.5t-45 -18.5t-44.5 18.5t-18.5 44.5t18.5 45t44.5 19t45 -19t19 -45zM250 825q0 -26 -19 -44.5t-45 -18.5t-44.5 18.5t-18.5 44.5t18.5 45t44.5 19t45 -19t19 -45zM250 952q0 -26 -19 -44.5t-45 -18.5t-44.5 18.5t-18.5 44.5t18.5 45 t44.5 19t45 -19t19 -45zM250 1079q0 -26 -19 -44.5t-45 -18.5t-44.5 18.5t-18.5 44.5t18.5 45t44.5 19t45 -19t19 -45zM250 190q0 -26 -19 -44.5t-45 -18.5t-44.5 18.5t-18.5 44.5t18.5 45t44.5 19t45 -19t19 -45zM377 63q0 -26 -19 -44.5t-45 -18.5t-44.5 18.5t-18.5 44.5 t18.5 45t44.5 19t45 -19t19 -45zM377 1206q0 -26 -19 -44.5t-45 -18.5t-44.5 18.5t-18.5 44.5t18.5 45t44.5 19t45 -19t19 -45zM504 63q0 -26 -19 -44.5t-45 -18.5t-44.5 18.5t-18.5 44.5t18.5 45t44.5 19t45 -19t19 -45zM504 1206q0 -26 -19 -44.5t-45 -18.5t-44.5 18.5 t-18.5 44.5t18.5 45t44.5 19t45 -19t19 -45zM631 63q0 -26 -19 -44.5t-45 -18.5t-44.5 18.5t-18.5 44.5t18.5 45t44.5 19t45 -19t19 -45zM631 1206q0 -26 -19 -44.5t-45 -18.5t-44.5 18.5t-18.5 44.5t18.5 45t44.5 19t45 -19t19 -45zM758 63q0 -26 -19 -44.5t-45 -18.5 t-44.5 18.5t-18.5 44.5t18.5 45t44.5 19t45 -19t19 -45zM758 1206q0 -26 -19 -44.5t-45 -18.5t-44.5 18.5t-18.5 44.5t18.5 45t44.5 19t45 -19t19 -45zM885 63q0 -26 -19 -44.5t-45 -18.5t-44.5 18.5t-18.5 44.5t18.5 45t44.5 19t45 -19t19 -45zM885 1206q0 -26 -19 -44.5 t-45 -18.5t-44.5 18.5t-18.5 44.5t18.5 45t44.5 19t45 -19t19 -45zM1012 317q0 -26 -19 -44.5t-45 -18.5t-44.5 18.5t-18.5 44.5t18.5 45t44.5 19t45 -19t19 -45zM1012 444q0 -26 -19 -44.5t-45 -18.5t-44.5 18.5t-18.5 44.5t18.5 45t44.5 19t45 -19t19 -45zM1012 571 q0 -26 -19 -44.5t-45 -18.5t-44.5 18.5t-18.5 44.5t18.5 45t44.5 19t45 -19t19 -45zM1012 698q0 -26 -19 -44.5t-45 -18.5t-44.5 18.5t-18.5 44.5t18.5 45t44.5 19t45 -19t19 -45zM1012 825q0 -26 -19 -44.5t-45 -18.5t-44.5 18.5t-18.5 44.5t18.5 45t44.5 19t45 -19t19 -45 zM1012 952q0 -26 -19 -44.5t-45 -18.5t-44.5 18.5t-18.5 44.5t18.5 45t44.5 19t45 -19t19 -45zM1012 1079q0 -26 -19 -44.5t-45 -18.5t-44.5 18.5t-18.5 44.5t18.5 45t44.5 19t45 -19t19 -45zM1012 190q0 -26 -19 -44.5t-45 -18.5t-44.5 18.5t-18.5 44.5t18.5 45t44.5 19 t45 -19t19 -45z" />
<glyph unicode="&#xad;" horiz-adv-x="671" d="M336 571q0 -26 -19 -44.5t-45 -18.5t-44.5 18.5t-18.5 44.5t18.5 45t44.5 19t45 -19t19 -45zM463 571q0 -26 -19 -44.5t-45 -18.5t-44.5 18.5t-18.5 44.5t18.5 45t44.5 19t45 -19t19 -45zM590 571q0 -26 -19 -44.5t-45 -18.5t-44.5 18.5t-18.5 44.5t18.5 45t44.5 19 t45 -19t19 -45zM209 571q0 -26 -19 -44.5t-45 -18.5t-44.5 18.5t-18.5 44.5t18.5 45t44.5 19t45 -19t19 -45z" />
<glyph unicode="&#xae;" horiz-adv-x="1134" d="M250 317q0 -26 -19 -44.5t-45 -18.5t-44.5 18.5t-18.5 44.5t18.5 45t44.5 19t45 -19t19 -45zM250 444q0 -26 -19 -44.5t-45 -18.5t-44.5 18.5t-18.5 44.5t18.5 45t44.5 19t45 -19t19 -45zM250 571q0 -26 -19 -44.5t-45 -18.5t-44.5 18.5t-18.5 44.5t18.5 45t44.5 19 t45 -19t19 -45zM250 698q0 -26 -19 -44.5t-45 -18.5t-44.5 18.5t-18.5 44.5t18.5 45t44.5 19t45 -19t19 -45zM250 825q0 -26 -19 -44.5t-45 -18.5t-44.5 18.5t-18.5 44.5t18.5 45t44.5 19t45 -19t19 -45zM250 952q0 -26 -19 -44.5t-45 -18.5t-44.5 18.5t-18.5 44.5t18.5 45 t44.5 19t45 -19t19 -45zM250 1079q0 -26 -19 -44.5t-45 -18.5t-44.5 18.5t-18.5 44.5t18.5 45t44.5 19t45 -19t19 -45zM250 190q0 -26 -19 -44.5t-45 -18.5t-44.5 18.5t-18.5 44.5t18.5 45t44.5 19t45 -19t19 -45zM377 63q0 -26 -19 -44.5t-45 -18.5t-44.5 18.5t-18.5 44.5 t18.5 45t44.5 19t45 -19t19 -45zM377 1206q0 -26 -19 -44.5t-45 -18.5t-44.5 18.5t-18.5 44.5t18.5 45t44.5 19t45 -19t19 -45zM504 63q0 -26 -19 -44.5t-45 -18.5t-44.5 18.5t-18.5 44.5t18.5 45t44.5 19t45 -19t19 -45zM504 1206q0 -26 -19 -44.5t-45 -18.5t-44.5 18.5 t-18.5 44.5t18.5 45t44.5 19t45 -19t19 -45zM631 63q0 -26 -19 -44.5t-45 -18.5t-44.5 18.5t-18.5 44.5t18.5 45t44.5 19t45 -19t19 -45zM631 952q0 -26 -19 -44.5t-45 -18.5t-44.5 18.5t-18.5 44.5t18.5 45t44.5 19t45 -19t19 -45zM631 1206q0 -26 -19 -44.5t-45 -18.5 t-44.5 18.5t-18.5 44.5t18.5 45t44.5 19t45 -19t19 -45zM758 63q0 -26 -19 -44.5t-45 -18.5t-44.5 18.5t-18.5 44.5t18.5 45t44.5 19t45 -19t19 -45zM758 952q0 -26 -19 -44.5t-45 -18.5t-44.5 18.5t-18.5 44.5t18.5 45t44.5 19t45 -19t19 -45zM758 1206q0 -26 -19 -44.5 t-45 -18.5t-44.5 18.5t-18.5 44.5t18.5 45t44.5 19t45 -19t19 -45zM885 63q0 -26 -19 -44.5t-45 -18.5t-44.5 18.5t-18.5 44.5t18.5 45t44.5 19t45 -19t19 -45zM885 1206q0 -26 -19 -44.5t-45 -18.5t-44.5 18.5t-18.5 44.5t18.5 45t44.5 19t45 -19t19 -45zM504 444 q0 -26 -19 -44.5t-45 -18.5t-44.5 18.5t-18.5 44.5t18.5 45t44.5 19t45 -19t19 -45zM504 698q0 -26 -19 -44.5t-45 -18.5t-44.5 18.5t-18.5 44.5t18.5 45t44.5 19t45 -19t19 -45zM504 825q0 -26 -19 -44.5t-45 -18.5t-44.5 18.5t-18.5 44.5t18.5 45t44.5 19t45 -19t19 -45z M1012 317q0 -26 -19 -44.5t-45 -18.5t-44.5 18.5t-18.5 44.5t18.5 45t44.5 19t45 -19t19 -45zM1012 444q0 -26 -19 -44.5t-45 -18.5t-44.5 18.5t-18.5 44.5t18.5 45t44.5 19t45 -19t19 -45zM1012 571q0 -26 -19 -44.5t-45 -18.5t-44.5 18.5t-18.5 44.5t18.5 45t44.5 19 t45 -19t19 -45zM1012 698q0 -26 -19 -44.5t-45 -18.5t-44.5 18.5t-18.5 44.5t18.5 45t44.5 19t45 -19t19 -45zM1012 825q0 -26 -19 -44.5t-45 -18.5t-44.5 18.5t-18.5 44.5t18.5 45t44.5 19t45 -19t19 -45zM1012 952q0 -26 -19 -44.5t-45 -18.5t-44.5 18.5t-18.5 44.5 t18.5 45t44.5 19t45 -19t19 -45zM1012 1079q0 -26 -19 -44.5t-45 -18.5t-44.5 18.5t-18.5 44.5t18.5 45t44.5 19t45 -19t19 -45zM1012 190q0 -26 -19 -44.5t-45 -18.5t-44.5 18.5t-18.5 44.5t18.5 45t44.5 19t45 -19t19 -45zM504 317q0 -26 -19 -44.5t-45 -18.5t-44.5 18.5 t-18.5 44.5t18.5 45t44.5 19t45 -19t19 -45zM504 571q0 26 18.5 45t44.5 19t45 -19t19 -45t-19 -44.5t-45 -18.5t-44.5 18.5t-18.5 44.5zM377 571q0 26 18.5 45t44.5 19t45 -19t19 -45t-19 -44.5t-45 -18.5t-44.5 18.5t-18.5 44.5zM631 825q0 26 18.5 45t44.5 19t45 -19 t19 -45t-19 -44.5t-45 -18.5t-44.5 18.5t-18.5 44.5zM631 698q0 26 18.5 45t44.5 19t45 -19t19 -45t-19 -44.5t-45 -18.5t-44.5 18.5t-18.5 44.5zM377 952q0 26 18.5 45t44.5 19t45 -19t19 -45t-19 -44.5t-45 -18.5t-44.5 18.5t-18.5 44.5zM758 571q0 -26 -19 -44.5 t-45 -18.5t-44.5 18.5t-18.5 44.5t18.5 45t44.5 19t45 -19t19 -45zM631 444q0 -26 -19 -44.5t-45 -18.5t-44.5 18.5t-18.5 44.5t18.5 45t44.5 19t45 -19t19 -45zM758 317q0 -26 -19 -44.5t-45 -18.5t-44.5 18.5t-18.5 44.5t18.5 45t44.5 19t45 -19t19 -45z" />
<glyph unicode="&#xb0;" horiz-adv-x="1134" d="M250 317q0 -26 -19 -44.5t-45 -18.5t-44.5 18.5t-18.5 44.5t18.5 45t44.5 19t45 -19t19 -45zM250 444q0 -26 -19 -44.5t-45 -18.5t-44.5 18.5t-18.5 44.5t18.5 45t44.5 19t45 -19t19 -45zM250 571q0 -26 -19 -44.5t-45 -18.5t-44.5 18.5t-18.5 44.5t18.5 45t44.5 19 t45 -19t19 -45zM250 698q0 -26 -19 -44.5t-45 -18.5t-44.5 18.5t-18.5 44.5t18.5 45t44.5 19t45 -19t19 -45zM250 825q0 -26 -19 -44.5t-45 -18.5t-44.5 18.5t-18.5 44.5t18.5 45t44.5 19t45 -19t19 -45zM250 952q0 -26 -19 -44.5t-45 -18.5t-44.5 18.5t-18.5 44.5t18.5 45 t44.5 19t45 -19t19 -45zM250 1079q0 -26 -19 -44.5t-45 -18.5t-44.5 18.5t-18.5 44.5t18.5 45t44.5 19t45 -19t19 -45zM250 190q0 -26 -19 -44.5t-45 -18.5t-44.5 18.5t-18.5 44.5t18.5 45t44.5 19t45 -19t19 -45zM377 63q0 -26 -19 -44.5t-45 -18.5t-44.5 18.5t-18.5 44.5 t18.5 45t44.5 19t45 -19t19 -45zM377 1206q0 -26 -19 -44.5t-45 -18.5t-44.5 18.5t-18.5 44.5t18.5 45t44.5 19t45 -19t19 -45zM504 63q0 -26 -19 -44.5t-45 -18.5t-44.5 18.5t-18.5 44.5t18.5 45t44.5 19t45 -19t19 -45zM504 1206q0 -26 -19 -44.5t-45 -18.5t-44.5 18.5 t-18.5 44.5t18.5 45t44.5 19t45 -19t19 -45zM631 63q0 -26 -19 -44.5t-45 -18.5t-44.5 18.5t-18.5 44.5t18.5 45t44.5 19t45 -19t19 -45zM631 1206q0 -26 -19 -44.5t-45 -18.5t-44.5 18.5t-18.5 44.5t18.5 45t44.5 19t45 -19t19 -45zM758 63q0 -26 -19 -44.5t-45 -18.5 t-44.5 18.5t-18.5 44.5t18.5 45t44.5 19t45 -19t19 -45zM758 1206q0 -26 -19 -44.5t-45 -18.5t-44.5 18.5t-18.5 44.5t18.5 45t44.5 19t45 -19t19 -45zM885 63q0 -26 -19 -44.5t-45 -18.5t-44.5 18.5t-18.5 44.5t18.5 45t44.5 19t45 -19t19 -45zM885 1206q0 -26 -19 -44.5 t-45 -18.5t-44.5 18.5t-18.5 44.5t18.5 45t44.5 19t45 -19t19 -45zM1012 317q0 -26 -19 -44.5t-45 -18.5t-44.5 18.5t-18.5 44.5t18.5 45t44.5 19t45 -19t19 -45zM1012 444q0 -26 -19 -44.5t-45 -18.5t-44.5 18.5t-18.5 44.5t18.5 45t44.5 19t45 -19t19 -45zM1012 571 q0 -26 -19 -44.5t-45 -18.5t-44.5 18.5t-18.5 44.5t18.5 45t44.5 19t45 -19t19 -45zM1012 698q0 -26 -19 -44.5t-45 -18.5t-44.5 18.5t-18.5 44.5t18.5 45t44.5 19t45 -19t19 -45zM1012 825q0 -26 -19 -44.5t-45 -18.5t-44.5 18.5t-18.5 44.5t18.5 45t44.5 19t45 -19t19 -45 zM1012 952q0 -26 -19 -44.5t-45 -18.5t-44.5 18.5t-18.5 44.5t18.5 45t44.5 19t45 -19t19 -45zM1012 1079q0 -26 -19 -44.5t-45 -18.5t-44.5 18.5t-18.5 44.5t18.5 45t44.5 19t45 -19t19 -45zM1012 190q0 -26 -19 -44.5t-45 -18.5t-44.5 18.5t-18.5 44.5t18.5 45t44.5 19 t45 -19t19 -45z" />
<glyph unicode="&#xb1;" horiz-adv-x="798" d="M209 571q0 -26 -19 -44.5t-45 -18.5t-44.5 18.5t-18.5 44.5t18.5 45t44.5 19t45 -19t19 -45zM209 190q0 -26 -19 -44.5t-45 -18.5t-44.5 18.5t-18.5 44.5t18.5 45t44.5 19t45 -19t19 -45zM336 190q0 -26 -19 -44.5t-45 -18.5t-44.5 18.5t-18.5 44.5t18.5 45t44.5 19 t45 -19t19 -45zM463 190q0 -26 -19 -44.5t-45 -18.5t-44.5 18.5t-18.5 44.5t18.5 45t44.5 19t45 -19t19 -45zM590 190q0 -26 -19 -44.5t-45 -18.5t-44.5 18.5t-18.5 44.5t18.5 45t44.5 19t45 -19t19 -45zM717 190q0 -26 -19 -44.5t-45 -18.5t-44.5 18.5t-18.5 44.5t18.5 45 t44.5 19t45 -19t19 -45zM336 571q0 -26 -19 -44.5t-45 -18.5t-44.5 18.5t-18.5 44.5t18.5 45t44.5 19t45 -19t19 -45zM463 444q0 -26 -19 -44.5t-45 -18.5t-44.5 18.5t-18.5 44.5t18.5 45t44.5 19t45 -19t19 -45zM463 571q0 -26 -19 -44.5t-45 -18.5t-44.5 18.5t-18.5 44.5 t18.5 45t44.5 19t45 -19t19 -45zM463 698q0 -26 -19 -44.5t-45 -18.5t-44.5 18.5t-18.5 44.5t18.5 45t44.5 19t45 -19t19 -45zM463 825q0 -26 -19 -44.5t-45 -18.5t-44.5 18.5t-18.5 44.5t18.5 45t44.5 19t45 -19t19 -45zM590 571q0 -26 -19 -44.5t-45 -18.5t-44.5 18.5 t-18.5 44.5t18.5 45t44.5 19t45 -19t19 -45zM717 571q0 -26 -19 -44.5t-45 -18.5t-44.5 18.5t-18.5 44.5t18.5 45t44.5 19t45 -19t19 -45z" />
<glyph unicode="&#xb5;" horiz-adv-x="1134" d="M250 317q0 -26 -19 -44.5t-45 -18.5t-44.5 18.5t-18.5 44.5t18.5 45t44.5 19t45 -19t19 -45zM250 444q0 -26 -19 -44.5t-45 -18.5t-44.5 18.5t-18.5 44.5t18.5 45t44.5 19t45 -19t19 -45zM250 571q0 -26 -19 -44.5t-45 -18.5t-44.5 18.5t-18.5 44.5t18.5 45t44.5 19 t45 -19t19 -45zM250 698q0 -26 -19 -44.5t-45 -18.5t-44.5 18.5t-18.5 44.5t18.5 45t44.5 19t45 -19t19 -45zM250 825q0 -26 -19 -44.5t-45 -18.5t-44.5 18.5t-18.5 44.5t18.5 45t44.5 19t45 -19t19 -45zM250 952q0 -26 -19 -44.5t-45 -18.5t-44.5 18.5t-18.5 44.5t18.5 45 t44.5 19t45 -19t19 -45zM250 1079q0 -26 -19 -44.5t-45 -18.5t-44.5 18.5t-18.5 44.5t18.5 45t44.5 19t45 -19t19 -45zM250 190q0 -26 -19 -44.5t-45 -18.5t-44.5 18.5t-18.5 44.5t18.5 45t44.5 19t45 -19t19 -45zM377 63q0 -26 -19 -44.5t-45 -18.5t-44.5 18.5t-18.5 44.5 t18.5 45t44.5 19t45 -19t19 -45zM377 1206q0 -26 -19 -44.5t-45 -18.5t-44.5 18.5t-18.5 44.5t18.5 45t44.5 19t45 -19t19 -45zM504 63q0 -26 -19 -44.5t-45 -18.5t-44.5 18.5t-18.5 44.5t18.5 45t44.5 19t45 -19t19 -45zM504 1206q0 -26 -19 -44.5t-45 -18.5t-44.5 18.5 t-18.5 44.5t18.5 45t44.5 19t45 -19t19 -45zM631 63q0 -26 -19 -44.5t-45 -18.5t-44.5 18.5t-18.5 44.5t18.5 45t44.5 19t45 -19t19 -45zM631 1206q0 -26 -19 -44.5t-45 -18.5t-44.5 18.5t-18.5 44.5t18.5 45t44.5 19t45 -19t19 -45zM758 63q0 -26 -19 -44.5t-45 -18.5 t-44.5 18.5t-18.5 44.5t18.5 45t44.5 19t45 -19t19 -45zM758 1206q0 -26 -19 -44.5t-45 -18.5t-44.5 18.5t-18.5 44.5t18.5 45t44.5 19t45 -19t19 -45zM885 63q0 -26 -19 -44.5t-45 -18.5t-44.5 18.5t-18.5 44.5t18.5 45t44.5 19t45 -19t19 -45zM885 1206q0 -26 -19 -44.5 t-45 -18.5t-44.5 18.5t-18.5 44.5t18.5 45t44.5 19t45 -19t19 -45zM1012 317q0 -26 -19 -44.5t-45 -18.5t-44.5 18.5t-18.5 44.5t18.5 45t44.5 19t45 -19t19 -45zM1012 444q0 -26 -19 -44.5t-45 -18.5t-44.5 18.5t-18.5 44.5t18.5 45t44.5 19t45 -19t19 -45zM1012 571 q0 -26 -19 -44.5t-45 -18.5t-44.5 18.5t-18.5 44.5t18.5 45t44.5 19t45 -19t19 -45zM1012 698q0 -26 -19 -44.5t-45 -18.5t-44.5 18.5t-18.5 44.5t18.5 45t44.5 19t45 -19t19 -45zM1012 825q0 -26 -19 -44.5t-45 -18.5t-44.5 18.5t-18.5 44.5t18.5 45t44.5 19t45 -19t19 -45 zM1012 952q0 -26 -19 -44.5t-45 -18.5t-44.5 18.5t-18.5 44.5t18.5 45t44.5 19t45 -19t19 -45zM1012 1079q0 -26 -19 -44.5t-45 -18.5t-44.5 18.5t-18.5 44.5t18.5 45t44.5 19t45 -19t19 -45zM1012 190q0 -26 -19 -44.5t-45 -18.5t-44.5 18.5t-18.5 44.5t18.5 45t44.5 19 t45 -19t19 -45z" />
<glyph unicode="&#xb6;" horiz-adv-x="798" d="M168 698q0 -26 -19 -44.5t-45 -18.5t-44.5 18.5t-18.5 44.5t18.5 45t44.5 19t45 -19t19 -45zM168 825q0 -26 -19 -44.5t-45 -18.5t-44.5 18.5t-18.5 44.5t18.5 45t44.5 19t45 -19t19 -45zM168 952q0 -26 -19 -44.5t-45 -18.5t-44.5 18.5t-18.5 44.5t18.5 45t44.5 19 t45 -19t19 -45zM168 1079q0 -26 -19 -44.5t-45 -18.5t-44.5 18.5t-18.5 44.5t18.5 45t44.5 19t45 -19t19 -45zM295 952q0 -26 -19 -44.5t-45 -18.5t-44.5 18.5t-18.5 44.5t18.5 45t44.5 19t45 -19t19 -45zM295 1079q0 -26 -19 -44.5t-45 -18.5t-44.5 18.5t-18.5 44.5 t18.5 45t44.5 19t45 -19t19 -45zM295 1206q0 -26 -19 -44.5t-45 -18.5t-44.5 18.5t-18.5 44.5t18.5 45t44.5 19t45 -19t19 -45zM422 63q0 -26 -19 -44.5t-45 -18.5t-44.5 18.5t-18.5 44.5t18.5 45t44.5 19t45 -19t19 -45zM422 952q0 -26 -19 -44.5t-45 -18.5t-44.5 18.5 t-18.5 44.5t18.5 45t44.5 19t45 -19t19 -45zM422 1079q0 -26 -19 -44.5t-45 -18.5t-44.5 18.5t-18.5 44.5t18.5 45t44.5 19t45 -19t19 -45zM422 1206q0 -26 -19 -44.5t-45 -18.5t-44.5 18.5t-18.5 44.5t18.5 45t44.5 19t45 -19t19 -45zM422 190q0 -26 -19 -44.5t-45 -18.5 t-44.5 18.5t-18.5 44.5t18.5 45t44.5 19t45 -19t19 -45zM549 1206q0 -26 -19 -44.5t-45 -18.5t-44.5 18.5t-18.5 44.5t18.5 45t44.5 19t45 -19t19 -45zM676 63q0 -26 -19 -44.5t-45 -18.5t-44.5 18.5t-18.5 44.5t18.5 45t44.5 19t45 -19t19 -45zM676 952q0 -26 -19 -44.5 t-45 -18.5t-44.5 18.5t-18.5 44.5t18.5 45t44.5 19t45 -19t19 -45zM676 1079q0 -26 -19 -44.5t-45 -18.5t-44.5 18.5t-18.5 44.5t18.5 45t44.5 19t45 -19t19 -45zM676 1206q0 -26 -19 -44.5t-45 -18.5t-44.5 18.5t-18.5 44.5t18.5 45t44.5 19t45 -19t19 -45zM676 190 q0 -26 -19 -44.5t-45 -18.5t-44.5 18.5t-18.5 44.5t18.5 45t44.5 19t45 -19t19 -45zM295 571q0 -26 -19 -44.5t-45 -18.5t-44.5 18.5t-18.5 44.5t18.5 45t44.5 19t45 -19t19 -45zM295 698q0 -26 -19 -44.5t-45 -18.5t-44.5 18.5t-18.5 44.5t18.5 45t44.5 19t45 -19t19 -45z M295 825q0 -26 -19 -44.5t-45 -18.5t-44.5 18.5t-18.5 44.5t18.5 45t44.5 19t45 -19t19 -45zM422 317q0 -26 -19 -44.5t-45 -18.5t-44.5 18.5t-18.5 44.5t18.5 45t44.5 19t45 -19t19 -45zM422 444q0 -26 -19 -44.5t-45 -18.5t-44.5 18.5t-18.5 44.5t18.5 45t44.5 19t45 -19 t19 -45zM422 571q0 -26 -19 -44.5t-45 -18.5t-44.5 18.5t-18.5 44.5t18.5 45t44.5 19t45 -19t19 -45zM422 698q0 -26 -19 -44.5t-45 -18.5t-44.5 18.5t-18.5 44.5t18.5 45t44.5 19t45 -19t19 -45zM422 825q0 -26 -19 -44.5t-45 -18.5t-44.5 18.5t-18.5 44.5t18.5 45t44.5 19 t45 -19t19 -45zM676 317q0 -26 -19 -44.5t-45 -18.5t-44.5 18.5t-18.5 44.5t18.5 45t44.5 19t45 -19t19 -45zM676 444q0 -26 -19 -44.5t-45 -18.5t-44.5 18.5t-18.5 44.5t18.5 45t44.5 19t45 -19t19 -45zM676 571q0 -26 -19 -44.5t-45 -18.5t-44.5 18.5t-18.5 44.5t18.5 45 t44.5 19t45 -19t19 -45zM676 698q0 -26 -19 -44.5t-45 -18.5t-44.5 18.5t-18.5 44.5t18.5 45t44.5 19t45 -19t19 -45zM676 825q0 -26 -19 -44.5t-45 -18.5t-44.5 18.5t-18.5 44.5t18.5 45t44.5 19t45 -19t19 -45zM422 -63q0 -26 -19 -45t-45 -19t-44.5 19t-18.5 45 t18.5 44.5t44.5 18.5t45 -18.5t19 -44.5zM676 -63q0 -26 -19 -45t-45 -19t-44.5 19t-18.5 45t18.5 44.5t44.5 18.5t45 -18.5t19 -44.5z" />
<glyph unicode="&#xb7;" horiz-adv-x="1134" d="M250 317q0 -26 -19 -44.5t-45 -18.5t-44.5 18.5t-18.5 44.5t18.5 45t44.5 19t45 -19t19 -45zM250 444q0 -26 -19 -44.5t-45 -18.5t-44.5 18.5t-18.5 44.5t18.5 45t44.5 19t45 -19t19 -45zM250 571q0 -26 -19 -44.5t-45 -18.5t-44.5 18.5t-18.5 44.5t18.5 45t44.5 19 t45 -19t19 -45zM250 698q0 -26 -19 -44.5t-45 -18.5t-44.5 18.5t-18.5 44.5t18.5 45t44.5 19t45 -19t19 -45zM250 825q0 -26 -19 -44.5t-45 -18.5t-44.5 18.5t-18.5 44.5t18.5 45t44.5 19t45 -19t19 -45zM250 952q0 -26 -19 -44.5t-45 -18.5t-44.5 18.5t-18.5 44.5t18.5 45 t44.5 19t45 -19t19 -45zM250 1079q0 -26 -19 -44.5t-45 -18.5t-44.5 18.5t-18.5 44.5t18.5 45t44.5 19t45 -19t19 -45zM250 190q0 -26 -19 -44.5t-45 -18.5t-44.5 18.5t-18.5 44.5t18.5 45t44.5 19t45 -19t19 -45zM377 63q0 -26 -19 -44.5t-45 -18.5t-44.5 18.5t-18.5 44.5 t18.5 45t44.5 19t45 -19t19 -45zM377 1206q0 -26 -19 -44.5t-45 -18.5t-44.5 18.5t-18.5 44.5t18.5 45t44.5 19t45 -19t19 -45zM504 63q0 -26 -19 -44.5t-45 -18.5t-44.5 18.5t-18.5 44.5t18.5 45t44.5 19t45 -19t19 -45zM504 1206q0 -26 -19 -44.5t-45 -18.5t-44.5 18.5 t-18.5 44.5t18.5 45t44.5 19t45 -19t19 -45zM631 63q0 -26 -19 -44.5t-45 -18.5t-44.5 18.5t-18.5 44.5t18.5 45t44.5 19t45 -19t19 -45zM631 1206q0 -26 -19 -44.5t-45 -18.5t-44.5 18.5t-18.5 44.5t18.5 45t44.5 19t45 -19t19 -45zM758 63q0 -26 -19 -44.5t-45 -18.5 t-44.5 18.5t-18.5 44.5t18.5 45t44.5 19t45 -19t19 -45zM758 1206q0 -26 -19 -44.5t-45 -18.5t-44.5 18.5t-18.5 44.5t18.5 45t44.5 19t45 -19t19 -45zM885 63q0 -26 -19 -44.5t-45 -18.5t-44.5 18.5t-18.5 44.5t18.5 45t44.5 19t45 -19t19 -45zM885 1206q0 -26 -19 -44.5 t-45 -18.5t-44.5 18.5t-18.5 44.5t18.5 45t44.5 19t45 -19t19 -45zM1012 317q0 -26 -19 -44.5t-45 -18.5t-44.5 18.5t-18.5 44.5t18.5 45t44.5 19t45 -19t19 -45zM1012 444q0 -26 -19 -44.5t-45 -18.5t-44.5 18.5t-18.5 44.5t18.5 45t44.5 19t45 -19t19 -45zM1012 571 q0 -26 -19 -44.5t-45 -18.5t-44.5 18.5t-18.5 44.5t18.5 45t44.5 19t45 -19t19 -45zM1012 698q0 -26 -19 -44.5t-45 -18.5t-44.5 18.5t-18.5 44.5t18.5 45t44.5 19t45 -19t19 -45zM1012 825q0 -26 -19 -44.5t-45 -18.5t-44.5 18.5t-18.5 44.5t18.5 45t44.5 19t45 -19t19 -45 zM1012 952q0 -26 -19 -44.5t-45 -18.5t-44.5 18.5t-18.5 44.5t18.5 45t44.5 19t45 -19t19 -45zM1012 1079q0 -26 -19 -44.5t-45 -18.5t-44.5 18.5t-18.5 44.5t18.5 45t44.5 19t45 -19t19 -45zM1012 190q0 -26 -19 -44.5t-45 -18.5t-44.5 18.5t-18.5 44.5t18.5 45t44.5 19 t45 -19t19 -45z" />
<glyph unicode="&#xbb;" horiz-adv-x="798" d="M209 317q0 26 18.5 45t44.5 19t45 -19t19 -45t-19 -44.5t-45 -18.5t-44.5 18.5t-18.5 44.5zM209 571q0 26 18.5 45t44.5 19t45 -19t19 -45t-19 -44.5t-45 -18.5t-44.5 18.5t-18.5 44.5zM82 698q0 26 18.5 45t44.5 19t45 -19t19 -45t-19 -44.5t-45 -18.5t-44.5 18.5 t-18.5 44.5zM82 190q0 26 18.5 45t44.5 19t45 -19t19 -45t-19 -44.5t-45 -18.5t-44.5 18.5t-18.5 44.5zM336 444q0 26 18.5 45t44.5 19t45 -19t19 -45t-19 -44.5t-45 -18.5t-44.5 18.5t-18.5 44.5zM463 317q0 26 18.5 45t44.5 19t45 -19t19 -45t-19 -44.5t-45 -18.5 t-44.5 18.5t-18.5 44.5zM463 571q0 26 18.5 45t44.5 19t45 -19t19 -45t-19 -44.5t-45 -18.5t-44.5 18.5t-18.5 44.5zM336 698q0 26 18.5 45t44.5 19t45 -19t19 -45t-19 -44.5t-45 -18.5t-44.5 18.5t-18.5 44.5zM336 190q0 26 18.5 45t44.5 19t45 -19t19 -45t-19 -44.5 t-45 -18.5t-44.5 18.5t-18.5 44.5zM590 444q0 26 18.5 45t44.5 19t45 -19t19 -45t-19 -44.5t-45 -18.5t-44.5 18.5t-18.5 44.5z" />
<glyph unicode="&#x2000;" horiz-adv-x="698" />
<glyph unicode="&#x2001;" horiz-adv-x="1397" />
<glyph unicode="&#x2002;" horiz-adv-x="698" />
<glyph unicode="&#x2003;" horiz-adv-x="1397" />
<glyph unicode="&#x2004;" horiz-adv-x="465" />
<glyph unicode="&#x2005;" horiz-adv-x="349" />
<glyph unicode="&#x2006;" horiz-adv-x="232" />
<glyph unicode="&#x2007;" horiz-adv-x="232" />
<glyph unicode="&#x2008;" horiz-adv-x="174" />
<glyph unicode="&#x2009;" horiz-adv-x="279" />
<glyph unicode="&#x200a;" horiz-adv-x="77" />
<glyph unicode="&#x2010;" horiz-adv-x="671" d="M336 571q0 -26 -19 -44.5t-45 -18.5t-44.5 18.5t-18.5 44.5t18.5 45t44.5 19t45 -19t19 -45zM463 571q0 -26 -19 -44.5t-45 -18.5t-44.5 18.5t-18.5 44.5t18.5 45t44.5 19t45 -19t19 -45zM590 571q0 -26 -19 -44.5t-45 -18.5t-44.5 18.5t-18.5 44.5t18.5 45t44.5 19 t45 -19t19 -45zM209 571q0 -26 -19 -44.5t-45 -18.5t-44.5 18.5t-18.5 44.5t18.5 45t44.5 19t45 -19t19 -45z" />
<glyph unicode="&#x2011;" horiz-adv-x="671" d="M336 571q0 -26 -19 -44.5t-45 -18.5t-44.5 18.5t-18.5 44.5t18.5 45t44.5 19t45 -19t19 -45zM463 571q0 -26 -19 -44.5t-45 -18.5t-44.5 18.5t-18.5 44.5t18.5 45t44.5 19t45 -19t19 -45zM590 571q0 -26 -19 -44.5t-45 -18.5t-44.5 18.5t-18.5 44.5t18.5 45t44.5 19 t45 -19t19 -45zM209 571q0 -26 -19 -44.5t-45 -18.5t-44.5 18.5t-18.5 44.5t18.5 45t44.5 19t45 -19t19 -45z" />
<glyph unicode="&#x2012;" horiz-adv-x="671" d="M336 571q0 -26 -19 -44.5t-45 -18.5t-44.5 18.5t-18.5 44.5t18.5 45t44.5 19t45 -19t19 -45zM463 571q0 -26 -19 -44.5t-45 -18.5t-44.5 18.5t-18.5 44.5t18.5 45t44.5 19t45 -19t19 -45zM590 571q0 -26 -19 -44.5t-45 -18.5t-44.5 18.5t-18.5 44.5t18.5 45t44.5 19 t45 -19t19 -45zM209 571q0 -26 -19 -44.5t-45 -18.5t-44.5 18.5t-18.5 44.5t18.5 45t44.5 19t45 -19t19 -45z" />
<glyph unicode="&#x2013;" horiz-adv-x="1052" d="M336 571q0 -26 -19 -44.5t-45 -18.5t-44.5 18.5t-18.5 44.5t18.5 45t44.5 19t45 -19t19 -45zM463 571q0 -26 -19 -44.5t-45 -18.5t-44.5 18.5t-18.5 44.5t18.5 45t44.5 19t45 -19t19 -45zM590 571q0 -26 -19 -44.5t-45 -18.5t-44.5 18.5t-18.5 44.5t18.5 45t44.5 19 t45 -19t19 -45zM209 571q0 -26 -19 -44.5t-45 -18.5t-44.5 18.5t-18.5 44.5t18.5 45t44.5 19t45 -19t19 -45zM844 571q0 -26 -19 -44.5t-45 -18.5t-44.5 18.5t-18.5 44.5t18.5 45t44.5 19t45 -19t19 -45zM971 571q0 -26 -19 -44.5t-45 -18.5t-44.5 18.5t-18.5 44.5t18.5 45 t44.5 19t45 -19t19 -45zM717 571q0 -26 -19 -44.5t-45 -18.5t-44.5 18.5t-18.5 44.5t18.5 45t44.5 19t45 -19t19 -45z" />
<glyph unicode="&#x2014;" horiz-adv-x="1306" d="M336 571q0 -26 -19 -44.5t-45 -18.5t-44.5 18.5t-18.5 44.5t18.5 45t44.5 19t45 -19t19 -45zM463 571q0 -26 -19 -44.5t-45 -18.5t-44.5 18.5t-18.5 44.5t18.5 45t44.5 19t45 -19t19 -45zM590 571q0 -26 -19 -44.5t-45 -18.5t-44.5 18.5t-18.5 44.5t18.5 45t44.5 19 t45 -19t19 -45zM209 571q0 -26 -19 -44.5t-45 -18.5t-44.5 18.5t-18.5 44.5t18.5 45t44.5 19t45 -19t19 -45zM844 571q0 -26 -19 -44.5t-45 -18.5t-44.5 18.5t-18.5 44.5t18.5 45t44.5 19t45 -19t19 -45zM971 571q0 -26 -19 -44.5t-45 -18.5t-44.5 18.5t-18.5 44.5t18.5 45 t44.5 19t45 -19t19 -45zM717 571q0 -26 -19 -44.5t-45 -18.5t-44.5 18.5t-18.5 44.5t18.5 45t44.5 19t45 -19t19 -45zM1098 571q0 -26 -19 -44.5t-45 -18.5t-44.5 18.5t-18.5 44.5t18.5 45t44.5 19t45 -19t19 -45zM1225 571q0 -26 -19 -44.5t-45 -18.5t-44.5 18.5 t-18.5 44.5t18.5 45t44.5 19t45 -19t19 -45z" />
<glyph unicode="&#x2018;" horiz-adv-x="358" d="M168 1120q0 26 18.5 45t44.5 19t45 -19t19 -45t-19 -44.5t-45 -18.5t-44.5 18.5t-18.5 44.5zM82 963q0 35 25.5 60.5t60.5 25.5t60.5 -25.5t25.5 -60.5q0 -34 -25.5 -59t-60.5 -25t-60.5 25t-25.5 59zM240 1231q0 17 11.5 28t27.5 11q15 0 26.5 -11t11.5 -28 q0 -15 -11.5 -26t-26.5 -11t-27 11t-12 26z" />
<glyph unicode="&#x2019;" horiz-adv-x="358" d="M190 1028q0 -26 -18.5 -44.5t-44.5 -18.5t-45 18.5t-19 44.5t19 45t45 19t44.5 -19t18.5 -45zM276 1186q0 -35 -25.5 -60.5t-60.5 -25.5t-60.5 25.5t-25.5 60.5q0 34 25.5 59t60.5 25t60.5 -25t25.5 -59zM119 918q0 -17 -11.5 -28t-27.5 -11t-27.5 11t-11.5 28 q0 15 12 25.5t27 10.5t27 -10.5t12 -25.5z" />
<glyph unicode="&#x201a;" horiz-adv-x="358" d="M190 -72q0 -26 -18.5 -44.5t-44.5 -18.5t-45 18.5t-19 44.5t19 45t45 19t44.5 -19t18.5 -45zM276 86q0 -35 -25.5 -60.5t-60.5 -25.5t-60.5 25.5t-25.5 60.5q0 34 25.5 59t60.5 25t60.5 -25t25.5 -59zM119 -182q0 -17 -11.5 -28t-27.5 -11t-27.5 11t-11.5 28q0 15 12 26 t27 11t27 -11t12 -26z" />
<glyph unicode="&#x201c;" horiz-adv-x="550" d="M168 1120q0 26 18.5 45t44.5 19t45 -19t19 -45t-19 -44.5t-45 -18.5t-44.5 18.5t-18.5 44.5zM82 963q0 35 25.5 60.5t60.5 25.5t60.5 -25.5t25.5 -60.5q0 -34 -25.5 -59t-60.5 -25t-60.5 25t-25.5 59zM240 1231q0 17 11.5 28t27.5 11q15 0 26.5 -11t11.5 -28 q0 -15 -11.5 -26t-26.5 -11t-27 11t-12 26zM360 1120q0 26 19 45t45 19t44.5 -19t18.5 -45t-18.5 -44.5t-44.5 -18.5t-45 18.5t-19 44.5zM274 963q0 35 25.5 60.5t60.5 25.5t60.5 -25.5t25.5 -60.5q0 -34 -25.5 -59t-60.5 -25t-60.5 25t-25.5 59zM432 1231q0 17 11.5 28 t27.5 11t27.5 -11t11.5 -28q0 -15 -12 -26t-27 -11t-27 11t-12 26z" />
<glyph unicode="&#x201d;" horiz-adv-x="550" d="M383 1028q0 -26 -19 -44.5t-45 -18.5t-44.5 18.5t-18.5 44.5t18.5 45t44.5 19t45 -19t19 -45zM469 1186q0 -35 -25.5 -60.5t-60.5 -25.5t-60.5 25.5t-25.5 60.5q0 34 25.5 59t60.5 25t60.5 -25t25.5 -59zM311 918q0 -17 -11.5 -28t-27.5 -11t-27.5 11t-11.5 28 q0 15 12 25.5t27 10.5t27 -10.5t12 -25.5zM190 1028q0 -26 -18.5 -44.5t-44.5 -18.5t-45 18.5t-19 44.5t19 45t45 19t44.5 -19t18.5 -45zM276 1186q0 -35 -25.5 -60.5t-60.5 -25.5t-60.5 25.5t-25.5 60.5q0 34 25.5 59t60.5 25t60.5 -25t25.5 -59zM119 918q0 -17 -11.5 -28 t-27.5 -11t-27.5 11t-11.5 28q0 15 12 25.5t27 10.5t27 -10.5t12 -25.5z" />
<glyph unicode="&#x201e;" horiz-adv-x="550" d="M383 -72q0 -26 -19 -44.5t-45 -18.5t-44.5 18.5t-18.5 44.5t18.5 45t44.5 19t45 -19t19 -45zM469 86q0 -35 -25.5 -60.5t-60.5 -25.5t-60.5 25.5t-25.5 60.5q0 34 25.5 59t60.5 25t60.5 -25t25.5 -59zM311 -182q0 -17 -11.5 -28t-27.5 -11t-27.5 11t-11.5 28q0 15 12 26 t27 11t27 -11t12 -26zM190 -72q0 -26 -18.5 -44.5t-44.5 -18.5t-45 18.5t-19 44.5t19 45t45 19t44.5 -19t18.5 -45zM276 86q0 -35 -25.5 -60.5t-60.5 -25.5t-60.5 25.5t-25.5 60.5q0 34 25.5 59t60.5 25t60.5 -25t25.5 -59zM119 -182q0 -17 -11.5 -28t-27.5 -11t-27.5 11 t-11.5 28q0 15 12 26t27 11t27 -11t12 -26z" />
<glyph unicode="&#x2022;" horiz-adv-x="1134" d="M250 317q0 -26 -19 -44.5t-45 -18.5t-44.5 18.5t-18.5 44.5t18.5 45t44.5 19t45 -19t19 -45zM250 444q0 -26 -19 -44.5t-45 -18.5t-44.5 18.5t-18.5 44.5t18.5 45t44.5 19t45 -19t19 -45zM250 571q0 -26 -19 -44.5t-45 -18.5t-44.5 18.5t-18.5 44.5t18.5 45t44.5 19 t45 -19t19 -45zM250 698q0 -26 -19 -44.5t-45 -18.5t-44.5 18.5t-18.5 44.5t18.5 45t44.5 19t45 -19t19 -45zM250 825q0 -26 -19 -44.5t-45 -18.5t-44.5 18.5t-18.5 44.5t18.5 45t44.5 19t45 -19t19 -45zM250 952q0 -26 -19 -44.5t-45 -18.5t-44.5 18.5t-18.5 44.5t18.5 45 t44.5 19t45 -19t19 -45zM250 1079q0 -26 -19 -44.5t-45 -18.5t-44.5 18.5t-18.5 44.5t18.5 45t44.5 19t45 -19t19 -45zM250 190q0 -26 -19 -44.5t-45 -18.5t-44.5 18.5t-18.5 44.5t18.5 45t44.5 19t45 -19t19 -45zM377 63q0 -26 -19 -44.5t-45 -18.5t-44.5 18.5t-18.5 44.5 t18.5 45t44.5 19t45 -19t19 -45zM377 1206q0 -26 -19 -44.5t-45 -18.5t-44.5 18.5t-18.5 44.5t18.5 45t44.5 19t45 -19t19 -45zM504 63q0 -26 -19 -44.5t-45 -18.5t-44.5 18.5t-18.5 44.5t18.5 45t44.5 19t45 -19t19 -45zM504 1206q0 -26 -19 -44.5t-45 -18.5t-44.5 18.5 t-18.5 44.5t18.5 45t44.5 19t45 -19t19 -45zM631 63q0 -26 -19 -44.5t-45 -18.5t-44.5 18.5t-18.5 44.5t18.5 45t44.5 19t45 -19t19 -45zM631 1206q0 -26 -19 -44.5t-45 -18.5t-44.5 18.5t-18.5 44.5t18.5 45t44.5 19t45 -19t19 -45zM758 63q0 -26 -19 -44.5t-45 -18.5 t-44.5 18.5t-18.5 44.5t18.5 45t44.5 19t45 -19t19 -45zM758 1206q0 -26 -19 -44.5t-45 -18.5t-44.5 18.5t-18.5 44.5t18.5 45t44.5 19t45 -19t19 -45zM885 63q0 -26 -19 -44.5t-45 -18.5t-44.5 18.5t-18.5 44.5t18.5 45t44.5 19t45 -19t19 -45zM885 1206q0 -26 -19 -44.5 t-45 -18.5t-44.5 18.5t-18.5 44.5t18.5 45t44.5 19t45 -19t19 -45zM1012 317q0 -26 -19 -44.5t-45 -18.5t-44.5 18.5t-18.5 44.5t18.5 45t44.5 19t45 -19t19 -45zM1012 444q0 -26 -19 -44.5t-45 -18.5t-44.5 18.5t-18.5 44.5t18.5 45t44.5 19t45 -19t19 -45zM1012 571 q0 -26 -19 -44.5t-45 -18.5t-44.5 18.5t-18.5 44.5t18.5 45t44.5 19t45 -19t19 -45zM1012 698q0 -26 -19 -44.5t-45 -18.5t-44.5 18.5t-18.5 44.5t18.5 45t44.5 19t45 -19t19 -45zM1012 825q0 -26 -19 -44.5t-45 -18.5t-44.5 18.5t-18.5 44.5t18.5 45t44.5 19t45 -19t19 -45 zM1012 952q0 -26 -19 -44.5t-45 -18.5t-44.5 18.5t-18.5 44.5t18.5 45t44.5 19t45 -19t19 -45zM1012 1079q0 -26 -19 -44.5t-45 -18.5t-44.5 18.5t-18.5 44.5t18.5 45t44.5 19t45 -19t19 -45zM1012 190q0 -26 -19 -44.5t-45 -18.5t-44.5 18.5t-18.5 44.5t18.5 45t44.5 19 t45 -19t19 -45z" />
<glyph unicode="&#x2026;" horiz-adv-x="888" d="M254 86q0 -35 -25.5 -60.5t-60.5 -25.5t-60.5 25.5t-25.5 60.5q0 34 25.5 59t60.5 25t60.5 -25t25.5 -59zM807 86q0 -35 -25.5 -60.5t-60.5 -25.5t-60.5 25.5t-25.5 60.5q0 34 25.5 59t60.5 25t60.5 -25t25.5 -59zM530 86q0 -35 -25.5 -60.5t-60.5 -25.5t-60.5 25.5 t-25.5 60.5q0 34 25.5 59t60.5 25t60.5 -25t25.5 -59z" />
<glyph unicode="&#x202f;" horiz-adv-x="279" />
<glyph unicode="&#x2039;" horiz-adv-x="671" d="M336 317q0 -26 -19 -44.5t-45 -18.5t-44.5 18.5t-18.5 44.5t18.5 45t44.5 19t45 -19t19 -45zM336 571q0 -26 -19 -44.5t-45 -18.5t-44.5 18.5t-18.5 44.5t18.5 45t44.5 19t45 -19t19 -45zM209 444q0 -26 -19 -44.5t-45 -18.5t-44.5 18.5t-18.5 44.5t18.5 45t44.5 19 t45 -19t19 -45zM463 190q0 -26 -19 -44.5t-45 -18.5t-44.5 18.5t-18.5 44.5t18.5 45t44.5 19t45 -19t19 -45zM590 63q0 -26 -19 -44.5t-45 -18.5t-44.5 18.5t-18.5 44.5t18.5 45t44.5 19t45 -19t19 -45zM463 698q0 -26 -19 -44.5t-45 -18.5t-44.5 18.5t-18.5 44.5t18.5 45 t44.5 19t45 -19t19 -45zM590 825q0 -26 -19 -44.5t-45 -18.5t-44.5 18.5t-18.5 44.5t18.5 45t44.5 19t45 -19t19 -45z" />
<glyph unicode="&#x203a;" horiz-adv-x="671" d="M336 317q0 26 18.5 45t44.5 19t45 -19t19 -45t-19 -44.5t-45 -18.5t-44.5 18.5t-18.5 44.5zM336 571q0 26 18.5 45t44.5 19t45 -19t19 -45t-19 -44.5t-45 -18.5t-44.5 18.5t-18.5 44.5zM463 444q0 26 18.5 45t44.5 19t45 -19t19 -45t-19 -44.5t-45 -18.5t-44.5 18.5 t-18.5 44.5zM209 190q0 26 18.5 45t44.5 19t45 -19t19 -45t-19 -44.5t-45 -18.5t-44.5 18.5t-18.5 44.5zM82 63q0 26 18.5 45t44.5 19t45 -19t19 -45t-19 -44.5t-45 -18.5t-44.5 18.5t-18.5 44.5zM209 698q0 26 18.5 45t44.5 19t45 -19t19 -45t-19 -44.5t-45 -18.5 t-44.5 18.5t-18.5 44.5zM82 825q0 26 18.5 45t44.5 19t45 -19t19 -45t-19 -44.5t-45 -18.5t-44.5 18.5t-18.5 44.5z" />
<glyph unicode="&#x205f;" horiz-adv-x="349" />
<glyph unicode="&#x20ac;" horiz-adv-x="925" d="M250 317q0 -26 -19 -44.5t-45 -18.5t-44.5 18.5t-18.5 44.5t18.5 45t44.5 19t45 -19t19 -45zM250 444q0 -26 -19 -44.5t-45 -18.5t-44.5 18.5t-18.5 44.5t18.5 45t44.5 19t45 -19t19 -45zM250 571q0 -26 -19 -44.5t-45 -18.5t-44.5 18.5t-18.5 44.5t18.5 45t44.5 19 t45 -19t19 -45zM250 698q0 -26 -19 -44.5t-45 -18.5t-44.5 18.5t-18.5 44.5t18.5 45t44.5 19t45 -19t19 -45zM250 825q0 -26 -19 -44.5t-45 -18.5t-44.5 18.5t-18.5 44.5t18.5 45t44.5 19t45 -19t19 -45zM250 952q0 -26 -19 -44.5t-45 -18.5t-44.5 18.5t-18.5 44.5t18.5 45 t44.5 19t45 -19t19 -45zM250 1079q0 -26 -19 -44.5t-45 -18.5t-44.5 18.5t-18.5 44.5t18.5 45t44.5 19t45 -19t19 -45zM250 190q0 -26 -19 -44.5t-45 -18.5t-44.5 18.5t-18.5 44.5t18.5 45t44.5 19t45 -19t19 -45zM377 63q0 -26 -19 -44.5t-45 -18.5t-44.5 18.5t-18.5 44.5 t18.5 45t44.5 19t45 -19t19 -45zM377 1206q0 -26 -19 -44.5t-45 -18.5t-44.5 18.5t-18.5 44.5t18.5 45t44.5 19t45 -19t19 -45zM504 63q0 -26 -19 -44.5t-45 -18.5t-44.5 18.5t-18.5 44.5t18.5 45t44.5 19t45 -19t19 -45zM504 1206q0 -26 -19 -44.5t-45 -18.5t-44.5 18.5 t-18.5 44.5t18.5 45t44.5 19t45 -19t19 -45zM631 63q0 -26 -19 -44.5t-45 -18.5t-44.5 18.5t-18.5 44.5t18.5 45t44.5 19t45 -19t19 -45zM631 1206q0 -26 -19 -44.5t-45 -18.5t-44.5 18.5t-18.5 44.5t18.5 45t44.5 19t45 -19t19 -45zM758 63q0 -26 -19 -44.5t-45 -18.5 t-44.5 18.5t-18.5 44.5t18.5 45t44.5 19t45 -19t19 -45zM758 1206q0 -26 -19 -44.5t-45 -18.5t-44.5 18.5t-18.5 44.5t18.5 45t44.5 19t45 -19t19 -45zM885 63q0 -26 -19 -44.5t-45 -18.5t-44.5 18.5t-18.5 44.5t18.5 45t44.5 19t45 -19t19 -45zM885 1079q0 -26 -19 -44.5 t-45 -18.5t-44.5 18.5t-18.5 44.5t18.5 45t44.5 19t45 -19t19 -45zM377 698q0 -26 -19 -44.5t-45 -18.5t-44.5 18.5t-18.5 44.5t18.5 45t44.5 19t45 -19t19 -45zM504 698q0 -26 -19 -44.5t-45 -18.5t-44.5 18.5t-18.5 44.5t18.5 45t44.5 19t45 -19t19 -45zM631 698 q0 -26 -19 -44.5t-45 -18.5t-44.5 18.5t-18.5 44.5t18.5 45t44.5 19t45 -19t19 -45zM758 698q0 -26 -19 -44.5t-45 -18.5t-44.5 18.5t-18.5 44.5t18.5 45t44.5 19t45 -19t19 -45zM377 444q0 -26 -19 -44.5t-45 -18.5t-44.5 18.5t-18.5 44.5t18.5 45t44.5 19t45 -19t19 -45z M504 444q0 -26 -19 -44.5t-45 -18.5t-44.5 18.5t-18.5 44.5t18.5 45t44.5 19t45 -19t19 -45zM631 444q0 -26 -19 -44.5t-45 -18.5t-44.5 18.5t-18.5 44.5t18.5 45t44.5 19t45 -19t19 -45z" />
<glyph unicode="&#x2122;" horiz-adv-x="1224" d="M168 1206q0 -26 -19 -44.5t-45 -18.5t-44.5 18.5t-18.5 44.5t18.5 45t44.5 19t45 -19t19 -45zM295 952q0 -26 -19 -44.5t-45 -18.5t-44.5 18.5t-18.5 44.5t18.5 45t44.5 19t45 -19t19 -45zM295 1079q0 -26 -19 -44.5t-45 -18.5t-44.5 18.5t-18.5 44.5t18.5 45t44.5 19 t45 -19t19 -45zM295 1206q0 -26 -19 -44.5t-45 -18.5t-44.5 18.5t-18.5 44.5t18.5 45t44.5 19t45 -19t19 -45zM422 1206q0 -26 -19 -44.5t-45 -18.5t-44.5 18.5t-18.5 44.5t18.5 45t44.5 19t45 -19t19 -45zM676 952q0 -26 -19 -44.5t-45 -18.5t-44.5 18.5t-18.5 44.5 t18.5 45t44.5 19t45 -19t19 -45zM676 1079q0 -26 -19 -44.5t-45 -18.5t-44.5 18.5t-18.5 44.5t18.5 45t44.5 19t45 -19t19 -45zM676 1206q0 -26 -19 -44.5t-45 -18.5t-44.5 18.5t-18.5 44.5t18.5 45t44.5 19t45 -19t19 -45zM803 1079q0 -26 -19 -44.5t-45 -18.5t-44.5 18.5 t-18.5 44.5t18.5 45t44.5 19t45 -19t19 -45zM930 952q0 -26 -19 -44.5t-45 -18.5t-44.5 18.5t-18.5 44.5t18.5 45t44.5 19t45 -19t19 -45zM1057 1079q0 -26 -19 -44.5t-45 -18.5t-44.5 18.5t-18.5 44.5t18.5 45t44.5 19t45 -19t19 -45zM1184 952q0 -26 -19 -44.5t-45 -18.5 t-44.5 18.5t-18.5 44.5t18.5 45t44.5 19t45 -19t19 -45zM1184 1079q0 -26 -19 -44.5t-45 -18.5t-44.5 18.5t-18.5 44.5t18.5 45t44.5 19t45 -19t19 -45zM1184 1206q0 -26 -19 -44.5t-45 -18.5t-44.5 18.5t-18.5 44.5t18.5 45t44.5 19t45 -19t19 -45z" />
<glyph unicode="&#x25fc;" horiz-adv-x="890" d="M0 891h891v-891h-891v891z" />
</font>
</defs>
</svg>
